<svg width="360" height="264" viewBox="0 0 360 264" fill="none" xmlns="http://www.w3.org/2000/svg">
<path d="M232.236 44.2776C231.959 46.5642 231.849 48.8417 231.922 51.0724C232.201 59.5365 236.109 69.6377 244.04 73.7463C253.923 78.866 266.34 73.5502 276.718 76.9373C292.793 82.1838 306.156 103.487 324.418 91.7734C337.883 83.1363 342.766 62.4447 339.912 47.5546C334.9 21.3974 311.244 1.5272 284.782 0.544222C267.807 -0.0862542 251.075 6.13627 241.301 20.2975C236.594 27.1171 233.264 35.76 232.236 44.2776Z" fill="#E8FFF3"/>
<path d="M-20.9677 262.836H384.308H384.961C397.35 234.547 402.273 203.017 398.235 172.391C396.154 156.603 391.484 140.448 380.577 128.863C373.664 121.52 364.635 116.46 355.234 112.83C332.17 103.927 306.03 103.272 282.552 111.009C267.118 116.095 251.578 124.803 235.65 121.594C228.71 120.196 222.412 116.596 216.566 112.598C185.314 91.227 161.391 56.2476 124.416 48.1964C100.504 42.9897 75.0201 50.6915 55.1158 64.9522C35.2115 79.2128 20.3176 99.4832 8.3416 120.862C-15.8443 164.038 -28.1396 213.85 -20.9677 262.836Z" fill="#E8FFF3"/>
<mask id="mask0_1_2110" style="mask-type:luminance" maskUnits="userSpaceOnUse" x="-23" y="46" width="423" height="217">
<path d="M-20.9677 262.836H384.308H384.961C397.35 234.547 402.273 203.017 398.235 172.391C396.154 156.603 391.484 140.448 380.577 128.863C373.664 121.52 364.635 116.46 355.234 112.83C332.17 103.927 306.03 103.272 282.552 111.009C267.118 116.095 251.578 124.803 235.65 121.594C228.71 120.196 222.412 116.596 216.566 112.598C185.314 91.227 161.391 56.2476 124.416 48.1964C100.504 42.9897 75.0201 50.6915 55.1158 64.9522C35.2115 79.2128 20.3176 99.4832 8.3416 120.862C-15.8443 164.038 -28.1396 213.85 -20.9677 262.836Z" fill="white"/>
</mask>
<g mask="url(#mask0_1_2110)">
<path opacity="0.1" d="M320.278 149.254C299.79 161.951 282.902 179.577 265.899 196.674C255.403 207.228 244.302 217.956 230.29 222.945C219.893 226.648 208.599 226.909 197.58 226.323C178.493 225.308 159.536 221.862 141.309 216.094C119.069 209.055 97.9758 198.6 75.4975 192.367C42.3549 183.178 6.62719 183.555 -26.3146 193.443C-27.3371 219.387 -28.5105 245.391 -29.533 271.334C-0.704212 273.557 28.2296 270.516 57.0916 268.777C159.729 262.594 262.453 272.875 365.131 269.305C378.519 268.839 392.238 268.754 405.54 267.097C406.014 264.875 405.788 262.288 405.85 260.008C405.92 257.437 405.971 254.865 406.004 252.293C406.07 247.149 406.062 242.004 405.981 236.86C405.819 226.573 405.363 216.29 404.613 206.028C403.369 188.994 401.316 172.019 398.462 155.181C397.68 150.57 396.8 145.931 395.144 141.543C394.087 138.741 392.736 135.026 389.599 134.012C386.809 133.11 383.259 133.389 380.356 133.103C375.858 132.661 371.321 132.646 366.816 133.006C350.27 134.327 334.314 140.554 320.278 149.254Z" fill="#198F51"/>
</g>
<path d="M246.335 154.354H58.9607C56.9301 154.354 55.2842 152.705 55.2842 150.67V26.3646C55.2842 24.3303 56.9301 22.6812 58.9607 22.6812H246.335C248.365 22.6812 250.011 24.3303 250.011 26.3646V150.67C250.011 152.705 248.365 154.354 246.335 154.354Z" fill="#D1E9DC"/>
<mask id="mask1_1_2110" style="mask-type:luminance" maskUnits="userSpaceOnUse" x="55" y="22" width="196" height="133">
<path d="M246.335 154.354H58.9607C56.9301 154.354 55.2842 152.705 55.2842 150.67V26.3646C55.2842 24.3303 56.9301 22.6812 58.9607 22.6812H246.335C248.365 22.6812 250.011 24.3303 250.011 26.3646V150.67C250.011 152.705 248.365 154.354 246.335 154.354Z" fill="white"/>
</mask>
<g mask="url(#mask1_1_2110)">
<path d="M258.836 15.1961H45.7026V37.0544H258.836V15.1961Z" fill="#198F51"/>
</g>
<path d="M65.5907 33.1466C67.0618 33.1466 68.2543 31.9519 68.2543 30.4781C68.2543 29.0043 67.0618 27.8096 65.5907 27.8096C64.1197 27.8096 62.9272 29.0043 62.9272 30.4781C62.9272 31.9519 64.1197 33.1466 65.5907 33.1466Z" fill="#198F51"/>
<path d="M75.2652 33.1466C76.7363 33.1466 77.9288 31.9519 77.9288 30.4781C77.9288 29.0043 76.7363 27.8096 75.2652 27.8096C73.7942 27.8096 72.6017 29.0043 72.6017 30.4781C72.6017 31.9519 73.7942 33.1466 75.2652 33.1466Z" fill="white"/>
<path d="M84.9396 33.1466C86.4106 33.1466 87.6031 31.9519 87.6031 30.4781C87.6031 29.0043 86.4106 27.8096 84.9396 27.8096C83.4685 27.8096 82.276 29.0043 82.276 30.4781C82.276 31.9519 83.4685 33.1466 84.9396 33.1466Z" fill="white"/>
<path d="M243.814 153.094H58.3697C55.6836 153.094 53.498 150.905 53.498 148.214V25.8406C53.498 23.1493 55.6834 20.9598 58.3697 20.9598H243.814C246.501 20.9598 248.686 23.1493 248.686 25.8406V148.213C248.686 150.905 246.501 153.094 243.814 153.094ZM58.3697 21.4218C55.9378 21.4218 53.9592 23.4041 53.9592 25.8406V148.213C53.9592 150.65 55.9378 152.632 58.3697 152.632H243.814C246.246 152.632 248.225 150.65 248.225 148.213V25.8406C248.225 23.4041 246.246 21.4218 243.814 21.4218H58.3697Z" fill="#102A54"/>
<path d="M114.47 141.608H65.8331C64.7869 141.608 63.9388 140.758 63.9388 139.71V50.7345C63.9388 49.6864 64.7869 48.8368 65.8331 48.8368H114.47C115.516 48.8368 116.364 49.6864 116.364 50.7345V139.71C116.364 140.758 115.516 141.608 114.47 141.608Z" fill="#F4F7FD"/>
<path d="M86.6186 79.152H67.9755C67.4953 79.152 67.1061 78.7621 67.1061 78.281V53.979C67.1061 53.4979 67.4953 53.108 67.9755 53.108H86.6186C87.0988 53.108 87.488 53.4979 87.488 53.979V78.2811C87.488 78.7621 87.0987 79.152 86.6186 79.152Z" fill="#CCE6FF"/>
<path d="M92.6957 56.37C93.5948 56.37 94.3237 55.6398 94.3237 54.739C94.3237 53.8382 93.5948 53.108 92.6957 53.108C91.7966 53.108 91.0677 53.8382 91.0677 54.739C91.0677 55.6398 91.7966 56.37 92.6957 56.37Z" fill="#CCE6FF"/>
<path d="M113.237 54.1535H97.6109C97.4188 54.1535 97.2631 53.9975 97.2631 53.805C97.2631 53.6125 97.4188 53.4565 97.6109 53.4565H113.237C113.429 53.4565 113.585 53.6125 113.585 53.805C113.585 53.9975 113.429 54.1535 113.237 54.1535Z" fill="#CCE6FF"/>
<path d="M113.237 56.0215H97.6109C97.4188 56.0215 97.2631 55.8655 97.2631 55.673C97.2631 55.4805 97.4188 55.3245 97.6109 55.3245H113.237C113.429 55.3245 113.585 55.4805 113.585 55.673C113.585 55.8655 113.429 56.0215 113.237 56.0215Z" fill="#CCE6FF"/>
<path d="M113.237 57.8897H97.6109C97.4188 57.8897 97.2631 57.7337 97.2631 57.5412C97.2631 57.3487 97.4188 57.1927 97.6109 57.1927H113.237C113.429 57.1927 113.585 57.3487 113.585 57.5412C113.585 57.7337 113.429 57.8897 113.237 57.8897Z" fill="#CCE6FF"/>
<path d="M94.2957 61.8327C94.4625 60.9476 93.8816 60.0946 92.9982 59.9274C92.1147 59.7602 91.2632 60.3422 91.0963 61.2273C90.9295 62.1124 91.5104 62.9655 92.3939 63.1327C93.2773 63.2998 94.1288 62.7179 94.2957 61.8327Z" fill="#CCE6FF"/>
<path d="M113.237 60.9383H97.6109C97.4187 60.9383 97.263 60.7823 97.263 60.5898C97.263 60.3973 97.4187 60.2413 97.6109 60.2413H113.237C113.429 60.2413 113.585 60.3973 113.585 60.5898C113.585 60.7821 113.429 60.9383 113.237 60.9383Z" fill="#CCE6FF"/>
<path d="M113.237 62.8063H97.6109C97.4187 62.8063 97.263 62.6503 97.263 62.4578C97.263 62.2653 97.4187 62.1093 97.6109 62.1093H113.237C113.429 62.1093 113.585 62.2653 113.585 62.4578C113.585 62.6503 113.429 62.8063 113.237 62.8063Z" fill="#CCE6FF"/>
<path d="M113.237 64.6745H97.6109C97.4187 64.6745 97.263 64.5184 97.263 64.3259C97.263 64.1334 97.4187 63.9774 97.6109 63.9774H113.237C113.429 63.9774 113.585 64.1334 113.585 64.3259C113.585 64.5183 113.429 64.6745 113.237 64.6745Z" fill="#CCE6FF"/>
<path d="M94.2955 68.6176C94.4624 67.7325 93.8815 66.8794 92.998 66.7122C92.1146 66.545 91.2631 67.127 91.0962 68.0122C90.9293 68.8973 91.5103 69.7503 92.3937 69.9175C93.2772 70.0847 94.1287 69.5027 94.2955 68.6176Z" fill="#CCE6FF"/>
<path d="M113.237 67.7229H97.6109C97.4187 67.7229 97.263 67.5669 97.263 67.3744C97.263 67.1819 97.4187 67.0259 97.6109 67.0259H113.237C113.429 67.0259 113.585 67.1819 113.585 67.3744C113.585 67.5669 113.429 67.7229 113.237 67.7229Z" fill="#CCE6FF"/>
<path d="M113.237 69.5911H97.6109C97.4187 69.5911 97.263 69.4351 97.263 69.2426C97.263 69.0501 97.4187 68.8941 97.6109 68.8941H113.237C113.429 68.8941 113.585 69.0501 113.585 69.2426C113.585 69.4351 113.429 69.5911 113.237 69.5911Z" fill="#CCE6FF"/>
<path d="M113.237 71.4591H97.6109C97.4187 71.4591 97.263 71.3031 97.263 71.1106C97.263 70.9181 97.4187 70.7621 97.6109 70.7621H113.237C113.429 70.7621 113.585 70.9181 113.585 71.1106C113.585 71.3031 113.429 71.4591 113.237 71.4591Z" fill="#CCE6FF"/>
<path d="M93.5303 76.4998C94.3048 76.0422 94.5623 75.0423 94.1056 74.2663C93.6488 73.4904 92.6507 73.2323 91.8762 73.6899C91.1017 74.1475 90.8441 75.1475 91.3009 75.9234C91.7576 76.6994 92.7558 76.9574 93.5303 76.4998Z" fill="#CCE6FF"/>
<path d="M113.237 74.5077H97.6109C97.4187 74.5077 97.263 74.3517 97.263 74.1592C97.263 73.9667 97.4187 73.8107 97.6109 73.8107H113.237C113.429 73.8107 113.585 73.9667 113.585 74.1592C113.585 74.3517 113.429 74.5077 113.237 74.5077Z" fill="#CCE6FF"/>
<path d="M113.237 76.3757H97.6109C97.4187 76.3757 97.263 76.2197 97.263 76.0272C97.263 75.8347 97.4187 75.6787 97.6109 75.6787H113.237C113.429 75.6787 113.585 75.8347 113.585 76.0272C113.585 76.2197 113.429 76.3757 113.237 76.3757Z" fill="#CCE6FF"/>
<path d="M113.237 78.2439H97.6109C97.4187 78.2439 97.263 78.0879 97.263 77.8954C97.263 77.7029 97.4187 77.5469 97.6109 77.5469H113.237C113.429 77.5469 113.585 77.7029 113.585 77.8954C113.585 78.0879 113.429 78.2439 113.237 78.2439Z" fill="#CCE6FF"/>
<path d="M86.4248 107.931H67.7817C67.3015 107.931 66.9123 107.541 66.9123 107.06V82.758C66.9123 82.277 67.3015 81.887 67.7817 81.887H86.4248C86.905 81.887 87.2942 82.277 87.2942 82.758V107.06C87.2942 107.541 86.905 107.931 86.4248 107.931Z" fill="#CCE6FF"/>
<path d="M92.5019 85.1491C93.401 85.1491 94.1299 84.4188 94.1299 83.518C94.1299 82.6173 93.401 81.887 92.5019 81.887C91.6028 81.887 90.8739 82.6173 90.8739 83.518C90.8739 84.4188 91.6028 85.1491 92.5019 85.1491Z" fill="#CCE6FF"/>
<path d="M113.043 82.9324H97.4171C97.2249 82.9324 97.0692 82.7764 97.0692 82.5839C97.0692 82.3914 97.2249 82.2354 97.4171 82.2354H113.043C113.235 82.2354 113.391 82.3914 113.391 82.5839C113.391 82.7764 113.235 82.9324 113.043 82.9324Z" fill="#CCE6FF"/>
<path d="M113.043 84.8006H97.4171C97.2249 84.8006 97.0692 84.6445 97.0692 84.452C97.0692 84.2595 97.2249 84.1035 97.4171 84.1035H113.043C113.235 84.1035 113.391 84.2595 113.391 84.452C113.391 84.6445 113.235 84.8006 113.043 84.8006Z" fill="#CCE6FF"/>
<path d="M113.043 86.6686H97.4171C97.2249 86.6686 97.0692 86.5126 97.0692 86.3201C97.0692 86.1276 97.2249 85.9716 97.4171 85.9716H113.043C113.235 85.9716 113.391 86.1276 113.391 86.3201C113.391 86.5126 113.235 86.6686 113.043 86.6686Z" fill="#CCE6FF"/>
<path d="M94.0849 90.673C94.2905 89.7961 93.7476 88.9182 92.8723 88.7122C91.997 88.5061 91.1208 89.05 90.9152 89.9269C90.7095 90.8039 91.2524 91.6817 92.1277 91.8877C93.003 92.0937 93.8792 91.5499 94.0849 90.673Z" fill="#CCE6FF"/>
<path d="M113.043 89.7172H97.4171C97.2249 89.7172 97.0692 89.5612 97.0692 89.3687C97.0692 89.1762 97.2249 89.0202 97.4171 89.0202H113.043C113.235 89.0202 113.391 89.1762 113.391 89.3687C113.391 89.5612 113.235 89.7172 113.043 89.7172Z" fill="#CCE6FF"/>
<path d="M113.043 91.5852H97.4171C97.2249 91.5852 97.0692 91.4292 97.0692 91.2367C97.0692 91.0442 97.2249 90.8882 97.4171 90.8882H113.043C113.235 90.8882 113.391 91.0442 113.391 91.2367C113.391 91.4292 113.235 91.5852 113.043 91.5852Z" fill="#CCE6FF"/>
<path d="M113.043 93.4534H97.4171C97.2249 93.4534 97.0692 93.2973 97.0692 93.1048C97.0692 92.9123 97.2249 92.7563 97.4171 92.7563H113.043C113.235 92.7563 113.391 92.9123 113.391 93.1048C113.391 93.2973 113.235 93.4534 113.043 93.4534Z" fill="#CCE6FF"/>
<path d="M94.0849 97.4576C94.2905 96.5807 93.7477 95.7028 92.8724 95.4968C91.9971 95.2908 91.1209 95.8347 90.9152 96.7116C90.7096 97.5885 91.2525 98.4664 92.1278 98.6724C93.003 98.8784 93.8793 98.3345 94.0849 97.4576Z" fill="#CCE6FF"/>
<path d="M113.043 96.5018H97.417C97.2249 96.5018 97.0692 96.3458 97.0692 96.1533C97.0692 95.9608 97.2249 95.8048 97.417 95.8048H113.043C113.235 95.8048 113.391 95.9608 113.391 96.1533C113.391 96.3458 113.235 96.5018 113.043 96.5018Z" fill="#CCE6FF"/>
<path d="M113.043 98.37H97.417C97.2249 98.37 97.0692 98.214 97.0692 98.0215C97.0692 97.829 97.2249 97.673 97.417 97.673H113.043C113.235 97.673 113.391 97.829 113.391 98.0215C113.391 98.214 113.235 98.37 113.043 98.37Z" fill="#CCE6FF"/>
<path d="M113.043 100.238H97.417C97.2249 100.238 97.0692 100.082 97.0692 99.8896C97.0692 99.6971 97.2249 99.5411 97.417 99.5411H113.043C113.235 99.5411 113.391 99.6971 113.391 99.8896C113.391 100.082 113.235 100.238 113.043 100.238Z" fill="#CCE6FF"/>
<path d="M93.651 105.026C94.2868 104.389 94.2868 103.356 93.651 102.719C93.0153 102.082 91.9845 102.082 91.3487 102.719C90.713 103.356 90.713 104.389 91.3487 105.026C91.9845 105.663 93.0153 105.663 93.651 105.026Z" fill="#CCE6FF"/>
<path d="M113.043 103.287H97.417C97.2249 103.287 97.0692 103.131 97.0692 102.938C97.0692 102.746 97.2249 102.59 97.417 102.59H113.043C113.235 102.59 113.391 102.746 113.391 102.938C113.391 103.131 113.235 103.287 113.043 103.287Z" fill="#CCE6FF"/>
<path d="M113.043 105.155H97.417C97.2249 105.155 97.0692 104.999 97.0692 104.806C97.0692 104.614 97.2249 104.458 97.417 104.458H113.043C113.235 104.458 113.391 104.614 113.391 104.806C113.391 104.999 113.235 105.155 113.043 105.155Z" fill="#CCE6FF"/>
<path d="M113.043 107.023H97.417C97.2249 107.023 97.0692 106.867 97.0692 106.674C97.0692 106.482 97.2249 106.326 97.417 106.326H113.043C113.235 106.326 113.391 106.482 113.391 106.674C113.391 106.867 113.235 107.023 113.043 107.023Z" fill="#CCE6FF"/>
<path d="M86.2311 136.71H67.588C67.1078 136.71 66.7186 136.32 66.7186 135.839V111.537C66.7186 111.056 67.1078 110.666 67.588 110.666H86.2311C86.7113 110.666 87.1005 111.056 87.1005 111.537V135.839C87.1005 136.32 86.7112 136.71 86.2311 136.71Z" fill="#CCE6FF"/>
<path d="M92.3082 113.928C93.2073 113.928 93.9362 113.198 93.9362 112.297C93.9362 111.396 93.2073 110.666 92.3082 110.666C91.4091 110.666 90.6802 111.396 90.6802 112.297C90.6802 113.198 91.4091 113.928 92.3082 113.928Z" fill="#CCE6FF"/>
<path d="M112.849 111.711H97.2232C97.0311 111.711 96.8754 111.555 96.8754 111.363C96.8754 111.17 97.0311 111.014 97.2232 111.014H112.849C113.041 111.014 113.197 111.17 113.197 111.363C113.197 111.555 113.041 111.711 112.849 111.711Z" fill="#CCE6FF"/>
<path d="M112.849 113.579H97.2232C97.0311 113.579 96.8754 113.423 96.8754 113.231C96.8754 113.038 97.0311 112.882 97.2232 112.882H112.849C113.041 112.882 113.197 113.038 113.197 113.231C113.197 113.423 113.041 113.579 112.849 113.579Z" fill="#CCE6FF"/>
<path d="M112.849 115.448H97.2232C97.0311 115.448 96.8754 115.292 96.8754 115.099C96.8754 114.907 97.0311 114.751 97.2232 114.751H112.849C113.041 114.751 113.197 114.907 113.197 115.099C113.197 115.292 113.041 115.448 112.849 115.448Z" fill="#CCE6FF"/>
<path d="M93.8914 119.451C94.097 118.575 93.5541 117.697 92.6789 117.491C91.8036 117.285 90.9273 117.829 90.7217 118.705C90.5161 119.582 91.0589 120.46 91.9342 120.666C92.8095 120.872 93.6858 120.328 93.8914 119.451Z" fill="#CCE6FF"/>
<path d="M112.849 118.496H97.2232C97.0311 118.496 96.8754 118.34 96.8754 118.148C96.8754 117.955 97.0311 117.799 97.2232 117.799H112.849C113.041 117.799 113.197 117.955 113.197 118.148C113.197 118.34 113.041 118.496 112.849 118.496Z" fill="#CCE6FF"/>
<path d="M112.849 120.364H97.2232C97.0311 120.364 96.8754 120.208 96.8754 120.016C96.8754 119.823 97.0311 119.667 97.2232 119.667H112.849C113.041 119.667 113.197 119.823 113.197 120.016C113.197 120.208 113.041 120.364 112.849 120.364Z" fill="#CCE6FF"/>
<path d="M112.849 122.232H97.2232C97.0311 122.232 96.8754 122.076 96.8754 121.884C96.8754 121.691 97.0311 121.535 97.2232 121.535H112.849C113.041 121.535 113.197 121.691 113.197 121.884C113.197 122.076 113.041 122.232 112.849 122.232Z" fill="#CCE6FF"/>
<path d="M93.8913 126.236C94.0969 125.359 93.5541 124.481 92.6788 124.275C91.8035 124.069 90.9273 124.613 90.7216 125.49C90.516 126.367 91.0589 127.245 91.9342 127.451C92.8094 127.657 93.6857 127.113 93.8913 126.236Z" fill="#CCE6FF"/>
<path d="M112.849 125.281H97.2232C97.0311 125.281 96.8754 125.125 96.8754 124.932C96.8754 124.74 97.0311 124.584 97.2232 124.584H112.849C113.041 124.584 113.197 124.74 113.197 124.932C113.197 125.125 113.041 125.281 112.849 125.281Z" fill="#CCE6FF"/>
<path d="M112.849 127.149H97.2232C97.0311 127.149 96.8754 126.993 96.8754 126.801C96.8754 126.608 97.0311 126.452 97.2232 126.452H112.849C113.041 126.452 113.197 126.608 113.197 126.801C113.197 126.993 113.041 127.149 112.849 127.149Z" fill="#CCE6FF"/>
<path d="M112.849 129.017H97.2232C97.0311 129.017 96.8754 128.861 96.8754 128.669C96.8754 128.476 97.0311 128.32 97.2232 128.32H112.849C113.041 128.32 113.197 128.476 113.197 128.669C113.197 128.861 113.041 129.017 112.849 129.017Z" fill="#CCE6FF"/>
<path d="M93.4571 133.805C94.0929 133.168 94.0929 132.135 93.4571 131.498C92.8214 130.861 91.7906 130.861 91.1548 131.498C90.519 132.135 90.519 133.168 91.1548 133.805C91.7906 134.441 92.8213 134.441 93.4571 133.805Z" fill="#CCE6FF"/>
<path d="M112.849 132.065H97.2232C97.0311 132.065 96.8754 131.909 96.8754 131.717C96.8754 131.524 97.0311 131.368 97.2232 131.368H112.849C113.041 131.368 113.197 131.524 113.197 131.717C113.197 131.909 113.041 132.065 112.849 132.065Z" fill="#CCE6FF"/>
<path d="M112.849 133.934H97.2232C97.0311 133.934 96.8754 133.778 96.8754 133.585C96.8754 133.393 97.0311 133.237 97.2232 133.237H112.849C113.041 133.237 113.197 133.393 113.197 133.585C113.197 133.778 113.041 133.934 112.849 133.934Z" fill="#CCE6FF"/>
<path d="M112.849 135.802H97.2232C97.0311 135.802 96.8754 135.646 96.8754 135.453C96.8754 135.261 97.0311 135.105 97.2232 135.105H112.849C113.041 135.105 113.197 135.261 113.197 135.453C113.197 135.646 113.041 135.802 112.849 135.802Z" fill="#CCE6FF"/>
<path d="M83.4452 66.6145H70.8417C70.441 66.6145 70.1162 66.2891 70.1162 65.8877V55.9884C70.1162 55.5869 70.441 55.2615 70.8417 55.2615H83.4452C83.846 55.2615 84.1708 55.5869 84.1708 55.9884V65.8878C84.1706 66.2891 83.8458 66.6145 83.4452 66.6145Z" fill="#F4F7FD"/>
<path d="M83.7385 69.2426H70.5483C70.3096 69.2426 70.116 69.0487 70.116 68.8095V68.7414C70.116 68.5023 70.3096 68.3084 70.5483 68.3084H83.7385C83.9772 68.3084 84.1707 68.5023 84.1707 68.7414V68.8095C84.1706 69.0487 83.9771 69.2426 83.7385 69.2426Z" fill="#F4F7FD"/>
<path d="M83.7385 71.2291H70.5483C70.3096 71.2291 70.116 71.0353 70.116 70.7961V70.728C70.116 70.4889 70.3096 70.295 70.5483 70.295H83.7385C83.9772 70.295 84.1707 70.4889 84.1707 70.728V70.7961C84.1706 71.0353 83.9771 71.2291 83.7385 71.2291Z" fill="#F4F7FD"/>
<path d="M83.7385 73.2157H70.5483C70.3096 73.2157 70.116 73.0219 70.116 72.7827V72.7146C70.116 72.4755 70.3096 72.2816 70.5483 72.2816H83.7385C83.9772 72.2816 84.1707 72.4755 84.1707 72.7146V72.7827C84.1706 73.022 83.9771 73.2157 83.7385 73.2157Z" fill="#F4F7FD"/>
<path d="M83.7385 75.2025H70.5483C70.3096 75.2025 70.116 75.0086 70.116 74.7695V74.7014C70.116 74.4622 70.3096 74.2683 70.5483 74.2683H83.7385C83.9772 74.2683 84.1707 74.4622 84.1707 74.7014V74.7695C84.1706 75.0086 83.9771 75.2025 83.7385 75.2025Z" fill="#F4F7FD"/>
<path d="M83.7385 77.1891H70.5483C70.3096 77.1891 70.116 76.9952 70.116 76.7561V76.688C70.116 76.4488 70.3096 76.2549 70.5483 76.2549H83.7385C83.9772 76.2549 84.1707 76.4488 84.1707 76.688V76.7561C84.1706 76.9952 83.9771 77.1891 83.7385 77.1891Z" fill="#F4F7FD"/>
<path d="M83.4452 95.2981H70.8417C70.441 95.2981 70.1162 94.9727 70.1162 94.5712V84.672C70.1162 84.2705 70.441 83.9451 70.8417 83.9451H83.4452C83.846 83.9451 84.1708 84.2705 84.1708 84.672V94.5712C84.1706 94.9727 83.8458 95.2981 83.4452 95.2981Z" fill="#F4F7FD"/>
<path d="M83.7385 97.9261H70.5483C70.3096 97.9261 70.116 97.7322 70.116 97.4931V97.425C70.116 97.1858 70.3096 96.992 70.5483 96.992H83.7385C83.9772 96.992 84.1707 97.1858 84.1707 97.425V97.4931C84.1706 97.7322 83.9771 97.9261 83.7385 97.9261Z" fill="#F4F7FD"/>
<path d="M83.7385 99.9127H70.5483C70.3096 99.9127 70.116 99.7188 70.116 99.4797V99.4116C70.116 99.1724 70.3096 98.9786 70.5483 98.9786H83.7385C83.9772 98.9786 84.1707 99.1724 84.1707 99.4116V99.4797C84.1706 99.7188 83.9771 99.9127 83.7385 99.9127Z" fill="#F4F7FD"/>
<path d="M83.7385 101.899H70.5483C70.3096 101.899 70.116 101.706 70.116 101.466V101.398C70.116 101.159 70.3096 100.965 70.5483 100.965H83.7385C83.9772 100.965 84.1707 101.159 84.1707 101.398V101.466C84.1706 101.706 83.9771 101.899 83.7385 101.899Z" fill="#F4F7FD"/>
<path d="M83.7385 103.886H70.5483C70.3096 103.886 70.116 103.692 70.116 103.453V103.385C70.116 103.146 70.3096 102.952 70.5483 102.952H83.7385C83.9772 102.952 84.1707 103.146 84.1707 103.385V103.453C84.1706 103.692 83.9771 103.886 83.7385 103.886Z" fill="#F4F7FD"/>
<path d="M83.7385 105.873H70.5483C70.3096 105.873 70.116 105.679 70.116 105.44V105.372C70.116 105.132 70.3096 104.939 70.5483 104.939H83.7385C83.9772 104.939 84.1707 105.132 84.1707 105.372V105.44C84.1706 105.679 83.9771 105.873 83.7385 105.873Z" fill="#F4F7FD"/>
<path d="M83.4452 123.982H70.8417C70.441 123.982 70.1162 123.656 70.1162 123.255V113.356C70.1162 112.954 70.441 112.629 70.8417 112.629H83.4452C83.846 112.629 84.1708 112.954 84.1708 113.356V123.255C84.1706 123.656 83.8458 123.982 83.4452 123.982Z" fill="#F4F7FD"/>
<path d="M83.7385 126.61H70.5483C70.3096 126.61 70.116 126.416 70.116 126.177V126.109C70.116 125.869 70.3096 125.676 70.5483 125.676H83.7385C83.9772 125.676 84.1707 125.869 84.1707 126.109V126.177C84.1706 126.416 83.9771 126.61 83.7385 126.61Z" fill="#F4F7FD"/>
<path d="M83.7385 128.596H70.5483C70.3096 128.596 70.116 128.402 70.116 128.163V128.095C70.116 127.856 70.3096 127.662 70.5483 127.662H83.7385C83.9772 127.662 84.1707 127.856 84.1707 128.095V128.163C84.1706 128.402 83.9771 128.596 83.7385 128.596Z" fill="#F4F7FD"/>
<path d="M83.7385 130.583H70.5483C70.3096 130.583 70.116 130.389 70.116 130.15V130.082C70.116 129.843 70.3096 129.649 70.5483 129.649H83.7385C83.9772 129.649 84.1707 129.843 84.1707 130.082V130.15C84.1706 130.389 83.9771 130.583 83.7385 130.583Z" fill="#F4F7FD"/>
<path d="M83.7385 132.57H70.5483C70.3096 132.57 70.116 132.376 70.116 132.137V132.069C70.116 131.829 70.3096 131.635 70.5483 131.635H83.7385C83.9772 131.635 84.1707 131.829 84.1707 132.069V132.137C84.1706 132.376 83.9771 132.57 83.7385 132.57Z" fill="#F4F7FD"/>
<path d="M83.7385 134.556H70.5483C70.3096 134.556 70.116 134.362 70.116 134.123V134.055C70.116 133.816 70.3096 133.622 70.5483 133.622H83.7385C83.9772 133.622 84.1707 133.816 84.1707 134.055V134.123C84.1706 134.362 83.9771 134.556 83.7385 134.556Z" fill="#F4F7FD"/>
<path d="M236.351 141.608H187.714C186.668 141.608 185.82 140.758 185.82 139.71V50.7345C185.82 49.6864 186.668 48.8368 187.714 48.8368H236.351C237.397 48.8368 238.245 49.6864 238.245 50.7345V139.71C238.245 140.758 237.397 141.608 236.351 141.608Z" fill="#F4F7FD"/>
<path d="M233.614 53.1115H218.398C218.12 53.1115 217.895 52.886 217.895 52.6078C217.895 52.3296 218.12 52.104 218.398 52.104H233.614C233.891 52.104 234.116 52.3295 234.116 52.6078C234.116 52.8859 233.891 53.1115 233.614 53.1115Z" fill="#CCE6FF"/>
<path d="M233.614 55.4152H218.398C218.12 55.4152 217.895 55.1897 217.895 54.9114C217.895 54.6333 218.12 54.4077 218.398 54.4077H233.614C233.891 54.4077 234.116 54.6332 234.116 54.9114C234.116 55.1897 233.891 55.4152 233.614 55.4152Z" fill="#CCE6FF"/>
<path d="M233.614 57.7189H218.398C218.12 57.7189 217.895 57.4934 217.895 57.2151C217.895 56.937 218.12 56.7114 218.398 56.7114H233.614C233.891 56.7114 234.116 56.9369 234.116 57.2151C234.116 57.4934 233.891 57.7189 233.614 57.7189Z" fill="#CCE6FF"/>
<path d="M233.614 60.0227H218.398C218.12 60.0227 217.895 59.7973 217.895 59.519C217.895 59.2409 218.12 59.0152 218.398 59.0152H233.614C233.891 59.0152 234.116 59.2407 234.116 59.519C234.116 59.7973 233.891 60.0227 233.614 60.0227Z" fill="#CCE6FF"/>
<path d="M233.614 62.3264H218.398C218.12 62.3264 217.895 62.1009 217.895 61.8227C217.895 61.5445 218.12 61.3189 218.398 61.3189H233.614C233.891 61.3189 234.116 61.5444 234.116 61.8227C234.116 62.1009 233.891 62.3264 233.614 62.3264Z" fill="#CCE6FF"/>
<path d="M233.614 64.6302H218.398C218.12 64.6302 217.895 64.4048 217.895 64.1265C217.895 63.8484 218.12 63.6228 218.398 63.6228H233.614C233.891 63.6228 234.116 63.8482 234.116 64.1265C234.116 64.4046 233.891 64.6302 233.614 64.6302Z" fill="#CCE6FF"/>
<path d="M233.614 66.9339H218.398C218.12 66.9339 217.895 66.7085 217.895 66.4302C217.895 66.1521 218.12 65.9265 218.398 65.9265H233.614C233.891 65.9265 234.116 66.1519 234.116 66.4302C234.116 66.7085 233.891 66.9339 233.614 66.9339Z" fill="#CCE6FF"/>
<path d="M233.614 110.736H218.398C218.12 110.736 217.895 110.511 217.895 110.232C217.895 109.954 218.12 109.729 218.398 109.729H233.614C233.891 109.729 234.116 109.954 234.116 110.232C234.116 110.511 233.891 110.736 233.614 110.736Z" fill="#CCE6FF"/>
<path d="M233.614 113.04H218.398C218.12 113.04 217.895 112.814 217.895 112.536C217.895 112.258 218.12 112.032 218.398 112.032H233.614C233.891 112.032 234.116 112.258 234.116 112.536C234.116 112.814 233.891 113.04 233.614 113.04Z" fill="#CCE6FF"/>
<path d="M233.614 115.344H218.398C218.12 115.344 217.895 115.118 217.895 114.84C217.895 114.562 218.12 114.336 218.398 114.336H233.614C233.891 114.336 234.116 114.561 234.116 114.84C234.116 115.118 233.891 115.344 233.614 115.344Z" fill="#CCE6FF"/>
<path d="M233.614 117.647H218.398C218.12 117.647 217.895 117.422 217.895 117.144C217.895 116.866 218.12 116.64 218.398 116.64H233.614C233.891 116.64 234.116 116.865 234.116 117.144C234.116 117.422 233.891 117.647 233.614 117.647Z" fill="#CCE6FF"/>
<path d="M233.614 119.951H218.398C218.12 119.951 217.895 119.726 217.895 119.447C217.895 119.169 218.12 118.944 218.398 118.944H233.614C233.891 118.944 234.116 119.169 234.116 119.447C234.116 119.726 233.891 119.951 233.614 119.951Z" fill="#CCE6FF"/>
<path d="M233.614 122.255H218.398C218.12 122.255 217.895 122.029 217.895 121.751C217.895 121.473 218.12 121.247 218.398 121.247H233.614C233.891 121.247 234.116 121.473 234.116 121.751C234.116 122.029 233.891 122.255 233.614 122.255Z" fill="#CCE6FF"/>
<path d="M233.614 124.559H218.398C218.12 124.559 217.895 124.333 217.895 124.055C217.895 123.777 218.12 123.551 218.398 123.551H233.614C233.891 123.551 234.116 123.777 234.116 124.055C234.116 124.333 233.891 124.559 233.614 124.559Z" fill="#CCE6FF"/>
<path d="M233.614 127.145H218.398C218.12 127.145 217.895 126.919 217.895 126.641C217.895 126.363 218.12 126.137 218.398 126.137H233.614C233.891 126.137 234.116 126.363 234.116 126.641C234.116 126.919 233.891 127.145 233.614 127.145Z" fill="#CCE6FF"/>
<path d="M233.614 129.449H218.398C218.12 129.449 217.895 129.223 217.895 128.945C217.895 128.667 218.12 128.441 218.398 128.441H233.614C233.891 128.441 234.116 128.667 234.116 128.945C234.116 129.223 233.891 129.449 233.614 129.449Z" fill="#CCE6FF"/>
<path d="M233.614 131.752H218.398C218.12 131.752 217.895 131.527 217.895 131.248C217.895 130.97 218.12 130.745 218.398 130.745H233.614C233.891 130.745 234.116 130.97 234.116 131.248C234.116 131.527 233.891 131.752 233.614 131.752Z" fill="#CCE6FF"/>
<path d="M233.614 134.056H218.398C218.12 134.056 217.895 133.831 217.895 133.552C217.895 133.274 218.12 133.049 218.398 133.049H233.614C233.891 133.049 234.116 133.274 234.116 133.552C234.116 133.83 233.891 134.056 233.614 134.056Z" fill="#CCE6FF"/>
<path d="M233.614 136.36H218.398C218.12 136.36 217.895 136.134 217.895 135.856C217.895 135.578 218.12 135.352 218.398 135.352H233.614C233.891 135.352 234.116 135.578 234.116 135.856C234.116 136.134 233.891 136.36 233.614 136.36Z" fill="#CCE6FF"/>
<path d="M233.614 138.664H218.398C218.12 138.664 217.895 138.438 217.895 138.16C217.895 137.882 218.12 137.656 218.398 137.656H233.614C233.891 137.656 234.116 137.882 234.116 138.16C234.116 138.438 233.891 138.664 233.614 138.664Z" fill="#CCE6FF"/>
<path d="M233.614 69.2378H218.398C218.12 69.2378 217.895 69.0123 217.895 68.734C217.895 68.4559 218.12 68.2303 218.398 68.2303H233.614C233.891 68.2303 234.116 68.4558 234.116 68.734C234.116 69.0122 233.891 69.2378 233.614 69.2378Z" fill="#CCE6FF"/>
<path d="M233.614 71.5414H218.398C218.12 71.5414 217.895 71.316 217.895 71.0377C217.895 70.7596 218.12 70.534 218.398 70.534H233.614C233.891 70.534 234.116 70.7594 234.116 71.0377C234.116 71.316 233.891 71.5414 233.614 71.5414Z" fill="#CCE6FF"/>
<path d="M233.614 73.8453H218.398C218.12 73.8453 217.895 73.6198 217.895 73.3416C217.895 73.0634 218.12 72.8378 218.398 72.8378H233.614C233.891 72.8378 234.116 73.0633 234.116 73.3416C234.116 73.6197 233.891 73.8453 233.614 73.8453Z" fill="#CCE6FF"/>
<path d="M233.614 76.149H218.398C218.12 76.149 217.895 75.9235 217.895 75.6452C217.895 75.3671 218.12 75.1415 218.398 75.1415H233.614C233.891 75.1415 234.116 75.367 234.116 75.6452C234.116 75.9235 233.891 76.149 233.614 76.149Z" fill="#CCE6FF"/>
<path d="M233.614 78.4527H218.398C218.12 78.4527 217.895 78.2272 217.895 77.9489C217.895 77.6708 218.12 77.4452 218.398 77.4452H233.614C233.891 77.4452 234.116 77.6706 234.116 77.9489C234.116 78.2272 233.891 78.4527 233.614 78.4527Z" fill="#CCE6FF"/>
<path d="M233.614 80.7565H218.398C218.12 80.7565 217.895 80.5311 217.895 80.2528C217.895 79.9746 218.12 79.749 218.398 79.749H233.614C233.891 79.749 234.116 79.9745 234.116 80.2528C234.116 80.5311 233.891 80.7565 233.614 80.7565Z" fill="#CCE6FF"/>
<path d="M233.614 83.0602H218.398C218.12 83.0602 217.895 82.8347 217.895 82.5565C217.895 82.2783 218.12 82.0527 218.398 82.0527H233.614C233.891 82.0527 234.116 82.2782 234.116 82.5565C234.116 82.8347 233.891 83.0602 233.614 83.0602Z" fill="#CCE6FF"/>
<path d="M233.614 85.364H218.398C218.12 85.364 217.895 85.1386 217.895 84.8603C217.895 84.5822 218.12 84.3566 218.398 84.3566H233.614C233.891 84.3566 234.116 84.582 234.116 84.8603C234.116 85.1386 233.891 85.364 233.614 85.364Z" fill="#CCE6FF"/>
<path d="M233.614 87.6677H218.398C218.12 87.6677 217.895 87.4423 217.895 87.164C217.895 86.8859 218.12 86.6602 218.398 86.6602H233.614C233.891 86.6602 234.116 86.8857 234.116 87.164C234.116 87.4423 233.891 87.6677 233.614 87.6677Z" fill="#CCE6FF"/>
<path d="M213.047 92.8857H190.452C190.174 92.8857 189.949 92.6602 189.949 92.382C189.949 92.1038 190.174 91.8782 190.452 91.8782H213.047C213.324 91.8782 213.549 92.1037 213.549 92.382C213.549 92.6602 213.324 92.8857 213.047 92.8857Z" fill="#CCE6FF"/>
<path d="M213.047 95.1895H190.452C190.174 95.1895 189.949 94.9641 189.949 94.6858C189.949 94.4077 190.174 94.1821 190.452 94.1821H213.047C213.324 94.1821 213.549 94.4075 213.549 94.6858C213.549 94.9641 213.324 95.1895 213.047 95.1895Z" fill="#CCE6FF"/>
<path d="M213.047 97.4932H190.452C190.174 97.4932 189.949 97.2678 189.949 96.9895C189.949 96.7114 190.174 96.4857 190.452 96.4857H213.047C213.324 96.4857 213.549 96.7112 213.549 96.9895C213.549 97.2678 213.324 97.4932 213.047 97.4932Z" fill="#CCE6FF"/>
<path d="M213.047 99.7971H190.452C190.174 99.7971 189.949 99.5716 189.949 99.2933C189.949 99.0152 190.174 98.7896 190.452 98.7896H213.047C213.324 98.7896 213.549 99.0151 213.549 99.2933C213.549 99.5716 213.324 99.7971 213.047 99.7971Z" fill="#CCE6FF"/>
<path d="M213.047 102.101H190.452C190.174 102.101 189.949 101.875 189.949 101.597C189.949 101.319 190.174 101.093 190.452 101.093H213.047C213.324 101.093 213.549 101.319 213.549 101.597C213.549 101.875 213.324 102.101 213.047 102.101Z" fill="#CCE6FF"/>
<path d="M213.047 104.405H190.452C190.174 104.405 189.949 104.179 189.949 103.901C189.949 103.623 190.174 103.397 190.452 103.397H213.047C213.324 103.397 213.549 103.623 213.549 103.901C213.549 104.179 213.324 104.405 213.047 104.405Z" fill="#CCE6FF"/>
<path d="M213.047 106.708H190.452C190.174 106.708 189.949 106.483 189.949 106.205C189.949 105.926 190.174 105.701 190.452 105.701H213.047C213.324 105.701 213.549 105.926 213.549 106.205C213.549 106.483 213.324 106.708 213.047 106.708Z" fill="#CCE6FF"/>
<path d="M213.047 109.012H190.452C190.174 109.012 189.949 108.787 189.949 108.508C189.949 108.23 190.174 108.005 190.452 108.005H213.047C213.324 108.005 213.549 108.23 213.549 108.508C213.549 108.786 213.324 109.012 213.047 109.012Z" fill="#CCE6FF"/>
<path d="M213.047 111.316H190.452C190.174 111.316 189.949 111.09 189.949 110.812C189.949 110.534 190.174 110.308 190.452 110.308H213.047C213.324 110.308 213.549 110.534 213.549 110.812C213.549 111.09 213.324 111.316 213.047 111.316Z" fill="#CCE6FF"/>
<path d="M213.047 113.62H190.452C190.174 113.62 189.949 113.394 189.949 113.116C189.949 112.838 190.174 112.612 190.452 112.612H213.047C213.324 112.612 213.549 112.838 213.549 113.116C213.549 113.394 213.324 113.62 213.047 113.62Z" fill="#CCE6FF"/>
<path d="M213.047 115.923H190.452C190.174 115.923 189.949 115.698 189.949 115.42C189.949 115.141 190.174 114.916 190.452 114.916H213.047C213.324 114.916 213.549 115.141 213.549 115.42C213.549 115.698 213.324 115.923 213.047 115.923Z" fill="#CCE6FF"/>
<path d="M213.047 118.227H190.452C190.174 118.227 189.949 118.002 189.949 117.723C189.949 117.445 190.174 117.22 190.452 117.22H213.047C213.324 117.22 213.549 117.445 213.549 117.723C213.549 118.002 213.324 118.227 213.047 118.227Z" fill="#CCE6FF"/>
<path d="M213.047 120.531H190.452C190.174 120.531 189.949 120.305 189.949 120.027C189.949 119.749 190.174 119.523 190.452 119.523H213.047C213.324 119.523 213.549 119.749 213.549 120.027C213.549 120.305 213.324 120.531 213.047 120.531Z" fill="#CCE6FF"/>
<path d="M213.047 122.835H190.452C190.174 122.835 189.949 122.609 189.949 122.331C189.949 122.053 190.174 121.827 190.452 121.827H213.047C213.324 121.827 213.549 122.053 213.549 122.331C213.549 122.609 213.324 122.835 213.047 122.835Z" fill="#CCE6FF"/>
<path d="M213.047 125.138H190.452C190.174 125.138 189.949 124.913 189.949 124.635C189.949 124.357 190.174 124.131 190.452 124.131H213.047C213.324 124.131 213.549 124.356 213.549 124.635C213.549 124.913 213.324 125.138 213.047 125.138Z" fill="#CCE6FF"/>
<path d="M213.047 127.442H190.452C190.174 127.442 189.949 127.217 189.949 126.938C189.949 126.66 190.174 126.435 190.452 126.435H213.047C213.324 126.435 213.549 126.66 213.549 126.938C213.549 127.217 213.324 127.442 213.047 127.442Z" fill="#CCE6FF"/>
<path d="M213.047 129.594H190.452C190.174 129.594 189.949 129.368 189.949 129.09C189.949 128.812 190.174 128.586 190.452 128.586H213.047C213.324 128.586 213.549 128.812 213.549 129.09C213.549 129.368 213.324 129.594 213.047 129.594Z" fill="#CCE6FF"/>
<path d="M213.047 131.897H190.452C190.174 131.897 189.949 131.672 189.949 131.394C189.949 131.116 190.174 130.89 190.452 130.89H213.047C213.324 130.89 213.549 131.115 213.549 131.394C213.549 131.672 213.324 131.897 213.047 131.897Z" fill="#CCE6FF"/>
<path d="M213.047 134.201H190.452C190.174 134.201 189.949 133.976 189.949 133.698C189.949 133.419 190.174 133.194 190.452 133.194H213.047C213.324 133.194 213.549 133.419 213.549 133.698C213.549 133.976 213.324 134.201 213.047 134.201Z" fill="#CCE6FF"/>
<path d="M213.047 136.505H190.452C190.174 136.505 189.949 136.28 189.949 136.001C189.949 135.723 190.174 135.497 190.452 135.497H213.047C213.324 135.497 213.549 135.723 213.549 136.001C213.549 136.28 213.324 136.505 213.047 136.505Z" fill="#CCE6FF"/>
<path d="M213.047 138.809H190.452C190.174 138.809 189.949 138.583 189.949 138.305C189.949 138.027 190.174 137.801 190.452 137.801H213.047C213.324 137.801 213.549 138.027 213.549 138.305C213.549 138.583 213.324 138.809 213.047 138.809Z" fill="#CCE6FF"/>
<path d="M233.685 106.833H218.326C218.088 106.833 217.895 106.64 217.895 106.401V92.1844C217.895 91.9458 218.088 91.7526 218.326 91.7526H233.685C233.923 91.7526 234.116 91.9458 234.116 92.1844V106.401C234.116 106.64 233.923 106.833 233.685 106.833Z" fill="#CCE6FF"/>
<path d="M212.968 87.6677H190.531C190.209 87.6677 189.949 87.4068 189.949 87.085V52.6868C189.949 52.3649 190.209 52.104 190.531 52.104H212.968C213.289 52.104 213.55 52.3649 213.55 52.6868V87.085C213.55 87.4068 213.289 87.6677 212.968 87.6677Z" fill="#CCE6FF"/>
<path d="M210.979 64.6302H192.519C192.325 64.6302 192.168 64.4727 192.168 64.2785V54.6724C192.168 54.4783 192.325 54.3207 192.519 54.3207H210.979C211.173 54.3207 211.33 54.4783 211.33 54.6724V64.2785C211.33 64.4727 211.173 64.6302 210.979 64.6302Z" fill="#F4F7FD"/>
<path d="M210.979 76.1926H192.519C192.325 76.1926 192.168 76.035 192.168 75.8408V66.2348C192.168 66.0406 192.325 65.883 192.519 65.883H210.979C211.173 65.883 211.33 66.0406 211.33 66.2348V75.8408C211.33 76.035 211.173 76.1926 210.979 76.1926Z" fill="#F4F7FD"/>
<path d="M200.883 86.0041H192.473C192.304 86.0041 192.168 85.8675 192.168 85.699V77.7506C192.168 77.5821 192.304 77.4455 192.473 77.4455H200.883C201.051 77.4455 201.188 77.5821 201.188 77.7506V85.699C201.188 85.8675 201.051 86.0041 200.883 86.0041Z" fill="#F4F7FD"/>
<path d="M211.022 86.0041H202.399C202.229 86.0041 202.091 85.8658 202.091 85.6953V77.7543C202.091 77.5836 202.229 77.4455 202.399 77.4455H211.022C211.192 77.4455 211.33 77.5838 211.33 77.7543V85.6953C211.33 85.8658 211.192 86.0041 211.022 86.0041Z" fill="#F4F7FD"/>
<path d="M175.411 141.608H126.774C125.727 141.608 124.879 140.758 124.879 139.71V50.7345C124.879 49.6864 125.727 48.8368 126.774 48.8368H175.411C176.457 48.8368 177.305 49.6864 177.305 50.7345V139.71C177.305 140.758 176.457 141.608 175.411 141.608Z" fill="#F4F7FD"/>
<path d="M148.823 73.8106H129.908C129.426 73.8106 129.035 73.4192 129.035 72.9362V53.9858C129.035 53.5028 129.426 53.1114 129.908 53.1114H148.823C149.305 53.1114 149.696 53.5028 149.696 53.9858V72.9362C149.696 73.4192 149.305 73.8106 148.823 73.8106Z" fill="#CCE6FF"/>
<path d="M173.25 54.3691H158.588C158.337 54.3691 158.133 54.1646 158.133 53.9123V53.5683C158.133 53.316 158.337 53.1115 158.588 53.1115H173.25C173.502 53.1115 173.706 53.316 173.706 53.5683V53.9123C173.706 54.1646 173.502 54.3691 173.25 54.3691Z" fill="#CCE6FF"/>
<path d="M173.25 56.5627H158.588C158.337 56.5627 158.133 56.3581 158.133 56.1059V55.7618C158.133 55.5096 158.337 55.3051 158.588 55.3051H173.25C173.502 55.3051 173.706 55.5096 173.706 55.7618V56.1059C173.706 56.3581 173.502 56.5627 173.25 56.5627Z" fill="#CCE6FF"/>
<path d="M173.25 58.7562H158.588C158.337 58.7562 158.133 58.5517 158.133 58.2995V57.9554C158.133 57.7032 158.337 57.4987 158.588 57.4987H173.25C173.502 57.4987 173.706 57.7032 173.706 57.9554V58.2995C173.706 58.5517 173.502 58.7562 173.25 58.7562Z" fill="#CCE6FF"/>
<path d="M173.25 60.9498H158.588C158.337 60.9498 158.133 60.7453 158.133 60.493V60.149C158.133 59.8967 158.337 59.6922 158.588 59.6922H173.25C173.502 59.6922 173.706 59.8967 173.706 60.149V60.493C173.706 60.7453 173.502 60.9498 173.25 60.9498Z" fill="#CCE6FF"/>
<path d="M173.25 63.1434H158.588C158.337 63.1434 158.133 62.9389 158.133 62.6866V62.3426C158.133 62.0903 158.337 61.8858 158.588 61.8858H173.25C173.502 61.8858 173.706 62.0903 173.706 62.3426V62.6866C173.706 62.939 173.502 63.1434 173.25 63.1434Z" fill="#CCE6FF"/>
<path d="M173.25 65.3369H158.588C158.337 65.3369 158.133 65.1324 158.133 64.8802V64.5361C158.133 64.2839 158.337 64.0794 158.588 64.0794H173.25C173.502 64.0794 173.706 64.2839 173.706 64.5361V64.8802C173.706 65.1326 173.502 65.3369 173.25 65.3369Z" fill="#CCE6FF"/>
<path d="M173.25 67.5307H158.588C158.337 67.5307 158.133 67.3262 158.133 67.0739V66.7299C158.133 66.4776 158.337 66.2731 158.588 66.2731H173.25C173.502 66.2731 173.706 66.4776 173.706 66.7299V67.0739C173.706 67.3262 173.502 67.5307 173.25 67.5307Z" fill="#CCE6FF"/>
<path d="M173.25 69.7243H158.588C158.337 69.7243 158.133 69.5197 158.133 69.2675V68.9235C158.133 68.6712 158.337 68.4667 158.588 68.4667H173.25C173.502 68.4667 173.706 68.6712 173.706 68.9235V69.2675C173.706 69.5197 173.502 69.7243 173.25 69.7243Z" fill="#CCE6FF"/>
<path d="M173.25 71.9178H158.588C158.337 71.9178 158.133 71.7133 158.133 71.4611V71.117C158.133 70.8648 158.337 70.6603 158.588 70.6603H173.25C173.502 70.6603 173.706 70.8648 173.706 71.117V71.4611C173.706 71.7133 173.502 71.9178 173.25 71.9178Z" fill="#CCE6FF"/>
<path d="M173.25 74.1114H158.588C158.337 74.1114 158.133 73.9069 158.133 73.6546V73.3106C158.133 73.0584 158.337 72.8539 158.588 72.8539H173.25C173.502 72.8539 173.706 73.0584 173.706 73.3106V73.6546C173.706 73.9069 173.502 74.1114 173.25 74.1114Z" fill="#CCE6FF"/>
<path d="M153.641 56.2346C154.245 56.2346 154.735 55.7436 154.735 55.1378C154.735 54.5321 154.245 54.041 153.641 54.041C153.036 54.041 152.546 54.5321 152.546 55.1378C152.546 55.7436 153.036 56.2346 153.641 56.2346Z" fill="#CCE6FF"/>
<path d="M153.641 64.8586C154.245 64.8586 154.735 64.3676 154.735 63.7618C154.735 63.1561 154.245 62.665 153.641 62.665C153.036 62.665 152.546 63.1561 152.546 63.7618C152.546 64.3676 153.036 64.8586 153.641 64.8586Z" fill="#CCE6FF"/>
<path d="M154.735 72.3858C154.735 72.9915 154.245 73.4826 153.641 73.4826C153.036 73.4826 152.546 72.9915 152.546 72.3858C152.546 71.78 153.036 71.289 153.641 71.289C154.245 71.289 154.735 71.7802 154.735 72.3858Z" fill="#CCE6FF"/>
<path d="M173.706 77.1891H129.035V79.749H173.706V77.1891Z" fill="#CCE6FF"/>
<path d="M173.706 81.6283H129.035V84.1883H173.706V81.6283Z" fill="#CCE6FF"/>
<path d="M152.546 86.0675H129.035V88.6274H152.546V86.0675Z" fill="#CCE6FF"/>
<path d="M173.366 93.4534H129.375C129.187 93.4534 129.035 93.3009 129.035 93.1129V92.2743C129.035 92.0863 129.187 91.9338 129.375 91.9338H173.366C173.554 91.9338 173.706 92.0863 173.706 92.2743V93.1129C173.706 93.3009 173.554 93.4534 173.366 93.4534Z" fill="#CCE6FF"/>
<path d="M173.366 96.5648H129.375C129.187 96.5648 129.035 96.4123 129.035 96.2243V95.3857C129.035 95.1977 129.187 95.0452 129.375 95.0452H173.366C173.554 95.0452 173.706 95.1977 173.706 95.3857V96.2243C173.706 96.4123 173.554 96.5648 173.366 96.5648Z" fill="#CCE6FF"/>
<path d="M173.366 99.676H129.375C129.187 99.676 129.035 99.5236 129.035 99.3355V98.497C129.035 98.309 129.187 98.1565 129.375 98.1565H173.366C173.554 98.1565 173.706 98.309 173.706 98.497V99.3355C173.706 99.5236 173.554 99.676 173.366 99.676Z" fill="#CCE6FF"/>
<path d="M173.366 102.787H129.375C129.187 102.787 129.035 102.635 129.035 102.447V101.608C129.035 101.42 129.187 101.268 129.375 101.268H173.366C173.554 101.268 173.706 101.42 173.706 101.608V102.447C173.706 102.635 173.554 102.787 173.366 102.787Z" fill="#CCE6FF"/>
<path d="M173.366 105.899H129.375C129.187 105.899 129.035 105.746 129.035 105.558V104.72C129.035 104.532 129.187 104.379 129.375 104.379H173.366C173.554 104.379 173.706 104.532 173.706 104.72V105.558C173.706 105.746 173.554 105.899 173.366 105.899Z" fill="#CCE6FF"/>
<path d="M173.366 109.01H129.375C129.187 109.01 129.035 108.858 129.035 108.67V107.831C129.035 107.643 129.187 107.491 129.375 107.491H173.366C173.554 107.491 173.706 107.643 173.706 107.831V108.67C173.706 108.858 173.554 109.01 173.366 109.01Z" fill="#CCE6FF"/>
<path d="M151.395 112.122H129.277C129.143 112.122 129.035 112.013 129.035 111.879V110.844C129.035 110.71 129.143 110.602 129.277 110.602H151.395C151.529 110.602 151.637 110.71 151.637 110.844V111.879C151.637 112.013 151.529 112.122 151.395 112.122Z" fill="#CCE6FF"/>
<path d="M141.038 130.583H130.253C129.58 130.583 129.035 130.037 129.035 129.362V117.861C129.035 117.186 129.58 116.64 130.253 116.64H141.038C141.711 116.64 142.256 117.186 142.256 117.861V129.362C142.256 130.037 141.711 130.583 141.038 130.583Z" fill="#CCE6FF"/>
<path d="M156.763 130.523H145.978C145.305 130.523 144.76 129.976 144.76 129.302V117.8C144.76 117.126 145.305 116.58 145.978 116.58H156.763C157.436 116.58 157.981 117.126 157.981 117.8V129.302C157.981 129.976 157.436 130.523 156.763 130.523Z" fill="#CCE6FF"/>
<path d="M172.488 130.462H161.703C161.03 130.462 160.485 129.916 160.485 129.242V117.74C160.485 117.066 161.03 116.519 161.703 116.519H172.488C173.161 116.519 173.706 117.066 173.706 117.74V129.242C173.706 129.916 173.161 130.462 172.488 130.462Z" fill="#CCE6FF"/>
<path d="M173.506 134.556H129.235C129.125 134.556 129.035 134.466 129.035 134.356V133.437C129.035 133.326 129.125 133.237 129.235 133.237H173.506C173.617 133.237 173.706 133.326 173.706 133.437V134.356C173.706 134.466 173.616 134.556 173.506 134.556Z" fill="#CCE6FF"/>
<path d="M173.506 137.019H129.235C129.125 137.019 129.035 136.93 129.035 136.819V135.901C129.035 135.79 129.125 135.7 129.235 135.7H173.506C173.617 135.7 173.706 135.79 173.706 135.901V136.819C173.706 136.93 173.616 137.019 173.506 137.019Z" fill="#CCE6FF"/>
<path d="M155.599 139.483H129.19C129.104 139.483 129.035 139.413 129.035 139.328V138.318C129.035 138.233 129.104 138.163 129.19 138.163H155.599C155.685 138.163 155.754 138.233 155.754 138.318V139.328C155.754 139.413 155.685 139.483 155.599 139.483Z" fill="#CCE6FF"/>
<path d="M72.6819 87.3338H37.8867C36.9198 87.3338 36.136 86.5486 36.136 85.5799V62.7383C36.136 61.7697 36.9198 60.9844 37.8867 60.9844H72.6818C73.6486 60.9844 74.4324 61.7697 74.4324 62.7383V85.5799C74.4324 86.5486 73.6486 87.3338 72.6819 87.3338Z" fill="#198F51"/>
<path d="M45.9985 76.4641C45.9985 77.387 45.8622 78.104 45.5895 78.615C45.0836 79.5479 44.1217 80.0142 42.7037 80.0142C41.8854 80.0142 41.1863 79.7921 40.6062 79.348C40.0261 78.904 39.7359 78.1139 39.7359 76.9775V76.1959H41.1252V76.9775C41.1252 77.5729 41.2578 78.0208 41.5234 78.321C41.7891 78.6213 42.2024 78.7713 42.7631 78.7713C43.5522 78.7713 44.0683 78.5009 44.3118 77.96C44.4606 77.6277 44.5352 77 44.5352 76.0771V68.7905H45.9987L45.9985 76.4641Z" fill="#102A54"/>
<path d="M57.2312 70.3535C57.9543 71.3211 58.3158 72.5591 58.3158 74.0675C58.3158 75.7001 57.9023 77.0571 57.0752 78.1386C56.1045 79.409 54.7201 80.0439 52.9224 80.0439C51.2434 80.0439 49.9236 79.4883 48.9628 78.3767C48.1058 77.3049 47.6776 75.9503 47.6776 74.313C47.6776 72.8344 48.044 71.5692 48.7771 70.5172C49.718 69.1675 51.1097 68.4927 52.9521 68.4927C54.8786 68.4929 56.3051 69.1132 57.2312 70.3535ZM55.9274 77.3224C56.5094 76.3864 56.8003 75.31 56.8003 74.0934C56.8003 72.8072 56.4648 71.7718 55.7937 70.9872C55.1225 70.2026 54.205 69.8102 53.0413 69.8102C51.9121 69.8102 50.9909 70.1989 50.2776 70.976C49.5646 71.7532 49.2079 72.899 49.2079 74.4135C49.2079 75.6254 49.5137 76.647 50.1254 77.4788C50.7371 78.3107 51.7288 78.7265 53.1007 78.7265C54.4033 78.7266 55.3454 78.2588 55.9274 77.3224Z" fill="#102A54"/>
<path d="M60.0394 68.7905H64.758C66.0441 68.7905 66.959 69.1726 67.5024 69.9368C67.8214 70.3883 67.9809 70.9093 67.9809 71.4997C67.9809 72.1895 67.7853 72.7551 67.394 73.1966C67.1908 73.4299 66.8988 73.6432 66.5174 73.8367C67.0771 74.0501 67.4955 74.2907 67.7729 74.5586C68.2633 75.0349 68.5083 75.6925 68.5083 76.5309C68.5083 77.2356 68.2865 77.8732 67.843 78.4437C67.1802 79.2972 66.1262 79.7239 64.6811 79.7239H60.0391V68.7905H60.0394ZM64.2056 73.4125C64.8361 73.4125 65.3266 73.3258 65.6769 73.152C66.2274 72.8791 66.5027 72.388 66.5027 71.6784C66.5027 70.9638 66.2098 70.4827 65.6245 70.2344C65.2942 70.0955 64.8035 70.0261 64.153 70.0261H61.4882V73.4125H64.2056ZM64.7053 78.4587C65.6202 78.4587 66.2725 78.1958 66.6625 77.6697C66.9075 77.3374 67.0301 76.9354 67.0301 76.4639C67.0301 75.67 66.6725 75.1292 65.9576 74.8414C65.5776 74.6877 65.0751 74.6107 64.4503 74.6107H61.4882V78.4587H64.7053Z" fill="#102A54"/>
<path d="M69.6212 93.8468C69.4028 93.8468 69.1948 93.7464 69.0543 93.5627L63.7476 86.6216H36.8731C35.7807 86.6216 34.8919 85.7312 34.8919 84.6367V61.7949C34.8919 60.7005 35.7807 59.81 36.8731 59.81H71.6682C72.7606 59.81 73.6494 60.7005 73.6494 61.7949V84.6365C73.6494 85.731 72.7606 86.6214 71.6682 86.6214H70.3466V93.1238C70.3466 93.4381 70.1546 93.7064 69.8574 93.8074C69.7792 93.8339 69.6996 93.8468 69.6212 93.8468ZM36.8731 60.2722C36.0349 60.2722 35.353 60.9553 35.353 61.7951V84.6367C35.353 85.4764 36.0349 86.1596 36.8731 86.1596H63.9753L69.4204 93.2818C69.5253 93.4188 69.6681 93.3837 69.7094 93.3699C69.7508 93.3559 69.8854 93.2966 69.8854 93.1239V86.1596H71.6682C72.5064 86.1596 73.1883 85.4764 73.1883 84.6367V61.7949C73.1883 60.9552 72.5064 60.272 71.6682 60.272L36.8731 60.2722Z" fill="#102A54"/>
<path d="M153.55 40.9836H118.755C117.788 40.9836 117.004 40.1983 117.004 39.2296V16.3881C117.004 15.4194 117.788 14.6342 118.755 14.6342H153.55C154.517 14.6342 155.301 15.4194 155.301 16.3881V39.2296C155.3 40.1983 154.517 40.9836 153.55 40.9836Z" fill="#198F51"/>
<path d="M126.867 30.1138C126.867 31.0367 126.73 31.7537 126.458 32.2647C125.952 33.1976 124.99 33.6639 123.572 33.6639C122.754 33.6639 122.055 33.4419 121.474 32.9977C120.894 32.5537 120.604 31.7636 120.604 30.6272V29.8456H121.993V30.6272C121.993 31.2226 122.126 31.6705 122.392 31.9707C122.657 32.271 123.071 32.421 123.631 32.421C124.42 32.421 124.937 32.1506 125.18 31.6097C125.329 31.2774 125.403 30.6495 125.403 29.7266V22.4401H126.867V30.1138H126.867Z" fill="#102A54"/>
<path d="M138.099 24.0034C138.822 24.9709 139.184 26.2089 139.184 27.7174C139.184 29.3499 138.77 30.707 137.943 31.7885C136.973 33.0589 135.588 33.6938 133.791 33.6938C132.112 33.6938 130.792 33.1382 129.831 32.0266C128.974 30.9548 128.546 29.6002 128.546 27.9629C128.546 26.4843 128.912 25.219 129.645 24.1671C130.586 22.8174 131.978 22.1426 133.82 22.1426C135.747 22.1426 137.173 22.7629 138.099 24.0034ZM136.796 30.9723C137.378 30.0363 137.669 28.9598 137.669 27.7432C137.669 26.457 137.333 25.4217 136.662 24.6371C135.991 23.8524 135.073 23.46 133.909 23.46C132.78 23.46 131.859 23.8487 131.146 24.6258C130.433 25.4031 130.076 26.5488 130.076 28.0634C130.076 29.2752 130.382 30.2969 130.994 31.1286C131.605 31.9605 132.597 32.3763 133.969 32.3763C135.271 32.3765 136.213 31.9085 136.796 30.9723Z" fill="#102A54"/>
<path d="M140.907 22.4402H145.626C146.912 22.4402 147.827 22.8225 148.37 23.5865C148.689 24.038 148.849 24.559 148.849 25.1494C148.849 25.8392 148.653 26.4048 148.262 26.8463C148.059 27.0796 147.767 27.2929 147.385 27.4864C147.945 27.6998 148.363 27.9404 148.641 28.2083C149.131 28.6846 149.376 29.3422 149.376 30.1806C149.376 30.8853 149.154 31.5229 148.711 32.0934C148.048 32.9469 146.994 33.3736 145.549 33.3736H140.907V22.4402H140.907ZM145.074 27.0622C145.704 27.0622 146.195 26.9755 146.545 26.8018C147.095 26.5289 147.371 26.0378 147.371 25.3282C147.371 24.6136 147.078 24.1326 146.493 23.8843C146.162 23.7454 145.672 23.6759 145.021 23.6759H142.356V27.0624H145.074V27.0622ZM145.573 32.1085C146.488 32.1085 147.141 31.8456 147.53 31.3196C147.776 30.9872 147.898 30.5853 147.898 30.1139C147.898 29.32 147.54 28.7792 146.826 28.4914C146.446 28.3377 145.943 28.2607 145.318 28.2607H142.356V32.1087H145.573V32.1085Z" fill="#102A54"/>
<path d="M150.489 47.4965C150.271 47.4965 150.063 47.3961 149.922 47.2124L144.616 40.2713H117.741C116.649 40.2713 115.76 39.3809 115.76 38.2864V15.4448C115.76 14.3503 116.649 13.4599 117.741 13.4599H152.536C153.629 13.4599 154.518 14.3503 154.518 15.4448V38.2864C154.518 39.3809 153.629 40.2713 152.536 40.2713H151.215V46.7736C151.215 47.088 151.023 47.3562 150.726 47.4571C150.647 47.4836 150.567 47.4965 150.489 47.4965ZM117.741 13.9221C116.903 13.9221 116.221 14.6052 116.221 15.445V38.2864C116.221 39.1262 116.903 39.8093 117.741 39.8093H144.843L150.289 46.9315C150.393 47.0687 150.536 47.0334 150.578 47.0196C150.619 47.0056 150.754 46.9463 150.754 46.7736V39.8093H152.536C153.375 39.8093 154.056 39.1262 154.056 38.2864V15.4448C154.056 14.605 153.375 13.9219 152.536 13.9219L117.741 13.9221Z" fill="#102A54"/>
<path d="M228.91 55.5532H263.705C264.672 55.5532 265.455 54.768 265.455 53.7993V30.9577C265.455 29.989 264.672 29.2038 263.705 29.2038H228.91C227.943 29.2038 227.159 29.989 227.159 30.9577V53.7993C227.159 54.768 227.943 55.5532 228.91 55.5532Z" fill="#198F51"/>
<path d="M239.346 44.6834C239.346 45.6064 239.209 46.3234 238.937 46.8344C238.431 47.7673 237.469 48.2336 236.051 48.2336C235.233 48.2336 234.534 48.0115 233.953 47.5674C233.373 47.1234 233.083 46.3332 233.083 45.1969V44.4153H234.472V45.1969C234.472 45.7922 234.605 46.2402 234.871 46.5404C235.136 46.8407 235.55 46.9907 236.11 46.9907C236.899 46.9907 237.416 46.7202 237.659 46.1794C237.808 45.8471 237.882 45.2194 237.882 44.2964V37.0099H239.346L239.346 44.6834Z" fill="#102A54"/>
<path d="M250.578 38.573C251.301 39.5406 251.663 40.7786 251.663 42.287C251.663 43.9196 251.249 45.2766 250.422 46.3582C249.452 47.6285 248.067 48.2635 246.27 48.2635C244.591 48.2635 243.271 47.7078 242.31 46.5962C241.453 45.5244 241.025 44.1698 241.025 42.5325C241.025 41.0539 241.391 39.7887 242.124 38.7367C243.065 37.3871 244.457 36.7122 246.299 36.7122C248.226 36.7122 249.652 37.3325 250.578 38.573ZM249.275 45.542C249.857 44.606 250.147 43.5295 250.147 42.3129C250.147 41.0267 249.812 39.9913 249.141 39.2067C248.47 38.4221 247.552 38.0297 246.388 38.0297C245.259 38.0297 244.338 38.4184 243.625 39.1955C242.912 39.9727 242.555 41.1185 242.555 42.6331C242.555 43.8449 242.861 44.8667 243.473 45.6983C244.084 46.5302 245.076 46.946 246.448 46.946C247.75 46.9461 248.693 46.4781 249.275 45.542Z" fill="#102A54"/>
<path d="M253.386 37.0099H258.105C259.391 37.0099 260.306 37.392 260.849 38.1561C261.168 38.6077 261.328 39.1287 261.328 39.7191C261.328 40.4089 261.132 40.9745 260.741 41.416C260.538 41.6493 260.246 41.8626 259.864 42.056C260.424 42.2695 260.843 42.51 261.12 42.778C261.61 43.2543 261.855 43.9119 261.855 44.7503C261.855 45.455 261.634 46.0925 261.19 46.6631C260.527 47.5166 259.473 47.9433 258.028 47.9433H253.386L253.386 37.0099ZM257.553 41.6319C258.183 41.6319 258.674 41.5452 259.024 41.3714C259.575 41.0985 259.85 40.6074 259.85 39.8977C259.85 39.1832 259.557 38.7021 258.972 38.4538C258.641 38.3149 258.151 38.2455 257.5 38.2455H254.835V41.6319H257.553ZM258.052 46.6782C258.967 46.6782 259.62 46.4153 260.01 45.8892C260.255 45.5569 260.377 45.155 260.377 44.6836C260.377 43.8897 260.02 43.3489 259.305 43.061C258.925 42.9073 258.422 42.8304 257.797 42.8304H254.835V46.6783H258.052V46.6782Z" fill="#102A54"/>
<path d="M231.97 62.0662C231.892 62.0662 231.812 62.0532 231.734 62.0266C231.437 61.9257 231.245 61.6574 231.245 61.3431V54.8408H229.923C228.831 54.8408 227.942 53.9504 227.942 52.8559V30.0144C227.942 28.92 228.831 28.0295 229.923 28.0295H264.718C265.81 28.0295 266.699 28.92 266.699 30.0144V52.856C266.699 53.9505 265.811 54.8409 264.718 54.8409H237.844L232.537 61.7822C232.397 61.9657 232.189 62.0662 231.97 62.0662ZM229.923 28.4915C229.085 28.4915 228.403 29.1747 228.403 30.0144V52.856C228.403 53.6958 229.085 54.3789 229.923 54.3789H231.706V61.3433C231.706 61.5159 231.841 61.5752 231.882 61.5892C231.923 61.6034 232.066 61.6385 232.171 61.5013L237.616 54.3791H264.718C265.557 54.3791 266.238 53.696 266.238 52.8562V30.0144C266.238 29.1747 265.557 28.4915 264.718 28.4915H229.923Z" fill="#102A54"/>
<path d="M167.725 165.091C173.347 155.357 174.848 144.012 171.953 133.146C169.058 122.28 162.112 113.194 152.396 107.561C142.679 101.929 131.355 100.424 120.509 103.325C109.664 106.225 100.594 113.184 94.9723 122.918C89.3504 132.653 87.8488 143.998 90.7438 154.864C93.1185 163.777 98.2197 171.49 105.338 177.084C104.627 177.124 103.95 177.51 103.567 178.173L73.2561 230.656C72.6512 231.703 73.0083 233.043 74.0535 233.649L82.328 238.446C83.3732 239.052 84.711 238.694 85.3157 237.647L115.626 185.164C116.009 184.501 116.005 183.72 115.686 183.083C124.074 186.478 133.291 187.064 142.187 184.685C153.033 181.784 162.103 174.826 167.725 165.091ZM113.149 175.517C104.748 170.646 98.7423 162.79 96.239 153.394C93.7356 143.999 95.034 134.189 99.8952 125.772C104.756 117.355 112.598 111.338 121.976 108.83C131.354 106.322 141.146 107.623 149.548 112.493C157.949 117.363 163.955 125.22 166.458 134.615C168.961 144.011 167.663 153.821 162.802 162.238C157.941 170.655 150.099 176.672 140.721 179.18C131.343 181.688 121.551 180.387 113.149 175.517Z" fill="#102A54"/>
<path d="M155.906 170.402C169.832 156.45 169.832 133.83 155.906 119.878C141.98 105.926 119.401 105.926 105.476 119.878C91.5496 133.83 91.5496 156.45 105.476 170.402C119.401 184.353 141.98 184.353 155.906 170.402Z" fill="white"/>
<path opacity="0.61" d="M155.906 170.402C169.832 156.45 169.832 133.83 155.906 119.878C141.98 105.926 119.401 105.926 105.476 119.878C91.5496 133.83 91.5496 156.45 105.476 170.402C119.401 184.354 141.98 184.353 155.906 170.402Z" fill="#CCE6FF"/>
<mask id="mask2_1_2110" style="mask-type:luminance" maskUnits="userSpaceOnUse" x="95" y="109" width="72" height="72">
<path d="M155.906 170.402C169.832 156.45 169.832 133.83 155.906 119.878C141.98 105.926 119.401 105.926 105.476 119.878C91.5496 133.83 91.5496 156.45 105.476 170.402C119.401 184.354 141.98 184.353 155.906 170.402Z" fill="white"/>
</mask>
<g mask="url(#mask2_1_2110)">
<path opacity="0.26" d="M147.869 109.71L88.1138 134.794L89.0656 152.081L163.178 122.972L147.869 109.71Z" fill="#198F51"/>
</g>
<mask id="mask3_1_2110" style="mask-type:luminance" maskUnits="userSpaceOnUse" x="95" y="109" width="72" height="72">
<path d="M155.906 170.402C169.832 156.45 169.832 133.83 155.906 119.878C141.98 105.926 119.401 105.926 105.476 119.878C91.5496 133.83 91.5496 156.45 105.476 170.402C119.401 184.354 141.98 184.353 155.906 170.402Z" fill="white"/>
</mask>
<g mask="url(#mask3_1_2110)">
<path opacity="0.18" d="M173.162 125.277L93.0372 157.42L100.237 171.966L178.718 141.141L173.162 125.277Z" fill="#198F51"/>
</g>
<mask id="mask4_1_2110" style="mask-type:luminance" maskUnits="userSpaceOnUse" x="95" y="109" width="72" height="72">
<path d="M155.906 170.402C169.832 156.45 169.832 133.83 155.906 119.878C141.98 105.926 119.401 105.926 105.476 119.878C91.5496 133.83 91.5496 156.45 105.476 170.402C119.401 184.354 141.98 184.353 155.906 170.402Z" fill="white"/>
</mask>
<g mask="url(#mask4_1_2110)">
<path opacity="0.1" d="M179.582 145.846L99.4572 177.989L106.082 185.624L182.943 155.442L179.582 145.846Z" fill="#198F51"/>
</g>
<path opacity="0.14" d="M171.128 168.786C176.75 159.052 178.252 147.707 175.357 136.841C172.462 125.975 165.516 116.889 155.8 111.256C146.083 105.624 134.759 104.119 123.913 107.02C113.067 109.921 103.998 116.879 98.3762 126.614C92.7543 136.348 91.2526 147.693 94.1477 158.559C96.5224 167.472 101.624 175.185 108.742 180.779C108.031 180.819 107.354 181.205 106.97 181.868L76.6599 234.351C76.0551 235.398 76.4121 236.738 77.4574 237.344L85.7318 242.141C86.7771 242.747 88.1149 242.389 88.7196 241.342L119.03 188.859C119.413 188.196 119.409 187.415 119.09 186.778C127.478 190.173 136.695 190.759 145.591 188.38C156.437 185.479 165.506 178.521 171.128 168.786ZM116.553 179.212C108.152 174.341 102.146 166.485 99.6428 157.089C97.1394 147.694 98.4379 137.884 103.299 129.467C108.16 121.05 116.002 115.033 125.38 112.525C134.758 110.017 144.55 111.318 152.951 116.188C161.353 121.058 167.358 128.915 169.862 138.31C172.365 147.706 171.067 157.516 166.206 165.933C161.344 174.35 153.502 180.367 144.125 182.875C134.746 185.383 124.955 184.082 116.553 179.212Z" fill="#198F51"/>
<path d="M312.234 112.893H193.194C184.876 112.893 178.134 106.137 178.134 97.8045C178.134 89.4714 184.877 82.7162 193.194 82.7162H312.234C320.552 82.7162 327.294 89.4714 327.294 97.8045C327.294 106.137 320.552 112.893 312.234 112.893Z" fill="#F4F7FD"/>
<path d="M310.132 112.664H191.092C182.533 112.664 175.57 105.688 175.57 97.1136C175.57 88.5391 182.533 81.5632 191.092 81.5632H310.132C318.691 81.5632 325.654 88.5391 325.654 97.1136C325.653 105.688 318.69 112.664 310.132 112.664ZM191.092 82.4873C183.042 82.4873 176.493 89.0486 176.493 97.1138C176.493 105.179 183.042 111.74 191.092 111.74H310.132C318.182 111.74 324.731 105.179 324.731 97.1138C324.731 89.0488 318.182 82.4873 310.132 82.4873H191.092Z" fill="#102A54"/>
<path d="M193.6 98.029H192.16C191.707 98.029 191.34 97.6611 191.34 97.2073V95.7647C191.34 95.3109 191.707 94.943 192.16 94.943H193.6C194.053 94.943 194.42 95.3109 194.42 95.7647V97.2073C194.42 97.6611 194.053 98.029 193.6 98.029Z" fill="#102A54"/>
<path d="M199.001 98.029H197.561C197.108 98.029 196.741 97.6611 196.741 97.2073V95.7647C196.741 95.3109 197.108 94.943 197.561 94.943H199.001C199.454 94.943 199.821 95.3109 199.821 95.7647V97.2073C199.821 97.6611 199.454 98.029 199.001 98.029Z" fill="#102A54"/>
<path d="M204.401 98.029H202.962C202.509 98.029 202.141 97.6611 202.141 97.2073V95.7647C202.141 95.3109 202.509 94.943 202.962 94.943H204.401C204.854 94.943 205.222 95.3109 205.222 95.7647V97.2073C205.222 97.6611 204.854 98.029 204.401 98.029Z" fill="#102A54"/>
<path d="M209.802 98.029H208.362C207.909 98.029 207.542 97.6611 207.542 97.2073V95.7647C207.542 95.3109 207.909 94.943 208.362 94.943H209.802C210.255 94.943 210.622 95.3109 210.622 95.7647V97.2073C210.622 97.6611 210.255 98.029 209.802 98.029Z" fill="#102A54"/>
<path d="M215.203 98.029H213.763C213.31 98.029 212.943 97.6611 212.943 97.2073V95.7647C212.943 95.3109 213.31 94.943 213.763 94.943H215.203C215.656 94.943 216.023 95.3109 216.023 95.7647V97.2073C216.023 97.6611 215.656 98.029 215.203 98.029Z" fill="#102A54"/>
<path d="M220.604 98.029H219.164C218.711 98.029 218.343 97.6611 218.343 97.2073V95.7647C218.343 95.3109 218.711 94.943 219.164 94.943H220.604C221.057 94.943 221.424 95.3109 221.424 95.7647V97.2073C221.424 97.6611 221.057 98.029 220.604 98.029Z" fill="#102A54"/>
<path d="M226.004 98.029H224.564C224.111 98.029 223.744 97.6611 223.744 97.2073V95.7647C223.744 95.3109 224.111 94.943 224.564 94.943H226.004C226.457 94.943 226.824 95.3109 226.824 95.7647V97.2073C226.824 97.6611 226.457 98.029 226.004 98.029Z" fill="#102A54"/>
<path d="M231.405 98.029H229.965C229.512 98.029 229.145 97.6611 229.145 97.2073V95.7647C229.145 95.3109 229.512 94.943 229.965 94.943H231.405C231.858 94.943 232.225 95.3109 232.225 95.7647V97.2073C232.225 97.6611 231.858 98.029 231.405 98.029Z" fill="#102A54"/>
<path d="M236.806 98.029H235.366C234.913 98.029 234.546 97.6611 234.546 97.2073V95.7647C234.546 95.3109 234.913 94.943 235.366 94.943H236.806C237.259 94.943 237.626 95.3109 237.626 95.7647V97.2073C237.626 97.6611 237.259 98.029 236.806 98.029Z" fill="#102A54"/>
<path d="M242.207 98.029H240.767C240.314 98.029 239.946 97.6611 239.946 97.2073V95.7647C239.946 95.3109 240.314 94.943 240.767 94.943H242.207C242.66 94.943 243.027 95.3109 243.027 95.7647V97.2073C243.027 97.6611 242.66 98.029 242.207 98.029Z" fill="#102A54"/>
<path d="M247.607 98.029H246.167C245.714 98.029 245.347 97.6611 245.347 97.2073V95.7647C245.347 95.3109 245.714 94.943 246.167 94.943H247.607C248.06 94.943 248.427 95.3109 248.427 95.7647V97.2073C248.427 97.6611 248.06 98.029 247.607 98.029Z" fill="#102A54"/>
<path d="M253.008 98.029H251.568C251.115 98.029 250.748 97.6611 250.748 97.2073V95.7647C250.748 95.3109 251.115 94.943 251.568 94.943H253.008C253.461 94.943 253.828 95.3109 253.828 95.7647V97.2073C253.828 97.6611 253.461 98.029 253.008 98.029Z" fill="#102A54"/>
<path d="M258.409 98.029H256.969C256.516 98.029 256.149 97.6611 256.149 97.2073V95.7647C256.149 95.3109 256.516 94.943 256.969 94.943H258.409C258.862 94.943 259.229 95.3109 259.229 95.7647V97.2073C259.229 97.6611 258.862 98.029 258.409 98.029Z" fill="#102A54"/>
<path d="M263.809 98.029H262.37C261.917 98.029 261.549 97.6611 261.549 97.2073V95.7647C261.549 95.3109 261.917 94.943 262.37 94.943H263.809C264.262 94.943 264.63 95.3109 264.63 95.7647V97.2073C264.63 97.6611 264.262 98.029 263.809 98.029Z" fill="#102A54"/>
<path d="M269.21 98.029H267.77C267.317 98.029 266.95 97.6611 266.95 97.2073V95.7647C266.95 95.3109 267.317 94.943 267.77 94.943H269.21C269.663 94.943 270.03 95.3109 270.03 95.7647V97.2073C270.03 97.6611 269.663 98.029 269.21 98.029Z" fill="#102A54"/>
<path d="M274.611 98.029H273.171C272.718 98.029 272.351 97.6611 272.351 97.2073V95.7647C272.351 95.3109 272.718 94.943 273.171 94.943H274.611C275.064 94.943 275.431 95.3109 275.431 95.7647V97.2073C275.431 97.6611 275.064 98.029 274.611 98.029Z" fill="#102A54"/>
<path d="M280.012 98.029H278.572C278.119 98.029 277.752 97.6611 277.752 97.2073V95.7647C277.752 95.3109 278.119 94.943 278.572 94.943H280.012C280.465 94.943 280.832 95.3109 280.832 95.7647V97.2073C280.832 97.6611 280.465 98.029 280.012 98.029Z" fill="#102A54"/>
<path d="M285.412 98.029H283.972C283.519 98.029 283.152 97.6611 283.152 97.2073V95.7647C283.152 95.3109 283.519 94.943 283.972 94.943H285.412C285.865 94.943 286.233 95.3109 286.233 95.7647V97.2073C286.233 97.6611 285.865 98.029 285.412 98.029Z" fill="#102A54"/>
<path d="M290.813 98.029H289.373C288.92 98.029 288.553 97.6611 288.553 97.2073V95.7647C288.553 95.3109 288.92 94.943 289.373 94.943H290.813C291.266 94.943 291.633 95.3109 291.633 95.7647V97.2073C291.633 97.6611 291.266 98.029 290.813 98.029Z" fill="#102A54"/>
<path d="M296.214 98.029H294.774C294.321 98.029 293.954 97.6611 293.954 97.2073V95.7647C293.954 95.3109 294.321 94.943 294.774 94.943H296.214C296.667 94.943 297.034 95.3109 297.034 95.7647V97.2073C297.034 97.6611 296.667 98.029 296.214 98.029Z" fill="#102A54"/>
<path d="M301.614 98.029H300.175C299.722 98.029 299.354 97.6611 299.354 97.2073V95.7647C299.354 95.3109 299.722 94.943 300.175 94.943H301.614C302.067 94.943 302.435 95.3109 302.435 95.7647V97.2073C302.435 97.6611 302.067 98.029 301.614 98.029Z" fill="#102A54"/>
<path d="M307.015 98.029H305.575C305.122 98.029 304.755 97.6611 304.755 97.2073V95.7647C304.755 95.3109 305.122 94.943 305.575 94.943H307.015C307.468 94.943 307.835 95.3109 307.835 95.7647V97.2073C307.835 97.6611 307.468 98.029 307.015 98.029Z" fill="#102A54"/>
<path d="M312.416 98.029H310.976C310.523 98.029 310.156 97.6611 310.156 97.2073V95.7647C310.156 95.3109 310.523 94.943 310.976 94.943H312.416C312.869 94.943 313.236 95.3109 313.236 95.7647V97.2073C313.236 97.6611 312.869 98.029 312.416 98.029Z" fill="#102A54"/>
<path d="M32.2537 243.186H28.929H20.3373C19.8048 243.186 19.4229 243.7 19.5756 244.211L24.7887 261.654C24.8895 261.991 25.1991 262.222 25.5504 262.222H28.929H32.2537H35.6323C35.9836 262.222 36.2933 261.991 36.394 261.654L41.607 244.211C41.7598 243.7 41.3777 243.186 40.8454 243.186H32.2537Z" fill="#102A54"/>
<path d="M38.9893 234.686C39.3175 233.819 39.7416 232.952 40.4507 232.356C41.1598 231.759 42.2141 231.494 43.0334 231.927C43.6355 232.245 44.2594 232.917 44.8538 232.585C45.2237 232.378 45.3056 231.889 45.3308 231.465C45.4132 230.084 45.3958 228.528 46.3784 227.556C47.3461 226.598 48.9125 226.618 50.2306 226.955C50.8524 227.113 51.5404 227.322 52.1068 227.02C52.4098 226.858 52.6255 226.572 52.8045 226.278C53.436 225.244 53.8372 223.92 54.9421 223.426C56.7199 222.631 58.7934 224.641 60.6218 223.972C61.3374 223.71 61.9493 223.051 62.7076 223.123C63.0823 223.158 63.4193 223.378 63.679 223.65C64.5612 224.576 64.5701 226.201 63.6921 227.13C62.5251 228.365 60.3836 228.193 59.2033 229.416C58.0695 230.59 58.163 232.721 56.7796 233.586C55.614 234.315 54.0415 233.717 52.7464 234.177C51.7075 234.545 51.0291 235.518 50.3563 236.393C49.6835 237.268 48.8281 238.159 47.728 238.227C47.1503 238.263 46.5754 238.061 45.9991 238.114C44.341 238.265 43.417 240.365 41.7708 240.614C40.6659 240.781 39.7198 240.043 38.9549 239.341C38.6513 239.062 38.3675 238.746 38.2579 238.338C38.1264 237.848 38.236 237.317 38.3445 236.834C38.5083 236.104 38.7248 235.386 38.9893 234.686Z" fill="#6CB597"/>
<path d="M27.0981 231.244C26.195 230.571 25.6475 229.274 26.1815 228.282C26.4416 227.798 26.9055 227.465 27.2718 227.056C27.6382 226.648 27.9183 226.063 27.7014 225.559C27.594 225.309 27.3817 225.123 27.1765 224.945C26.4363 224.302 25.6862 223.635 25.2203 222.772C24.7545 221.909 24.623 220.799 25.1382 219.965C25.5271 219.335 26.2071 218.961 26.7974 218.515C27.3877 218.07 27.9478 217.434 27.8986 216.695C27.8374 215.774 26.8461 214.937 27.2144 214.091C27.5961 213.214 29.1203 213.262 29.3697 212.34C29.4936 211.881 29.2175 211.422 29.1037 210.96C28.8506 209.932 29.5451 208.766 30.5682 208.5C31.5913 208.235 32.7635 208.918 33.0399 209.94C33.2313 210.647 33.0371 211.433 33.3167 212.11C33.6795 212.989 34.7185 213.41 35.1738 214.244C36.0112 215.78 34.4897 217.599 34.6175 219.344C34.7524 221.189 36.7201 222.759 36.213 224.538C36.0144 225.235 35.4557 225.786 35.2621 226.484C35.0314 227.317 35.3555 228.188 35.5874 229.02C35.8194 229.853 35.93 230.839 35.3728 231.498C34.9604 231.987 34.2899 232.158 33.6589 232.257C31.9099 232.53 30.1719 232.45 28.4798 231.919C27.9885 231.765 27.5126 231.553 27.0981 231.244Z" fill="#6CB597"/>
<path d="M30.5514 247.573C30.5111 247.573 30.4706 247.562 30.4338 247.539C30.3293 247.474 30.2973 247.336 30.3624 247.232C31.9685 244.647 33.9616 242.342 36.2862 240.38C38.8474 238.219 41.7769 236.513 44.61 234.862L63.8507 223.654C63.9571 223.591 64.0936 223.628 64.1555 223.734C64.2175 223.841 64.1812 223.978 64.0748 224.04L44.8341 235.248C42.0174 236.889 39.105 238.586 36.5735 240.722C34.2847 242.653 32.3222 244.923 30.7409 247.468C30.6988 247.536 30.626 247.573 30.5514 247.573Z" fill="#102A54"/>
<path d="M31.1692 246.622C31.0491 246.622 30.95 246.526 30.9465 246.405C30.6171 235.195 30.863 219.806 31.1272 208.871C31.1303 208.747 31.2302 208.651 31.3555 208.653C31.4786 208.656 31.5759 208.758 31.573 208.881C31.3088 219.812 31.063 235.192 31.3921 246.392C31.3958 246.515 31.2989 246.618 31.1758 246.622C31.1738 246.622 31.1715 246.622 31.1692 246.622Z" fill="#102A54"/>
<path d="M20.0747 240.576C18.7755 240.436 17.4573 239.573 17.2238 238.285C17.0375 237.257 17.4574 235.934 16.606 235.331C16.3072 235.12 15.9241 235.075 15.5586 235.058C14.2371 234.995 12.7882 235.168 11.7087 234.402C10.1377 233.288 10.2948 230.976 10.1669 229.052C10.1342 228.558 10.0516 228.024 9.69503 227.681C9.31428 227.315 8.73954 227.275 8.2249 227.158C6.34943 226.734 4.88469 224.917 4.86471 222.991C4.85856 222.402 4.98845 221.783 5.37965 221.344C5.64573 221.045 6.01341 220.852 6.39555 220.734C7.61404 220.359 9.03559 220.767 9.87133 221.731C10.3933 222.333 10.6939 223.117 11.2823 223.655C12.9452 225.174 15.6776 223.926 17.8164 224.627C19.0127 225.019 19.969 226.073 20.2446 227.304C20.4838 228.371 20.252 229.558 20.7731 230.52C21.6683 232.171 24.016 232.078 25.7459 232.804C26.162 232.979 26.5698 233.226 26.8054 233.611C26.9877 233.91 27.0514 234.265 27.0801 234.614C27.1965 236.022 26.7516 237.453 25.9185 238.586C25.5451 239.094 25.0465 239.683 24.4562 239.941C24.0081 240.137 23.481 240.066 23.0094 240.18C22.0318 240.416 21.0939 240.687 20.0747 240.576Z" fill="#6CB597"/>
<path d="M29.9922 247.894C29.9126 247.894 29.8356 247.851 29.7953 247.776C26.7173 242.008 20.0543 234.391 16.8523 230.73C15.8925 229.633 14.8999 228.498 13.7439 227.583C12.7933 226.83 11.6975 226.197 10.6376 225.584C8.69312 224.461 6.68223 223.299 5.48694 221.354C5.42238 221.248 5.45498 221.111 5.55996 221.046C5.6648 220.982 5.80206 221.014 5.86662 221.119C7.00288 222.968 8.87666 224.051 10.8603 225.197C11.934 225.818 13.0443 226.459 14.0204 227.232C15.2085 228.173 16.2147 229.323 17.1877 230.435C20.4006 234.109 27.0864 241.752 30.1887 247.565C30.2466 247.673 30.2057 247.809 30.0972 247.867C30.0637 247.885 30.0276 247.894 29.9922 247.894Z" fill="#102A54"/>
<path d="M300.972 138.055C300.972 138.055 290.845 157.074 289.219 158.608C287.594 160.142 264.646 166.47 264.646 166.47L265.552 169.801C265.552 169.801 293.978 170.462 295.426 169.801C296.873 169.14 305.218 161.719 305.218 161.719L300.972 138.055Z" fill="#198F51"/>
<path d="M286.987 252.142L287.681 256.321H292.959L292.654 251.535L286.987 252.142Z" fill="#FFC0B1"/>
<path d="M268.007 251.299L268.296 256.99L273.006 256.625L273.706 251.342L268.007 251.299Z" fill="#FFC0B1"/>
<path d="M308.814 182.513C308.814 182.513 275.298 193.753 270.302 198.758C265.306 203.764 267.291 251.498 267.291 251.498H274.459L284.551 212.218C284.551 212.218 325.175 211.314 329.566 203.586C335.358 193.391 330.935 180.119 330.935 180.119L308.814 182.513Z" fill="#0C203F"/>
<path d="M310.87 185.159C310.87 185.159 282.998 201.422 279.459 206.822C275.92 212.222 286.475 252.197 286.475 252.197L293.004 251.498L294.68 216.206C294.68 216.206 330.814 207.86 333.309 200.14C336.601 189.955 330.195 178.915 330.195 178.915L310.87 185.159Z" fill="#102A54"/>
<path d="M273.794 255.52C273.794 255.52 269.527 256.708 267.552 255.52L259.005 259.993C257.847 260.599 257.121 261.799 257.121 263.107V263.199H273.94C274.447 263.199 274.836 262.749 274.763 262.246L273.794 255.52Z" fill="#0C203F"/>
<path d="M293.192 255.52C293.192 255.52 288.925 256.708 286.949 255.52L278.402 259.993C277.244 260.599 276.519 261.799 276.519 263.107V263.199H293.337C293.844 263.199 294.233 262.749 294.161 262.246L293.192 255.52Z" fill="#102A54"/>
<path d="M309.189 132.97L305.971 119.834L305.971 119.835C305.966 117.358 305.482 114.398 304.252 110.928C303.437 108.629 300.82 107.532 298.606 108.548L292.367 111.411C290.668 112.19 289.758 114.068 290.202 115.886C290.728 118.041 291.354 120.849 291.555 122.727C291.73 124.367 292.183 126.279 293.263 127.7C295.153 130.187 298.482 131.032 301.221 129.773L301.999 138.297L309.189 132.97Z" fill="#FFC0B1"/>
<path d="M293.767 121.903C293.57 121.903 293.38 121.83 293.232 121.692C293.049 121.522 292.958 121.282 292.983 121.034L293.48 115.931C293.489 115.833 293.578 115.76 293.676 115.77C293.774 115.78 293.846 115.868 293.837 115.966L293.34 121.069C293.327 121.204 293.376 121.335 293.476 121.428C293.576 121.521 293.71 121.56 293.844 121.537L295.395 121.265C295.494 121.249 295.586 121.314 295.603 121.412C295.62 121.51 295.555 121.603 295.457 121.62L293.906 121.891C293.859 121.899 293.813 121.903 293.767 121.903Z" fill="#102A54"/>
<path d="M297.554 121.893C297.554 121.893 295.66 123.622 293.235 124.235C293.235 124.235 296.756 126.389 297.554 121.893Z" fill="white"/>
<path d="M294.585 123.949C294.514 123.949 294.447 123.907 294.419 123.838C294.381 123.746 294.425 123.641 294.516 123.603C296.408 122.822 297.549 121.53 297.56 121.517C297.625 121.443 297.738 121.435 297.813 121.5C297.888 121.566 297.895 121.679 297.83 121.754C297.782 121.809 296.626 123.121 294.653 123.935C294.631 123.944 294.608 123.949 294.585 123.949Z" fill="#102A54"/>
<path d="M292.468 116.91C292.468 117.338 292.189 117.685 291.845 117.685C291.501 117.685 291.222 117.338 291.222 116.91C291.222 116.482 291.501 116.136 291.845 116.136C292.189 116.136 292.468 116.482 292.468 116.91Z" fill="#102A54"/>
<path d="M296.018 116.414C296.361 116.414 296.64 116.067 296.64 115.64C296.64 115.212 296.361 114.865 296.018 114.865C295.674 114.865 295.395 115.212 295.395 115.64C295.395 116.067 295.674 116.414 296.018 116.414Z" fill="#102A54"/>
<path d="M290.09 114.102C290.09 114.102 296.986 114.681 300.003 112.365C300.003 112.365 300.067 116.959 301.158 117.685C302.25 118.411 305.596 117.673 306.64 122.314C306.64 122.314 308.476 117.253 307.642 111.336C306.807 105.419 303.084 102.59 299.489 102.911C295.894 103.233 282.636 108.168 290.09 114.102Z" fill="#102A54"/>
<path d="M304.984 116.56C305.396 114.835 304.911 113.24 303.901 112.998C302.891 112.756 301.739 113.958 301.327 115.683C300.915 117.408 301.4 119.002 302.41 119.244C303.419 119.486 304.572 118.284 304.984 116.56Z" fill="#FFC0B1"/>
<path d="M302.299 117.459C302.204 117.459 302.124 117.384 302.12 117.288C302.022 115.253 303.647 113.588 303.716 113.518C303.786 113.448 303.899 113.447 303.97 113.517C304.04 113.587 304.041 113.701 303.971 113.771C303.955 113.787 302.389 115.396 302.478 117.271C302.483 117.37 302.407 117.454 302.308 117.459C302.305 117.459 302.302 117.459 302.299 117.459Z" fill="#102A54"/>
<path d="M309.194 131.021C309.194 131.021 329.165 139.463 332.815 183.054C332.815 183.054 324.205 188.284 303.139 185.247C303.139 185.247 303.704 180.538 303.507 178.604C303.309 176.669 297.05 147.11 300.972 138.055L309.194 131.021Z" fill="#198F51"/>
<path d="M301.221 129.953C301.151 129.953 301.085 129.912 301.056 129.843C301.017 129.752 301.06 129.646 301.151 129.608C301.18 129.595 303.168 128.71 304.309 125.598C304.343 125.504 304.447 125.457 304.54 125.491C304.633 125.525 304.68 125.629 304.646 125.722C303.445 128.998 301.378 129.902 301.291 129.939C301.268 129.949 301.245 129.953 301.221 129.953Z" fill="#102A54"/>
<path d="M308.68 141.185C308.68 141.185 302.405 157.271 300.546 159.724C298.687 162.176 270.332 166.794 270.332 166.794L272.008 171.412C272.008 171.412 301.089 173.092 304.637 171.412C308.185 169.733 316.147 163.996 318.382 155.879C320.617 147.763 315.74 137.547 308.68 141.185Z" fill="#198F51"/>
<path d="M294.526 172.342C285.141 172.342 272.779 171.637 271.997 171.592C271.898 171.586 271.823 171.501 271.828 171.402C271.834 171.303 271.915 171.228 272.018 171.233C272.308 171.25 301.094 172.891 304.56 171.25C307.567 169.827 315.882 164.282 318.209 155.831C318.235 155.736 318.335 155.68 318.43 155.706C318.525 155.732 318.581 155.831 318.555 155.927C316.192 164.508 307.762 170.132 304.714 171.575C303.498 172.151 299.416 172.342 294.526 172.342Z" fill="#102A54"/>
<path d="M270.332 166.974C270.245 166.974 270.169 166.912 270.155 166.823C270.139 166.725 270.205 166.633 270.303 166.617C280.086 165.024 298.967 161.51 300.403 159.615C302.226 157.21 308.451 141.281 308.513 141.12C308.549 141.027 308.654 140.982 308.746 141.018C308.838 141.054 308.884 141.158 308.848 141.251C308.591 141.909 302.542 157.388 300.689 159.832C298.808 162.314 271.521 166.783 270.361 166.972C270.351 166.974 270.341 166.974 270.332 166.974Z" fill="#102A54"/>
<path d="M301.221 158.797C301.126 158.797 301.047 158.722 301.042 158.625C301.036 158.499 300.449 145.97 301.043 141.163C301.055 141.065 301.145 140.996 301.243 141.007C301.342 141.019 301.412 141.109 301.4 141.208C300.809 145.984 301.395 158.482 301.401 158.608C301.405 158.707 301.329 158.792 301.23 158.796C301.227 158.796 301.224 158.797 301.221 158.797Z" fill="#102A54"/>
<path d="M270.857 167.569C270.857 167.569 267.432 166.774 265.942 167.361C265.404 167.573 259.364 172.457 259.364 172.457H260.756H268.288L271.741 170.676L270.857 167.569Z" fill="#FFC0B1"/>
<path d="M264.83 167.145C264.83 167.145 261.978 166.93 261.052 167.145C260.126 167.361 255.384 169.532 255.384 169.801C255.384 170.07 255.865 170.441 256.495 170.293C257.125 170.144 262.46 168.688 262.46 168.688C262.46 168.688 259.422 170.181 258.977 170.812C258.533 171.443 258.125 172.457 258.125 172.457H263.719L265.552 169.801L264.83 167.145Z" fill="#FFC0B1"/>
<path d="M259.599 172.611C259.583 172.611 259.568 172.608 259.553 172.604C259.472 172.578 259.427 172.492 259.452 172.411C259.459 172.388 259.633 171.845 260.172 171.305C260.694 170.782 264.793 167.963 264.967 167.843C265.037 167.795 265.133 167.813 265.181 167.883C265.229 167.953 265.211 168.049 265.141 168.097C265.099 168.126 260.891 171.02 260.389 171.523C259.903 172.01 259.747 172.498 259.745 172.503C259.725 172.569 259.664 172.611 259.599 172.611Z" fill="#102A54"/>
<path d="M316.371 214.38L304.637 263.2H305.612L320.559 214.118L316.371 214.38Z" fill="#102A54"/>
<path d="M332.854 214.38L344.588 263.2H343.613L328.666 214.118L332.854 214.38Z" fill="#102A54"/>
<path d="M306.112 212.399C306.112 212.399 323.34 203.71 331.548 190.713C335.853 183.895 336.356 166.066 339.91 165.792C343.463 165.518 346.743 171.269 347.837 177.568C348.93 183.867 348.93 208.069 341.003 212.399C333.076 216.729 305.664 218.646 303.789 217.825C301.915 217.003 301.289 215.189 306.112 212.399Z" fill="#309A62"/>
<path d="M313.665 177.332H191.772C191.004 177.332 190.381 176.708 190.381 175.938C190.381 175.169 191.004 174.545 191.772 174.545H313.665C314.433 174.545 315.056 175.169 315.056 175.938C315.056 176.708 314.433 177.332 313.665 177.332Z" fill="#309A62"/>
<path d="M198.91 263.2H196.757L213.332 177.332H215.485L198.91 263.2Z" fill="#309A62"/>
<path d="M306.527 263.2H308.68L292.105 177.332H289.952L306.527 263.2Z" fill="#309A62"/>
<path d="M236.104 172.457L222.018 139.525C221.873 139.185 221.54 138.965 221.171 138.965C220.509 138.965 220.063 139.643 220.324 140.252L234.992 174.545H236.104H236.997H269.815C270.39 174.545 270.857 174.077 270.857 173.501C270.857 172.924 270.39 172.457 269.815 172.457H236.104Z" fill="#102A54"/>
</svg>
