<svg width="360" height="360" viewBox="0 0 360 360" fill="none" xmlns="http://www.w3.org/2000/svg">
<mask id="mask0_162_1250" style="mask-type:luminance" maskUnits="userSpaceOnUse" x="0" y="0" width="360" height="360">
<path d="M360 0H0V360H360V0Z" fill="white"/>
</mask>
<g mask="url(#mask0_162_1250)">
<path d="M279.487 275.028C291.862 255.861 303.983 235.593 313.414 214.48C321.906 195.468 334.653 168.337 328.941 147.138C325.315 133.683 315.078 123.173 304.56 114.617C291.648 104.113 277.381 95.4209 263.166 86.7643C248.819 78.0278 234.975 67.1393 219.663 59.5174C195.061 47.2716 165.345 45.1224 138.825 52.8084C115.448 59.5836 96.5563 76.1746 80.8956 94.1976C72.7891 103.527 65.3861 113.44 58.1926 123.481C48.9456 136.39 38.5567 149.101 33.7169 164.478C28.4271 181.286 31.3344 199.529 38.3055 215.407C51.1553 244.673 74.9679 267.012 95.107 291.159C102.151 299.606 109.234 308.092 117.521 315.325C129.524 325.803 144.114 334.026 159.519 338.219C176.597 342.866 196.662 345.718 213.435 338.478C229.767 331.429 243.758 319.748 255.437 306.485C264.205 296.523 272.346 286.089 279.487 275.028Z" fill="#E8FFF3"/>
</g>
<mask id="mask1_162_1250" style="mask-type:luminance" maskUnits="userSpaceOnUse" x="0" y="0" width="360" height="360">
<path d="M360 0H0V360H360V0Z" fill="white"/>
</mask>
<g mask="url(#mask1_162_1250)">
<path d="M262.347 63.8215C263.571 63.8215 264.563 62.8297 264.563 61.6061C264.563 60.3825 263.571 59.3907 262.347 59.3907C261.124 59.3907 260.132 60.3825 260.132 61.6061C260.132 62.8297 261.124 63.8215 262.347 63.8215Z" fill="#D3F4E3"/>
<path d="M47.2501 95.8097C48.4737 95.8097 49.4655 94.8178 49.4655 93.5943C49.4655 92.3707 48.4737 91.3788 47.2501 91.3788C46.0266 91.3788 45.0347 92.3707 45.0347 93.5943C45.0347 94.8178 46.0266 95.8097 47.2501 95.8097Z" fill="#D3F4E3"/>
<path d="M48.0896 306.96C49.3131 306.96 50.305 305.969 50.305 304.745C50.305 303.521 49.3131 302.53 48.0896 302.53C46.866 302.53 45.8741 303.521 45.8741 304.745C45.8741 305.969 46.866 306.96 48.0896 306.96Z" fill="#D3F4E3"/>
<path d="M333.926 294.758C335.15 294.758 336.141 293.766 336.141 292.542C336.141 291.319 335.15 290.327 333.926 290.327C332.702 290.327 331.711 291.319 331.711 292.542C331.711 293.766 332.702 294.758 333.926 294.758Z" fill="#D3F4E3"/>
<path d="M323.256 87.786C324.48 87.786 325.472 86.7941 325.472 85.5706C325.472 84.347 324.48 83.3551 323.256 83.3551C322.033 83.3551 321.041 84.347 321.041 85.5706C321.041 86.7941 322.033 87.786 323.256 87.786Z" fill="#D3F4E3"/>
<path d="M338.358 190.375C339.581 190.375 340.573 189.383 340.573 188.16C340.573 186.936 339.581 185.944 338.358 185.944C337.134 185.944 336.142 186.936 336.142 188.16C336.142 189.383 337.134 190.375 338.358 190.375Z" fill="#D3F4E3"/>
<path d="M255.81 324.994C255.81 326.218 254.817 327.21 253.594 327.21C252.37 327.21 251.379 326.218 251.379 324.994C251.379 323.77 252.371 322.778 253.594 322.778C254.818 322.779 255.81 323.77 255.81 324.994Z" fill="#D3F4E3"/>
<path d="M47.25 262.148C50.4578 262.148 53.0583 259.547 53.0583 256.339C53.0583 253.132 50.4578 250.531 47.25 250.531C44.0422 250.531 41.4418 253.132 41.4418 256.339C41.4418 259.547 44.0422 262.148 47.25 262.148Z" fill="#D3F4E3"/>
<path d="M32.1652 92.7192C32.9023 89.5974 30.9691 86.469 27.8473 85.7319C24.7255 84.9947 21.5972 86.9279 20.86 90.0497C20.1228 93.1716 22.056 96.2999 25.1778 97.037C28.2997 97.7742 31.428 95.841 32.1652 92.7192Z" fill="#D3F4E3"/>
<path d="M255.81 34.506C259.017 34.506 261.618 31.9056 261.618 28.6978C261.618 25.49 259.017 22.8895 255.81 22.8895C252.602 22.8895 250.001 25.49 250.001 28.6978C250.001 31.9056 252.602 34.506 255.81 34.506Z" fill="#D3F4E3"/>
<path d="M328.987 317.915C329.502 314.749 327.353 311.765 324.187 311.249C321.021 310.734 318.037 312.883 317.522 316.049C317.006 319.215 319.155 322.2 322.322 322.715C325.488 323.23 328.472 321.081 328.987 317.915Z" fill="#D3F4E3"/>
<path d="M66.0622 274.201C66.0622 275.425 65.0701 276.417 63.8468 276.417C62.6228 276.417 61.6313 275.424 61.6313 274.201C61.6313 272.977 62.6235 271.985 63.8468 271.985C65.0701 271.986 66.0622 272.978 66.0622 274.201Z" fill="#D3F4E3"/>
<path d="M190.477 116.556C191.606 117.03 192.136 118.329 191.662 119.457C191.187 120.586 189.889 121.116 188.761 120.642C187.633 120.168 187.102 118.869 187.577 117.741C188.05 116.613 189.349 116.083 190.477 116.556Z" fill="#D3F4E3"/>
<path d="M280.977 172.197C282.105 172.671 282.636 173.97 282.162 175.098C281.687 176.226 280.389 176.757 279.261 176.283C278.132 175.809 277.602 174.51 278.076 173.382C278.55 172.254 279.849 171.723 280.977 172.197Z" fill="#D3F4E3"/>
<path d="M106.167 276.591C107.295 277.065 107.826 278.364 107.351 279.492C106.878 280.62 105.579 281.151 104.45 280.676C103.322 280.202 102.792 278.904 103.266 277.775C103.741 276.647 105.039 276.116 106.167 276.591Z" fill="#D3F4E3"/>
<path d="M178.901 68.1703C180.029 68.6441 180.559 69.943 180.085 71.0712C179.61 72.1994 178.312 72.7301 177.184 72.2556C176.056 71.7818 175.525 70.483 176 69.3547C176.473 68.2265 177.772 67.6958 178.901 68.1703Z" fill="#D3F4E3"/>
<path d="M101.236 236.454C102.364 236.928 102.895 238.226 102.42 239.355C101.946 240.483 100.647 241.014 99.5192 240.539C98.3909 240.065 97.8603 238.766 98.3348 237.638C98.8085 236.51 100.107 235.98 101.236 236.454Z" fill="#D3F4E3"/>
<path d="M128.03 86.9278C130.988 88.1705 132.379 91.5746 131.136 94.5324C129.894 97.4902 126.489 98.8805 123.531 97.6378C120.573 96.395 119.183 92.9909 120.426 90.0331C121.668 87.0761 125.073 85.6858 128.03 86.9278Z" fill="#D3F4E3"/>
<path d="M81.368 139.028C84.3258 140.27 85.7161 143.675 84.4734 146.632C83.2306 149.59 79.8265 150.98 76.8687 149.738C73.911 148.495 72.5206 145.091 73.7634 142.133C75.0061 139.175 78.4102 137.785 81.368 139.028Z" fill="#D3F4E3"/>
<path d="M240.631 235.358C243.589 236.601 244.979 240.005 243.737 242.963C242.494 245.92 239.09 247.311 236.132 246.068C233.174 244.826 231.784 241.421 233.027 238.463C234.269 235.506 237.674 234.115 240.631 235.358Z" fill="#D3F4E3"/>
<path d="M246.441 146.298C249.399 147.54 250.789 150.945 249.546 153.903C248.304 156.861 244.899 158.251 241.942 157.008C238.984 155.766 237.594 152.361 238.836 149.404C240.079 146.447 243.484 145.056 246.441 146.298Z" fill="#D3F4E3"/>
<path d="M160.814 100.097C161.943 100.57 162.473 101.869 161.999 102.997C161.525 104.126 160.226 104.656 159.098 104.182C157.97 103.708 157.439 102.409 157.913 101.281C158.387 100.153 159.686 99.6228 160.814 100.097Z" fill="#D3F4E3"/>
<path d="M269.947 250.705C271.075 251.178 271.606 252.477 271.131 253.606C270.657 254.734 269.358 255.264 268.23 254.79C267.102 254.316 266.571 253.017 267.046 251.889C267.52 250.762 268.818 250.231 269.947 250.705Z" fill="#D3F4E3"/>
<path d="M60.2727 149.61C61.4009 150.084 61.9315 151.383 61.4571 152.511C60.9833 153.639 59.6844 154.17 58.5562 153.696C57.4279 153.222 56.8973 151.923 57.3718 150.795C57.8455 149.667 59.1444 149.137 60.2727 149.61Z" fill="#D3F4E3"/>
<path d="M20.7072 157.463C21.9312 157.463 22.9234 156.471 22.9234 155.247C22.9234 154.023 21.9312 153.031 20.7072 153.031C19.4833 153.031 18.4911 154.023 18.4911 155.247C18.4911 156.471 19.4833 157.463 20.7072 157.463Z" fill="#D3F4E3"/>
<path d="M129.545 33.1294C130.769 33.1294 131.761 32.1375 131.761 30.9139C131.761 29.6904 130.769 28.6985 129.545 28.6985C128.322 28.6985 127.33 29.6904 127.33 30.9139C127.33 32.1375 128.322 33.1294 129.545 33.1294Z" fill="#D3F4E3"/>
</g>
<mask id="mask2_162_1250" style="mask-type:luminance" maskUnits="userSpaceOnUse" x="0" y="0" width="360" height="360">
<path d="M360 0H0V360H360V0Z" fill="white"/>
</mask>
<g mask="url(#mask2_162_1250)">
<path d="M328.949 42.0451C326.481 35.0841 321.451 29.4998 314.784 26.3225C308.117 23.1444 300.611 22.7534 293.651 25.2201C286.69 27.6869 281.105 32.7175 277.928 39.3847C274.75 46.0512 274.359 53.5572 276.826 60.5182C279.293 67.4791 284.323 73.0634 290.99 76.2408C297.657 79.4189 305.163 79.8098 312.124 77.3431C319.085 74.8764 324.669 69.8458 327.846 63.1786C331.024 56.5121 331.416 49.0068 328.949 42.0451Z" fill="url(#paint0_linear_162_1250)"/>
<path d="M306.451 39.6677L307.226 38.0412L310.041 39.3826L309.265 41.009C311.465 42.6715 311.822 45.144 310.406 48.1147L310.078 48.803L306.826 47.2529L307.258 46.3464C308.004 44.7826 307.662 43.8905 306.567 43.3692C305.472 42.8472 304.564 43.1438 303.819 44.707C301.672 49.2091 308.291 52.6327 305.309 58.8866C303.894 61.8574 301.702 63.1534 299.025 62.491L298.265 64.0858L295.45 62.7444L296.211 61.1496C293.979 59.472 293.638 56.9686 295.054 53.9978L295.769 52.4974L299.022 54.0475L298.202 55.7676C297.456 57.3307 297.877 58.2214 298.971 58.7434C300.065 59.2654 301.021 59.0292 301.766 57.4668C303.912 52.9639 297.294 49.5403 300.274 43.2864C301.676 40.3459 303.789 39.0514 306.451 39.6677Z" fill="#F49703"/>
<path d="M302.849 75.9679C299.292 75.9679 295.683 75.1968 292.265 73.5674C279.977 67.7095 274.745 52.9474 280.603 40.6591C283.44 34.7062 288.425 30.2148 294.641 28.0123C300.856 25.8098 307.556 26.1583 313.51 28.9966C319.463 31.8341 323.955 36.8201 326.157 43.0358C328.36 49.2509 328.01 55.9526 325.173 61.9056C320.945 70.7738 312.076 75.9679 302.849 75.9679ZM302.904 28.2744C300.315 28.2744 297.719 28.7172 295.206 29.6078C289.416 31.6598 284.773 35.843 282.13 41.3878C276.674 52.8336 281.547 66.5842 292.993 72.0396C304.441 77.495 318.19 72.6221 323.646 61.1762C326.288 55.6315 326.614 49.3898 324.562 43.6003C322.51 37.8108 318.326 33.1668 312.782 30.5237C309.643 29.0282 306.28 28.2744 302.904 28.2744Z" fill="#F49703"/>
</g>
<mask id="mask3_162_1250" style="mask-type:luminance" maskUnits="userSpaceOnUse" x="0" y="0" width="360" height="360">
<path d="M360 0H0V360H360V0Z" fill="white"/>
</mask>
<g mask="url(#mask3_162_1250)">
<path d="M297.95 277.601C291.317 274.353 283.816 273.882 276.829 276.276C269.842 278.669 264.205 283.64 260.958 290.272C257.71 296.905 257.239 304.406 259.632 311.393C262.025 318.38 266.996 324.017 273.629 327.264C280.261 330.512 287.762 330.983 294.749 328.59C301.736 326.197 307.373 321.226 310.621 314.593C313.869 307.961 314.34 300.46 311.946 293.473C309.554 286.487 304.583 280.85 297.95 277.601Z" fill="url(#paint1_linear_162_1250)"/>
<path d="M280.21 291.642L279.626 289.938L282.575 288.928L283.16 290.632C285.895 290.282 287.88 291.798 288.946 294.911L289.193 295.632L285.786 296.8L285.46 295.849C284.899 294.211 284.03 293.813 282.883 294.206C281.736 294.599 281.294 295.446 281.855 297.084C283.472 301.804 290.596 299.62 292.841 306.174C293.907 309.287 293.248 311.746 290.872 313.146L291.445 314.817L288.495 315.827L287.922 314.156C285.154 314.518 283.159 312.969 282.092 309.856L281.553 308.282L284.961 307.115L285.578 308.917C286.139 310.555 287.062 310.899 288.209 310.506C289.356 310.113 289.876 309.276 289.314 307.637C287.698 302.918 280.572 305.102 278.327 298.549C277.273 295.468 277.877 293.064 280.21 291.642Z" fill="#F49703"/>
<path d="M285.811 327.123C275.548 327.123 265.941 320.671 262.434 310.433C258.023 297.555 264.911 283.489 277.789 279.077C290.668 274.668 304.734 281.554 309.146 294.432C311.283 300.671 310.862 307.368 307.961 313.29C305.061 319.213 300.028 323.652 293.79 325.788C291.149 326.694 288.457 327.123 285.811 327.123ZM285.77 279.436C283.303 279.436 280.799 279.837 278.338 280.68C266.343 284.789 259.927 297.89 264.036 309.886C268.144 321.882 281.244 328.297 293.242 324.188C305.237 320.08 311.653 306.978 307.544 294.982C304.278 285.447 295.327 279.436 285.77 279.436Z" fill="#F49703"/>
</g>
<mask id="mask4_162_1250" style="mask-type:luminance" maskUnits="userSpaceOnUse" x="0" y="0" width="360" height="360">
<path d="M360 0H0V360H360V0Z" fill="white"/>
</mask>
<g mask="url(#mask4_162_1250)">
<path d="M48.9527 110.222C44.5276 106.971 39.101 105.639 33.6736 106.469C28.2463 107.3 23.4669 110.195 20.2161 114.62C16.9653 119.046 15.6333 124.472 16.4635 129.9C17.2943 135.328 20.1887 140.106 24.6146 143.357C29.0397 146.607 34.4663 147.94 39.8944 147.109C45.3225 146.278 50.1011 143.384 53.3519 138.958C56.6027 134.533 57.9347 129.106 57.1046 123.679C56.2744 118.251 53.3786 113.472 48.9527 110.222Z" fill="url(#paint2_linear_162_1250)"/>
<path d="M34.1222 118.16L33.9199 116.836L36.2109 116.485L36.414 117.809C38.4617 117.914 39.7138 119.284 40.0838 121.703L40.1695 122.263L37.5221 122.669L37.409 121.93C37.2139 120.657 36.6307 120.252 35.7401 120.388C34.8494 120.524 34.4138 121.085 34.609 122.358C35.1698 126.024 40.6706 125.365 41.4497 130.456C41.8198 132.874 41.0141 134.587 39.091 135.298L39.2897 136.596L36.9986 136.947L36.7992 135.648C34.7263 135.548 33.4706 134.151 33.1006 131.733L32.9134 130.512L35.5608 130.106L35.7746 131.506C35.9698 132.779 36.5998 133.152 37.4904 133.016C38.381 132.88 38.8706 132.335 38.6762 131.062C38.1153 127.397 32.6153 128.056 31.8355 122.965C31.4698 120.572 32.2286 118.893 34.1222 118.16Z" fill="#F49703"/>
<path d="M36.7451 145.148C32.8672 145.148 29.103 143.922 25.9185 141.583C21.9671 138.681 19.3823 134.413 18.6407 129.568C17.8991 124.721 19.0886 119.876 21.9909 115.924C24.8932 111.973 29.1606 109.388 34.0069 108.647C38.8547 107.904 43.6982 109.094 47.6495 111.997C51.6009 114.899 54.1857 119.166 54.9273 124.012C56.4587 134.016 49.5654 143.401 39.561 144.933C38.62 145.077 37.679 145.148 36.7451 145.148ZM36.7941 109.692C35.9373 109.692 35.0697 109.757 34.197 109.89C29.6826 110.58 25.7075 112.988 23.0046 116.669C20.301 120.349 19.193 124.862 19.8842 129.376C21.3098 138.694 30.047 145.114 39.3702 143.689C48.6885 142.263 55.1094 133.52 53.6831 124.203C52.3907 115.758 45.0885 109.692 36.7941 109.692Z" fill="#F49703"/>
</g>
<mask id="mask5_162_1250" style="mask-type:luminance" maskUnits="userSpaceOnUse" x="0" y="0" width="360" height="360">
<path d="M360 0H0V360H360V0Z" fill="white"/>
</mask>
<g mask="url(#mask5_162_1250)">
<path d="M144.621 208.63C143.784 208.63 143.004 208.1 142.726 207.263C136.219 187.695 130.473 161.262 140.05 146.461C144.223 140.011 150.888 136.278 159.86 135.367C170.747 134.263 180.014 137.061 185.95 143.251C192.249 149.82 194.175 158.49 196.037 166.875L196.384 168.436C198.894 179.623 200.714 189.855 201.944 199.72C202.081 200.815 201.304 201.812 200.21 201.949C199.116 202.085 198.118 201.31 197.981 200.215C196.765 190.48 194.969 180.37 192.488 169.311L192.138 167.741C190.395 159.893 188.592 151.777 183.067 146.016C176.573 139.244 167.082 138.649 160.264 139.342C152.45 140.135 146.935 143.174 143.404 148.631C136.506 159.294 137.581 179.132 146.516 206.004C146.864 207.05 146.298 208.18 145.251 208.529C145.043 208.597 144.829 208.63 144.621 208.63Z" fill="white"/>
</g>
<mask id="mask6_162_1250" style="mask-type:luminance" maskUnits="userSpaceOnUse" x="0" y="0" width="360" height="360">
<path d="M360 0H0V360H360V0Z" fill="white"/>
</mask>
<g mask="url(#mask6_162_1250)">
<path d="M241.653 208.865C241.757 207.72 241.87 206.778 241.879 206.346C241.894 205.577 241.911 204.806 241.976 204.039C242.69 195.703 245.26 187.668 248.45 179.977C249.128 178.342 251.399 178.492 252.659 180.264C253.507 181.455 253.701 182.858 253.464 184.239C251.654 194.736 248.931 204.978 244.703 214.782C244.487 215.282 244.382 216.289 243.774 216.459C240.581 217.358 241.51 210.437 241.653 208.865Z" fill="#D32424"/>
<path d="M191.136 179.855C191.41 177.615 192.417 175.435 192.612 173.228C192.779 171.341 192.675 169.587 193.175 167.697C193.375 166.939 193.638 166.183 194.101 165.55C194.754 164.658 195.744 164.086 196.62 163.41C197.582 162.67 199.277 160.965 197.658 160.118C195.44 158.959 193.337 157.622 191.431 155.996C189.247 154.132 187.52 151.915 186.544 149.191C186.307 148.53 186.231 147.773 186.247 147.064C186.323 143.815 187.487 143.107 190.311 144.578C196.944 148.033 203.413 151.832 210.6 154.103C212.607 154.737 214.595 155.451 216.633 155.963C220.468 156.927 222.736 159.848 225.113 162.608C226.778 164.542 228.138 166.717 229.337 168.97C229.925 170.073 230.756 170.764 231.893 171.196C239.768 174.182 247.638 177.179 255.507 180.182C256.176 180.438 256.85 180.711 257.465 181.071C258.017 181.395 258.273 181.845 258.037 182.604C256.324 188.109 255.25 193.766 254.118 199.409C253.66 201.689 253.206 203.986 252.125 206.074C250.87 208.496 249.674 208.715 247.574 206.999C242.941 203.214 238.292 199.447 233.69 195.624C232.61 194.726 231.587 194.497 230.198 194.844C225.465 196.027 220.653 196.901 215.776 197.04C210.231 197.196 204.453 196.04 199.181 194.368C197.591 193.864 197.099 192.937 196.566 191.423C195.751 189.109 195.108 187.466 193.609 185.499C192.447 183.97 190.883 181.927 191.136 179.855Z" fill="url(#paint3_linear_162_1250)"/>
<path d="M199.96 201.964C198.967 201.964 198.107 201.225 197.981 200.214C196.765 190.478 194.969 180.369 192.488 169.309L192.138 167.74C190.395 159.891 188.592 151.776 183.067 146.015C176.573 139.243 167.082 138.648 160.264 139.34C159.164 139.443 158.187 138.653 158.075 137.555C157.964 136.458 158.763 135.478 159.86 135.366C170.749 134.26 180.014 137.061 185.95 143.25C192.249 149.819 194.175 158.489 196.037 166.874L196.384 168.435C198.894 179.622 200.714 189.855 201.944 199.719C202.081 200.814 201.304 201.812 200.21 201.948C200.126 201.959 200.043 201.964 199.96 201.964Z" fill="white"/>
<path d="M176.793 167.712C177.258 165.844 178.091 164.172 179.65 162.981C183.895 159.738 188.435 157.019 193.623 155.561C194.825 155.223 196.085 154.948 197.292 155.806C198.053 156.347 198.392 156.912 198.297 157.876C198.062 160.23 196.887 162.102 195.207 163.585C191.771 166.622 188.735 170.102 185.018 172.822C183.948 173.604 182.835 174.347 181.667 174.968C180.173 175.763 179.027 175.456 178.108 174.015C176.885 172.102 176.137 170.045 176.793 167.712Z" fill="url(#paint4_linear_162_1250)"/>
<path d="M178.322 175.204C178.492 174.136 179.119 173.399 179.999 172.837C184.208 170.149 188.667 167.912 193.082 165.596C194.216 165.002 195.456 164.639 196.746 164.596C198.474 164.539 199.926 165.142 200.803 166.698C201.647 168.195 200.948 169.517 200.058 170.687C198.601 172.601 196.739 174.096 194.748 175.426C191.573 177.548 188.312 179.554 185.221 181.793C182.122 184.037 179.461 182.146 178.381 178.663C178.038 177.553 178.094 176.36 178.322 175.204Z" fill="url(#paint5_linear_162_1250)"/>
<path d="M182.336 184.533C182.575 183.312 183.18 182.352 184.149 181.615C188.448 178.344 193.159 175.756 197.981 173.364C198.966 172.876 200.017 172.472 201.174 172.951C203.405 173.876 204.081 175.661 202.956 177.954C201.221 181.49 198.271 183.963 195.315 186.387C193.304 188.036 191.165 189.535 189.027 191.02C187.369 192.172 186.079 192.088 184.497 190.805C182.483 189.171 182.059 186.96 182.336 184.533Z" fill="url(#paint6_linear_162_1250)"/>
<path d="M192.39 194.38C191.201 193.796 189.983 193.187 189.159 192.166C187.781 190.47 189.342 189.079 190.754 188.031C194.399 185.325 198.151 182.778 201.961 180.314C202.614 179.892 203.275 179.495 204.059 179.353C205.009 179.183 205.831 179.404 206.443 180.163C207.052 180.92 207.169 181.794 206.724 182.653C205.379 185.245 203.464 187.5 201.486 189.626C199.798 191.439 197.955 193.963 195.777 195.17C194.622 195.81 193.431 194.891 192.39 194.38Z" fill="url(#paint7_linear_162_1250)"/>
<path d="M361.215 197.82C360.54 197.812 359.904 197.793 359.313 197.758C332.062 196.151 304.962 191.128 278.326 185.316C269.894 183.475 261.451 181.642 253.221 178.988C251.916 178.568 251.301 179.077 251.197 180.33C251.115 181.323 251.208 182.334 251.091 183.32C249.841 193.92 247.499 204.253 243.386 214.137C243.212 214.556 242.348 215.874 242.605 216.291C242.705 216.453 242.885 216.545 243.054 216.634C243.506 216.87 243.919 217.105 244.387 217.346C253.747 222.157 263.173 226.84 272.475 231.759C303.569 248.202 334.695 260.89 368.095 271.67C380.121 275.552 379.692 269.351 381.924 260.807C384.921 249.335 390.46 238.784 392.903 226.986C394.194 220.752 396.677 209.591 392.632 203.83C387.076 195.917 370.52 197.929 361.215 197.82Z" fill="url(#paint8_linear_162_1250)"/>
<path d="M203.346 162.019C203.319 162.019 203.29 162.016 203.262 162.009L197.989 160.626C197.811 160.579 197.705 160.397 197.752 160.219C197.799 160.042 197.978 159.935 198.158 159.982L203.431 161.365C203.609 161.412 203.715 161.594 203.668 161.771C203.629 161.92 203.493 162.019 203.346 162.019Z" fill="#F4A076"/>
<path d="M231.411 178.307C231.376 178.307 231.34 178.302 231.306 178.29C231.132 178.232 231.037 178.044 231.096 177.869C231.905 175.437 230.813 172.753 229.625 170.212C229.548 170.045 229.62 169.847 229.787 169.769C229.951 169.692 230.151 169.763 230.229 169.929C231.474 172.593 232.614 175.415 231.727 178.079C231.68 178.219 231.55 178.307 231.411 178.307Z" fill="#F4A076"/>
</g>
<mask id="mask7_162_1250" style="mask-type:luminance" maskUnits="userSpaceOnUse" x="0" y="0" width="360" height="360">
<path d="M360 0H0V360H360V0Z" fill="white"/>
</mask>
<g mask="url(#mask7_162_1250)">
<path d="M115.096 215.93L116.684 334.542L219.536 325.554L201.108 200.93L115.096 215.93Z" fill="url(#paint9_linear_162_1250)"/>
<path d="M128.753 205.502L115.096 215.93L201.108 200.93L212.879 191.284L128.753 205.502Z" fill="#2A2A2A"/>
<path d="M212.879 191.284L238.251 304.818L227.524 306.249L219.536 325.554L201.108 200.93L212.879 191.284Z" fill="#D32424"/>
<path d="M186.96 209.511C188.463 209.469 189.817 210.912 189.829 212.569C189.841 214.226 188.179 215.928 186.546 215.93C185.027 215.932 183.664 214.375 183.553 212.51C183.47 211.104 185.225 209.559 186.96 209.511Z" fill="#FE4845"/>
<path d="M137.2 215.931C138.703 215.889 140.056 217.333 140.069 218.989C140.081 220.647 138.419 222.348 136.786 222.35C135.267 222.353 133.904 220.795 133.793 218.93C133.71 217.525 135.465 215.979 137.2 215.931Z" fill="#FE4845"/>
</g>
<mask id="mask8_162_1250" style="mask-type:luminance" maskUnits="userSpaceOnUse" x="0" y="0" width="360" height="360">
<path d="M360 0H0V360H360V0Z" fill="white"/>
</mask>
<g mask="url(#mask8_162_1250)">
<path d="M229.391 46.8511L241.005 49.6188L238.331 89.4506L229.391 46.8511Z" fill="#64BCD0"/>
</g>
<mask id="mask9_162_1250" style="mask-type:luminance" maskUnits="userSpaceOnUse" x="0" y="0" width="360" height="360">
<path d="M360 0H0V360H360V0Z" fill="white"/>
</mask>
<g mask="url(#mask9_162_1250)">
<path d="M242.512 103.707L215.874 116.028L185.252 50.2848L227.861 37.1138L242.512 103.707Z" fill="#B7DCE2"/>
</g>
<mask id="mask10_162_1250" style="mask-type:luminance" maskUnits="userSpaceOnUse" x="0" y="0" width="360" height="360">
<path d="M360 0H0V360H360V0Z" fill="white"/>
</mask>
<g mask="url(#mask10_162_1250)">
<path d="M127.803 144.844C128.099 145.31 128.941 144.941 129.534 144.832C130.398 144.674 131.261 144.514 132.123 144.341C137.387 143.286 142.646 142.224 148.025 141.9C150.05 141.779 152.036 141.936 153.92 142.626C155.864 143.337 157.63 144.717 158.36 146.708C158.749 147.768 158.964 148.368 159.522 149.345C160.108 150.374 160.265 151.63 160.103 152.791C159.869 154.471 159.059 156.007 158.262 157.504C156.209 161.359 154.156 165.214 152.104 169.07C149.75 173.49 147.058 178.23 142.438 180.165C141.062 180.742 139.585 181.031 138.12 181.317C132.016 182.508 125.903 183.699 119.723 184.422C114.535 185.027 108.611 184.674 104.163 187.856C98.8444 191.66 93.5056 195.436 88.1755 199.223C87.724 199.544 87.2884 199.889 86.819 200.18C84.4279 201.658 82.4378 200.925 81.7358 198.251C80.3253 192.881 79.6744 187.379 78.9998 181.884C78.3511 176.602 78.1977 171.287 77.8391 165.989C77.6793 163.629 78.5433 163.018 80.1849 162.539C86.1969 160.782 90.1324 156.55 94.2184 152.034C101.422 144.073 108.641 135.956 117.467 129.738C120.443 127.64 123.134 127.522 126.654 127.2C134.348 126.495 142.217 126.892 149.931 127.002C150.4 127.008 150.887 127.019 151.307 127.228C152.94 128.037 152.097 130.598 151.471 131.737C149.113 136.034 145.595 139.074 140.687 140.176C137.231 140.952 133.74 141.576 130.213 141.911C129.082 142.018 127.707 143.15 127.696 144.359C127.693 144.577 127.732 144.734 127.803 144.844Z" fill="url(#paint10_linear_162_1250)"/>
</g>
<mask id="mask11_162_1250" style="mask-type:luminance" maskUnits="userSpaceOnUse" x="0" y="0" width="360" height="360">
<path d="M360 0H0V360H360V0Z" fill="white"/>
</mask>
<g mask="url(#mask11_162_1250)">
<path d="M137.015 219.042C136.025 219.042 135.165 218.305 135.037 217.297L131.092 186.294C129.267 171.959 129.167 155.786 142.25 144.523C152.607 135.609 166.856 135.176 176.131 143.496C182.827 149.503 183.969 157.843 185.073 165.91L185.111 166.18C186.046 172.997 186.289 179.953 186.525 186.681C186.795 194.399 187.075 202.378 188.414 210.01C188.605 211.096 187.878 212.131 186.792 212.322C185.705 212.514 184.67 211.787 184.479 210.7C183.093 202.794 182.809 194.674 182.533 186.821C182.301 180.192 182.061 173.339 181.153 166.722L181.116 166.452C180.063 158.761 179.068 151.497 173.464 146.47C164.671 138.581 152.417 141.042 144.857 147.55C133.238 157.552 133.279 171.84 135.055 185.79L139 216.791C139.139 217.886 138.365 218.886 137.271 219.025C137.185 219.036 137.1 219.042 137.015 219.042Z" fill="white"/>
</g>
<mask id="mask12_162_1250" style="mask-type:luminance" maskUnits="userSpaceOnUse" x="0" y="0" width="360" height="360">
<path d="M360 0H0V360H360V0Z" fill="white"/>
</mask>
<g mask="url(#mask12_162_1250)">
<path d="M162.396 160.687C162.371 164.58 158.284 168.037 155.007 166.584C150.323 164.508 145.779 161.553 142.682 157.329C140.936 154.95 137.134 147.77 142.936 147.812C149.309 147.857 154.459 152.106 159.54 155.396C161.451 156.633 162.434 158.391 162.396 160.687Z" fill="url(#paint11_linear_162_1250)"/>
</g>
<mask id="mask13_162_1250" style="mask-type:luminance" maskUnits="userSpaceOnUse" x="0" y="0" width="360" height="360">
<path d="M360 0H0V360H360V0Z" fill="white"/>
</mask>
<g mask="url(#mask13_162_1250)">
<path d="M165.866 149.09C165.799 150.404 164.946 152.312 163.483 153.895C160.992 156.59 157.964 154.69 155.54 153.055C152.929 151.294 150.482 149.293 148.237 147.084C146.399 145.277 144.091 142.739 145.565 140.019C146.323 138.619 147.561 138.077 149.123 138.18C153.742 138.485 159.22 140.524 163.066 143.07C164.89 144.278 165.949 145.947 165.866 149.09Z" fill="url(#paint12_linear_162_1250)"/>
</g>
<mask id="mask14_162_1250" style="mask-type:luminance" maskUnits="userSpaceOnUse" x="0" y="0" width="360" height="360">
<path d="M360 0H0V360H360V0Z" fill="white"/>
</mask>
<g mask="url(#mask14_162_1250)">
<path d="M147.829 174.815C150.653 178.235 145.747 180.549 142.997 181.31C140.454 182.013 138.294 180.426 136.721 178.585C135.302 176.925 133.308 174.428 132.631 172.351C132.038 170.531 131.519 167.571 133.794 166.999C136.042 166.434 138.214 167.518 139.967 168.804C142.047 170.329 144.134 171.844 146.22 173.361C146.774 173.766 147.364 174.252 147.829 174.815Z" fill="url(#paint13_linear_162_1250)"/>
</g>
<mask id="mask15_162_1250" style="mask-type:luminance" maskUnits="userSpaceOnUse" x="0" y="0" width="360" height="360">
<path d="M360 0H0V360H360V0Z" fill="white"/>
</mask>
<g mask="url(#mask15_162_1250)">
<path d="M75.0154 161.61C74.9816 159.718 75.7045 159.169 77.2755 158.95C79.3995 158.655 81.4832 158.067 83.5834 157.602C84.9881 157.29 86.3857 156.946 87.7961 156.661C90.4853 156.119 90.8813 156.362 91.4012 159.031C92.4819 164.58 93.9536 170.026 95.6427 175.415C97.2512 180.547 99.3241 185.502 101.442 190.439C102.85 193.718 102.794 193.848 99.769 195.594C96.1244 197.697 92.3494 199.575 88.8344 201.9C87.6853 202.661 87.3598 201.805 87.0236 201.038C85.7089 198.041 84.6886 194.932 83.7562 191.804C80.9425 182.361 78.2014 172.896 75.4417 163.437C75.2408 162.75 75.1141 162.04 75.0154 161.61Z" fill="#B7DCE2"/>
</g>
<mask id="mask16_162_1250" style="mask-type:luminance" maskUnits="userSpaceOnUse" x="0" y="0" width="360" height="360">
<path d="M360 0H0V360H360V0Z" fill="white"/>
</mask>
<g mask="url(#mask16_162_1250)">
<path d="M265.279 106.035C264.725 113.261 263.847 120.444 262.116 127.498C261.062 131.795 260.253 136.155 258.9 140.377C258.496 141.638 258.188 142.957 257.268 143.976C256.355 144.989 255.576 144.912 254.903 143.734C254.288 142.658 254.037 141.45 253.938 140.234C253 128.775 252.714 117.368 256.849 106.343C257.532 104.524 258.334 102.764 259.427 101.148C260.001 100.298 260.736 99.6394 261.715 99.3038C263.496 98.6933 264.445 99.2534 264.883 101.069C265.278 102.708 265.227 104.365 265.279 106.035Z" fill="#D32424"/>
</g>
<mask id="mask17_162_1250" style="mask-type:luminance" maskUnits="userSpaceOnUse" x="0" y="0" width="360" height="360">
<path d="M360 0H0V360H360V0Z" fill="white"/>
</mask>
<g mask="url(#mask17_162_1250)">
<path d="M139.278 157.728C144.642 157.856 149.728 162.399 153.382 165.947C154.961 167.479 156.41 169.681 155.819 171.978C154.935 175.412 150.304 177.371 147.303 175.344C142.27 171.944 137.683 168.011 135.884 161.816C135.161 159.326 136.446 157.66 139.278 157.728Z" fill="url(#paint14_linear_162_1250)"/>
</g>
<mask id="mask18_162_1250" style="mask-type:luminance" maskUnits="userSpaceOnUse" x="0" y="0" width="360" height="360">
<path d="M360 0H0V360H360V0Z" fill="white"/>
</mask>
<g mask="url(#mask18_162_1250)">
<path d="M93.4863 188.075C94.9889 188.033 96.3425 189.477 96.3548 191.133C96.367 192.791 94.7052 194.492 93.0723 194.494C91.5531 194.497 90.1901 192.939 90.0792 191.074C89.9964 189.668 91.7511 188.123 93.4863 188.075Z" fill="#2A2A2A"/>
</g>
<mask id="mask19_162_1250" style="mask-type:luminance" maskUnits="userSpaceOnUse" x="0" y="0" width="360" height="360">
<path d="M360 0H0V360H360V0Z" fill="white"/>
</mask>
<g mask="url(#mask19_162_1250)">
<path d="M276.908 109.066C275.996 115.569 274.463 122.404 270.669 128.515C269.238 130.819 267.618 133.005 266.103 135.257C265.514 136.133 264.817 136.339 263.829 135.913C255.738 132.425 247.796 128.64 240.041 124.448C237.5 123.075 235.097 121.506 232.638 120.012C228.332 117.396 226.752 113.302 226.125 108.623C225.822 106.365 225.67 104.088 225.871 101.827C226.038 99.9468 225.239 99.0562 223.538 98.4312C219.536 96.9602 215.527 95.459 211.85 93.2602C208.773 91.4198 205.552 89.7005 203.782 86.3287C203.134 85.0968 202.434 83.8519 203.399 82.4508C203.759 81.9288 203.319 81.6617 203.048 81.3247C202.213 80.2915 201.365 79.267 200.578 78.1978C199.513 76.7527 199.46 74.6842 200.533 73.2463C201.033 72.5753 201.18 71.9446 201.185 71.1281C201.205 68.2258 202.539 66.8801 205.363 66.87C205.968 66.8678 206.078 66.6137 206.242 66.1507C206.644 65.0102 207.564 64.6006 208.706 64.5286C210.221 64.4328 211.694 64.6769 213.141 65.0606C220.532 67.0219 227.794 69.4044 235.097 71.6551C237.573 72.4183 239.713 73.5732 241.849 74.8728C244.821 76.6807 246.585 79.403 247.773 82.6272C249.401 87.0451 251.208 91.3953 253.26 95.6397C253.706 96.5628 254.341 96.9811 255.372 97.2353C261.497 98.7466 267.531 100.627 273.771 101.66C274.661 101.807 275.206 102.251 275.641 103.081C276.546 104.809 276.796 106.641 276.908 109.066Z" fill="url(#paint15_linear_162_1250)"/>
</g>
<mask id="mask20_162_1250" style="mask-type:luminance" maskUnits="userSpaceOnUse" x="0" y="0" width="360" height="360">
<path d="M360 0H0V360H360V0Z" fill="white"/>
</mask>
<g mask="url(#mask20_162_1250)">
<path d="M359.78 160.361C354.324 163.164 348.548 165.452 342.355 167.667C338.216 169.147 334.274 169.265 330.083 168.068C314.541 163.629 298.904 159.535 283.528 154.503C274.682 151.607 265.925 148.484 257.149 145.4C256.249 145.084 255.914 144.816 256.314 143.757C258.665 137.521 260.153 131.036 261.312 124.5C262.355 118.62 263.139 112.686 263.611 106.724C263.763 104.795 263.718 102.846 263.689 100.907C263.67 99.5861 263.945 99.077 265.511 99.3024C282.732 101.78 299.691 105.585 316.686 109.218C320.473 110.027 324.308 110.611 328.114 111.337C329.049 111.516 329.695 111.04 330.411 110.616C339.005 105.532 347.382 99.7524 355.432 93.8455C362.521 88.6428 366.35 85.9025 375.862 88.3908C379.876 89.4413 383.981 90.8942 386.844 93.8981C391.34 98.617 391.661 105.871 391.113 112.365C390.616 118.242 389.624 124.077 388.152 129.788C387.253 133.273 386.16 136.747 384.335 139.849C382.532 142.914 380.061 145.53 377.476 147.972C371.907 153.23 366.057 157.136 359.78 160.361Z" fill="url(#paint16_linear_162_1250)"/>
</g>
<mask id="mask21_162_1250" style="mask-type:luminance" maskUnits="userSpaceOnUse" x="0" y="0" width="360" height="360">
<path d="M360 0H0V360H360V0Z" fill="white"/>
</mask>
<g mask="url(#mask21_162_1250)">
<path d="M0.486004 181.005C4.09393 179.734 7.66153 178.6 10.9282 177.46C25.2396 172.461 39.551 167.461 53.8625 162.463C58.8816 160.71 63.918 159.007 69.1229 157.879C70.3087 157.622 71.5306 157.508 72.7423 157.396C75.6583 157.125 78.0041 158.782 79.452 162.218C80.9899 165.867 81.4378 169.804 82.3745 173.614C84.3566 181.675 86.4634 189.708 88.6514 197.717C89.3837 200.396 89.4204 203.103 88.5967 205.579C87.7608 208.092 85.6145 209.868 83.309 211.275C76.6375 215.346 69.8875 219.295 63.3175 223.522C51.3454 231.225 39.1565 238.584 27.005 245.997C17.8538 251.581 9.38808 258.664 -0.957596 262.025C-8.11944 264.35 -15.7687 263.961 -21.7822 259.134C-26.4442 255.393 -28.2931 249.195 -29.3328 243.308C-30.978 233.995 -31.2322 224.438 -30.0845 215.05C-29.183 207.679 -27.2786 200.123 -22.5022 194.436C-16.979 187.86 -8.13168 184.041 0.486004 181.005Z" fill="url(#paint17_linear_162_1250)"/>
</g>
<mask id="mask22_162_1250" style="mask-type:luminance" maskUnits="userSpaceOnUse" x="0" y="0" width="360" height="360">
<path d="M360 0H0V360H360V0Z" fill="white"/>
</mask>
<g mask="url(#mask22_162_1250)">
<path d="M231.594 78.3972C231.548 78.3972 231.502 78.3878 231.457 78.3684C227.785 76.7174 224.016 75.1133 220.372 73.5631C219.127 73.0332 217.883 72.504 216.64 71.9719C215.568 71.5126 214.502 71.0258 213.436 70.5384C210.958 69.4051 208.396 68.2337 205.767 67.4424C205.59 67.3891 205.49 67.2034 205.543 67.0277C205.596 66.8527 205.782 66.7526 205.957 66.8045C208.631 67.6087 211.215 68.7902 213.712 69.9322C214.774 70.4174 215.834 70.9027 216.901 71.3599C218.144 71.892 219.388 72.4212 220.632 72.9504C224.28 74.5027 228.052 76.1076 231.73 77.7614C231.898 77.837 231.972 78.0336 231.897 78.2014C231.842 78.3238 231.72 78.3972 231.594 78.3972Z" fill="#F4A076"/>
</g>
<mask id="mask23_162_1250" style="mask-type:luminance" maskUnits="userSpaceOnUse" x="0" y="0" width="360" height="360">
<path d="M360 0H0V360H360V0Z" fill="white"/>
</mask>
<g mask="url(#mask23_162_1250)">
<path d="M227.861 83.111C227.836 83.111 227.81 83.1082 227.785 83.1024C223.649 82.1347 219.722 80.4319 215.923 78.7846L214.762 78.282C213.03 77.5346 211.293 76.7966 209.557 76.0586C206.739 74.8606 203.824 73.6222 200.974 72.3614C200.805 72.2866 200.729 72.09 200.804 71.9222C200.879 71.7538 201.076 71.6782 201.242 71.7523C204.088 73.0109 207.001 74.2486 209.817 75.4459C211.555 76.1846 213.292 76.9234 215.026 77.6714L216.187 78.174C219.959 79.8091 223.859 81.5004 227.936 82.4544C228.115 82.4962 228.226 82.6754 228.185 82.8547C228.149 83.0074 228.012 83.111 227.861 83.111Z" fill="#F4A076"/>
</g>
<mask id="mask24_162_1250" style="mask-type:luminance" maskUnits="userSpaceOnUse" x="0" y="0" width="360" height="360">
<path d="M360 0H0V360H360V0Z" fill="white"/>
</mask>
<g mask="url(#mask24_162_1250)">
<path d="M225.862 90.8834C225.273 90.8273 224.953 90.6322 224.616 90.427C224.461 90.3326 224.296 90.2311 224.086 90.1339C219.809 88.1546 215.377 86.4353 211.092 84.7728C208.747 83.8634 206.323 82.9224 203.941 81.9461C203.771 81.8762 203.689 81.6818 203.759 81.5119C203.828 81.342 204.025 81.2606 204.193 81.3298C206.57 82.3039 208.992 83.2428 211.333 84.1514C215.628 85.8175 220.069 87.5405 224.366 89.5291C224.603 89.6386 224.79 89.7523 224.963 89.8574C225.269 90.0439 225.49 90.1786 225.894 90.2189C226.078 90.2369 226.211 90.3996 226.193 90.5825C226.175 90.7553 226.03 90.8834 225.862 90.8834Z" fill="#F4A076"/>
</g>
<mask id="mask25_162_1250" style="mask-type:luminance" maskUnits="userSpaceOnUse" x="0" y="0" width="360" height="360">
<path d="M360 0H0V360H360V0Z" fill="white"/>
</mask>
<g mask="url(#mask25_162_1250)">
<path d="M254.856 102.534C254.706 102.534 254.571 102.432 254.534 102.281L253.121 96.5988C253.043 96.2791 253.238 96.1358 253.3 96.1006C253.427 96.0264 253.621 96.0502 253.729 96.1481C253.853 96.2618 253.89 96.4433 253.819 96.588C253.809 96.6067 255.179 102.12 255.179 102.12C255.225 102.299 255.115 102.48 254.937 102.524C254.91 102.53 254.883 102.534 254.856 102.534Z" fill="#F4A076"/>
</g>
<mask id="mask26_162_1250" style="mask-type:luminance" maskUnits="userSpaceOnUse" x="0" y="0" width="360" height="360">
<path d="M360 0H0V360H360V0Z" fill="white"/>
</mask>
<g mask="url(#mask26_162_1250)">
<path d="M343.608 115.235C343.565 115.235 343.521 115.226 343.478 115.209C338.497 113.112 333.012 112.001 327.604 112.031C327.419 112.031 327.27 111.882 327.27 111.699C327.269 111.515 327.417 111.365 327.601 111.365C333.08 111.365 338.673 112.463 343.737 114.594C343.906 114.666 343.986 114.861 343.914 115.03C343.861 115.158 343.738 115.235 343.608 115.235Z" fill="#FE4845"/>
</g>
<mask id="mask27_162_1250" style="mask-type:luminance" maskUnits="userSpaceOnUse" x="0" y="0" width="360" height="360">
<path d="M360 0H0V360H360V0Z" fill="white"/>
</mask>
<g mask="url(#mask27_162_1250)">
<path d="M116.009 160.013C115.903 160.013 115.798 159.962 115.734 159.869C115.631 159.717 115.669 159.51 115.82 159.406C118.737 157.398 121.322 155.542 123.406 153.136C125.777 150.4 127.075 147.283 127.063 144.361C127.062 144.177 127.21 144.027 127.394 144.027C127.578 144.027 127.727 144.175 127.728 144.358C127.741 147.442 126.384 150.714 123.909 153.572C121.773 156.037 119.153 157.92 116.197 159.954C116.139 159.994 116.073 160.013 116.009 160.013Z" fill="#F4A076"/>
</g>
<mask id="mask28_162_1250" style="mask-type:luminance" maskUnits="userSpaceOnUse" x="0" y="0" width="360" height="360">
<path d="M360 0H0V360H360V0Z" fill="white"/>
</mask>
<g mask="url(#mask28_162_1250)">
<path d="M117.947 38.8778C110.128 31.0586 99.7315 26.7523 88.6737 26.7523C77.6159 26.7523 67.2199 31.0586 59.4007 38.8778C51.5807 46.6963 47.2751 57.0931 47.2751 68.1509C47.2751 79.2086 51.5815 89.6047 59.4007 97.4239C67.2199 105.243 77.6159 109.549 88.6737 109.549C99.7315 109.549 110.128 105.243 117.947 97.4239C125.766 89.6047 130.072 79.2086 130.072 68.1509C130.072 57.0931 125.766 46.6963 117.947 38.8778Z" fill="url(#paint18_linear_162_1250)"/>
<path d="M86.0061 50.1567V47.4595H90.6738V50.1567C94.7195 50.9861 96.7938 54.0987 96.7938 59.0256V60.1668H91.3996V58.6627C91.3996 56.0693 90.3621 55.0836 88.547 55.0836C86.7318 55.0836 85.6943 56.0693 85.6943 58.6627C85.6943 66.1313 96.8457 66.4942 96.8457 76.8679C96.8457 81.7956 94.7195 84.9593 90.6738 85.7895V88.4347H86.0061V85.7895C81.9086 84.9593 79.8342 81.7956 79.8342 76.8679V74.3782H85.2285V77.2308C85.2285 79.8243 86.3697 80.7574 88.1848 80.7574C89.9999 80.7574 91.1411 79.8243 91.1411 77.2308C91.1411 69.7623 79.9898 69.3994 79.9898 59.0256C79.9898 54.1505 82.0122 51.0387 86.0061 50.1567Z" fill="#F49703"/>
<path d="M88.673 105.114C68.2912 105.114 51.7096 88.5326 51.7096 68.1502C51.7096 47.7684 68.2912 31.1868 88.673 31.1868C109.055 31.1868 125.637 47.7684 125.637 68.1502C125.637 88.5326 109.055 105.114 88.673 105.114ZM88.673 33.7212C69.6887 33.7212 54.2433 49.1666 54.2433 68.1509C54.2433 87.1358 69.6887 102.581 88.673 102.581C107.658 102.581 123.103 87.1351 123.103 68.1509C123.103 49.1659 107.658 33.7212 88.673 33.7212Z" fill="#F49703"/>
</g>
<mask id="mask29_162_1250" style="mask-type:luminance" maskUnits="userSpaceOnUse" x="0" y="0" width="360" height="360">
<path d="M360 0H0V360H360V0Z" fill="white"/>
</mask>
<g mask="url(#mask29_162_1250)">
<path d="M148.229 297.858C145.857 297.858 143.553 297.147 141.567 295.232C139.547 293.283 138.242 290.865 136.98 288.528C136.418 287.487 135.838 286.411 135.211 285.415C134.893 284.91 134.563 284.408 134.232 283.903C132.257 280.894 130.214 277.783 130.432 273.784C130.617 270.361 132.042 267.337 134.444 265.27C140.697 259.885 148.136 255.573 154.112 252.107C155.744 251.162 157.414 250.14 159.029 249.15C163.799 246.231 168.731 243.212 173.982 241.294C179.526 239.27 184.124 240.637 187.647 245.355C190.096 248.637 192.372 252.496 194.229 256.517C194.556 257.222 194.957 257.913 195.381 258.645C196.218 260.088 197.084 261.581 197.418 263.305C197.46 263.526 197.493 263.748 197.518 263.975C198.07 269.25 192.942 273.144 190.187 275.235C185.672 278.661 180.666 281.953 174.429 285.597C173.046 286.405 171.671 287.225 170.295 288.044C167.174 289.904 163.946 291.828 160.675 293.581C157.406 295.332 152.697 297.858 148.229 297.858ZM178.661 242.392C177.414 242.392 176.085 242.652 174.667 243.169C169.604 245.018 164.758 247.985 160.073 250.853C158.447 251.848 156.766 252.878 155.115 253.835C149.209 257.259 141.859 261.52 135.747 266.782C133.762 268.492 132.582 271.017 132.426 273.892C132.244 277.235 134.021 279.942 135.902 282.807C136.24 283.321 136.578 283.835 136.902 284.352C137.565 285.404 138.162 286.51 138.738 287.578C139.983 289.884 141.158 292.062 142.955 293.795C147.272 297.96 153.611 295.103 159.733 291.82C162.963 290.088 166.172 288.176 169.274 286.327C170.654 285.504 172.035 284.682 173.423 283.871C179.589 280.269 184.532 277.019 188.98 273.643C192.609 270.888 195.915 267.836 195.532 264.18C195.515 264.011 195.489 263.845 195.458 263.683C195.188 262.29 194.443 261.006 193.654 259.647C193.225 258.908 192.781 258.144 192.417 257.353C190.617 253.457 188.414 249.72 186.047 246.549C183.973 243.771 181.534 242.392 178.661 242.392Z" fill="white"/>
</g>
<mask id="mask30_162_1250" style="mask-type:luminance" maskUnits="userSpaceOnUse" x="0" y="0" width="360" height="360">
<path d="M360 0H0V360H360V0Z" fill="white"/>
</mask>
<g mask="url(#mask30_162_1250)">
<path d="M227.523 306.582C227.366 306.582 227.227 306.471 227.197 306.311L206.666 197.751C206.631 197.57 206.75 197.396 206.931 197.362C207.107 197.327 207.285 197.446 207.32 197.627L227.851 306.187C227.886 306.368 227.767 306.542 227.586 306.576C227.565 306.58 227.544 306.582 227.523 306.582Z" fill="#D32424"/>
</g>
<defs>
<linearGradient id="paint0_linear_162_1250" x1="296.682" y1="29.0706" x2="307.238" y2="66.857" gradientUnits="userSpaceOnUse">
<stop stop-color="#FFDA27"/>
<stop offset="1" stop-color="#FAAA0E"/>
</linearGradient>
<linearGradient id="paint1_linear_162_1250" x1="265.816" y1="290.905" x2="299.795" y2="310.518" gradientUnits="userSpaceOnUse">
<stop stop-color="#FFDA27"/>
<stop offset="1" stop-color="#FAAA0E"/>
</linearGradient>
<linearGradient id="paint2_linear_162_1250" x1="23.6888" y1="115.722" x2="45.9666" y2="134.551" gradientUnits="userSpaceOnUse">
<stop stop-color="#FFDA27"/>
<stop offset="1" stop-color="#FAAA0E"/>
</linearGradient>
<linearGradient id="paint3_linear_162_1250" x1="240.408" y1="178.281" x2="200.794" y2="174.032" gradientUnits="userSpaceOnUse">
<stop stop-color="#FCBF9D"/>
<stop offset="1" stop-color="#F4A076"/>
</linearGradient>
<linearGradient id="paint4_linear_162_1250" x1="177.805" y1="163.083" x2="196.302" y2="167.171" gradientUnits="userSpaceOnUse">
<stop stop-color="#F4A076"/>
<stop offset="1" stop-color="#FCBF9D"/>
</linearGradient>
<linearGradient id="paint5_linear_162_1250" x1="179.177" y1="171.305" x2="199.539" y2="175.805" gradientUnits="userSpaceOnUse">
<stop stop-color="#F4A076"/>
<stop offset="1" stop-color="#FCBF9D"/>
</linearGradient>
<linearGradient id="paint6_linear_162_1250" x1="183.328" y1="180.036" x2="201.767" y2="184.111" gradientUnits="userSpaceOnUse">
<stop stop-color="#F4A076"/>
<stop offset="1" stop-color="#FCBF9D"/>
</linearGradient>
<linearGradient id="paint7_linear_162_1250" x1="189.844" y1="185.14" x2="205.498" y2="188.599" gradientUnits="userSpaceOnUse">
<stop stop-color="#F4A076"/>
<stop offset="1" stop-color="#FCBF9D"/>
</linearGradient>
<linearGradient id="paint8_linear_162_1250" x1="242.558" y1="225.848" x2="394.848" y2="225.848" gradientUnits="userSpaceOnUse">
<stop stop-color="#FE4845"/>
<stop offset="1" stop-color="#F4A076"/>
</linearGradient>
<linearGradient id="paint9_linear_162_1250" x1="115.095" y1="267.736" x2="219.536" y2="267.736" gradientUnits="userSpaceOnUse">
<stop stop-color="#D32424"/>
<stop offset="1" stop-color="#FE4845"/>
</linearGradient>
<linearGradient id="paint10_linear_162_1250" x1="77.8182" y1="163.86" x2="160.162" y2="163.86" gradientUnits="userSpaceOnUse">
<stop stop-color="#FCBF9D"/>
<stop offset="1" stop-color="#F4A076"/>
</linearGradient>
<linearGradient id="paint11_linear_162_1250" x1="139.838" y1="157.367" x2="162.398" y2="157.367" gradientUnits="userSpaceOnUse">
<stop stop-color="#FCBF9D"/>
<stop offset="1" stop-color="#F4A076"/>
</linearGradient>
<linearGradient id="paint12_linear_162_1250" x1="145.097" y1="146.707" x2="165.871" y2="146.707" gradientUnits="userSpaceOnUse">
<stop stop-color="#FCBF9D"/>
<stop offset="1" stop-color="#F4A076"/>
</linearGradient>
<linearGradient id="paint13_linear_162_1250" x1="132.123" y1="174.163" x2="148.677" y2="174.163" gradientUnits="userSpaceOnUse">
<stop stop-color="#FCBF9D"/>
<stop offset="1" stop-color="#F4A076"/>
</linearGradient>
<linearGradient id="paint14_linear_162_1250" x1="135.686" y1="166.945" x2="155.954" y2="166.945" gradientUnits="userSpaceOnUse">
<stop stop-color="#FCBF9D"/>
<stop offset="1" stop-color="#F4A076"/>
</linearGradient>
<linearGradient id="paint15_linear_162_1250" x1="199.753" y1="100.317" x2="276.908" y2="100.317" gradientUnits="userSpaceOnUse">
<stop stop-color="#FCBF9D"/>
<stop offset="1" stop-color="#F4A076"/>
</linearGradient>
<linearGradient id="paint16_linear_162_1250" x1="256.148" y1="128.171" x2="391.314" y2="128.171" gradientUnits="userSpaceOnUse">
<stop stop-color="#FE4845"/>
<stop offset="1" stop-color="#F4A076"/>
</linearGradient>
<linearGradient id="paint17_linear_162_1250" x1="27.3727" y1="175.654" x2="30.0355" y2="232.905" gradientUnits="userSpaceOnUse">
<stop stop-color="#25A15E"/>
<stop offset="1" stop-color="#74FFB3"/>
</linearGradient>
<linearGradient id="paint18_linear_162_1250" x1="65.9776" y1="42.1289" x2="104.589" y2="86.3984" gradientUnits="userSpaceOnUse">
<stop stop-color="#FFDA27"/>
<stop offset="1" stop-color="#FAAA0E"/>
</linearGradient>
</defs>
</svg>
