<svg width="332" height="332" viewBox="0 0 332 332" fill="none" xmlns="http://www.w3.org/2000/svg">
<g clip-path="url(#clip0_1_2995)">
<path d="M332 -0.664001H0V331.336H332V-0.664001Z" fill="white"/>
<path opacity="0.38" d="M155.923 41.8187C222.361 45.3904 225.219 116.829 218.075 144.69C210.931 172.551 265.224 178.981 271.654 224.702C278.083 270.423 235.934 289.711 205.93 290.425C175.926 291.139 152.351 273.28 147.351 251.133C142.35 228.988 128.062 218.271 103.059 213.985C78.0552 209.699 33.0486 176.123 40.907 132.545C40.907 132.545 42.747 86.1766 86.2715 55.3915C115.561 34.6754 155.923 41.8187 155.923 41.8187Z" fill="#E8FFF3"/>
<path d="M112.947 151.295C112.947 151.295 111.137 128.214 117.925 112.827C120.64 109.207 122.451 110.564 122.451 110.564C122.451 110.564 123.356 120.068 121.093 129.119C118.83 138.17 117.473 155.82 117.473 155.82L112.947 151.295Z" fill="#61A27D"/>
<path d="M111.589 149.485C111.589 149.485 111.136 138.623 99.8224 129.119C88.5085 119.616 86.2456 119.616 86.2456 119.616C86.2456 119.616 95.2966 119.163 101.632 123.236C107.968 127.309 110.231 138.623 110.684 140.434C111.137 142.244 113.852 149.486 113.852 149.486L111.589 149.485Z" fill="#578B71"/>
<path d="M118.929 151.149C118.929 151.149 121.05 140.487 133.692 132.839C146.336 125.192 148.571 125.54 148.571 125.54C148.571 125.54 139.698 123.699 132.81 126.747C125.922 129.795 121.944 140.626 121.217 142.344C120.491 144.063 116.693 150.8 116.693 150.8L118.929 151.149Z" fill="#578B71"/>
<path d="M113.852 149.485C113.852 149.485 102.085 110.565 91.6765 101.513C92.1287 100.155 104.348 104.228 107.968 114.185C111.589 124.141 112.494 139.075 113.852 143.149C115.21 147.222 117.02 150.843 117.02 150.843" fill="#7CC97D"/>
<path d="M112.947 151.295C112.947 151.295 117.473 130.024 129.24 122.784C130.145 125.499 117.021 147.674 118.378 157.631C119.735 167.587 112.947 151.295 112.947 151.295Z" fill="#7CC97D"/>
<path d="M106.486 175.269H123.89C124.961 168.01 125.86 161.483 126.027 158.989C126.37 153.846 124.637 149.488 123.776 147.675H106.6C105.739 149.488 104.006 153.846 104.348 158.989C104.514 161.483 105.414 168.01 106.486 175.269Z" fill="#D3F4E3"/>
<path d="M264.966 131.926H233.047V175.111H264.966V131.926Z" fill="#24ADB2"/>
<path d="M261.68 131.926H229.761V175.111H261.68V131.926Z" fill="#26C6DA"/>
<path d="M253.7 127.545H221.781V175.111H253.7V127.545Z" fill="#E1543C"/>
<path d="M250.415 127.545H213.802V175.111H250.415V127.545Z" fill="#FF634D"/>
<path d="M250.415 127.545H244.156V175.111H250.415V127.545Z" fill="#EB594D"/>
<path d="M67.6636 139.437C67.6636 139.437 62.657 141.94 60.4665 149.138C58.2759 156.335 70.1675 175.737 70.1675 174.798C70.1675 173.859 82.0591 168.539 82.0591 168.539L76.1136 146.634L67.6636 139.437Z" fill="#202F7C"/>
<path d="M192.725 177.421L186.114 159.949H169.586L176.197 177.421" fill="#4F57A0"/>
<path d="M132.751 163.412H226.726L228.369 154.597H134.395" fill="#D3F4E3"/>
<path d="M142.712 109.989L134.396 154.597H228.369L236.493 111.021C236.817 109.289 235.487 107.689 233.725 107.689H145.48C144.124 107.689 142.96 108.656 142.712 109.989Z" fill="#198F51"/>
<path d="M189.002 171.121L213.88 152.58L189.472 151.172L166.471 169.009L189.002 171.121Z" fill="white"/>
<path d="M182.04 165.097L188.298 161.655C188.298 161.655 194.342 159.152 194.518 159.152C194.694 159.152 195.222 159.738 194.577 160.97C193.931 162.203 192.229 162.496 192.229 162.496L191.114 165.606L196.904 164.784L198.234 164.471C198.234 164.471 197.295 166.819 196.904 167.366C196.513 167.914 194.322 169.322 194.322 169.322C194.322 169.322 190.176 172.764 188.69 173.155C187.203 173.546 182.04 173.781 182.04 173.781L178.754 173.702L175.703 174.329C175.703 174.329 174.139 171.434 174.373 167.366L182.04 165.097Z" fill="#FF8D68"/>
<path d="M219.122 179.492L237.272 297.779H241.653L229.761 178.866L219.122 179.492Z" fill="#25A15E"/>
<path d="M256.048 179.492L274.197 297.779H278.579L266.687 178.866L256.048 179.492Z" fill="#25A15E"/>
<path d="M149.651 179.492L131.501 297.779H127.12L139.012 178.866L149.651 179.492Z" fill="#25A15E"/>
<path d="M112.725 179.492L94.5755 297.779H90.1945L102.086 178.866L112.725 179.492Z" fill="#25A15E"/>
<path d="M269.19 178.24H105.841V183.873H269.19V178.24Z" fill="#D3F4E3"/>
<path d="M272.32 180.743H110.848C109.12 180.743 107.719 179.342 107.719 177.614C107.719 175.886 109.12 174.485 110.848 174.485H272.32C274.048 174.485 275.449 175.886 275.449 177.614C275.449 179.342 274.048 180.743 272.32 180.743Z" fill="#FFC757"/>
<path d="M116.256 285.889C116.256 285.889 117.283 283.375 121.574 283.822C125.866 284.269 126.397 285.064 126.993 287.17C127.588 289.276 129.175 291.497 130.182 291.94C131.188 292.384 134.913 294.665 137.886 295.012C140.858 295.359 141.274 297.145 140.658 297.997C140.044 298.848 128.936 300.048 126.462 299.84C126.462 299.84 118.1 300.084 116.102 299.525C114.104 298.967 116.133 286.716 116.256 285.889Z" fill="#201360"/>
<path d="M117.394 267.869L116.106 287.484C116.106 287.484 119.164 288.469 121.491 290.174C124.93 292.694 127.746 289.643 127.746 289.643L128.522 277.301L117.394 267.869Z" fill="#FF8D68"/>
<path d="M142.297 233.316L129.623 287.766C129.623 287.766 123.052 288.705 115.072 284.95C115.072 284.95 122.113 233.786 122.582 230.5C123.052 227.213 141.358 230.5 142.297 233.316Z" fill="#202F7C"/>
<path d="M90.9229 92.4447C90.9229 92.4447 96.126 93.4142 99.5456 101.077C102.965 108.739 102.142 125.56 100.341 127.653C98.5396 129.745 92.6207 129.384 84.3041 127.238C75.5168 124.971 72.0175 116.225 70.0892 110.431C66.3954 99.3344 75.4431 87.0624 90.9229 92.4447Z" fill="#FF8D68"/>
<path d="M76.4783 137.293L79.4709 122.958C79.4709 122.958 87.174 120.145 92.4315 125.055L94.2203 127.238L94.8292 136.402C94.8292 136.402 86.755 138.582 76.4783 137.293Z" fill="#FF8D68"/>
<path d="M76.3109 225.449C76.3109 225.449 93.0803 230.356 112.97 229.679C132.861 229.002 135.493 223.362 136.113 217.985C136.733 212.608 121.261 209.337 114.531 207.57C107.8 205.803 84.7896 199.186 78.5666 205.898C72.3442 212.609 70.8967 220.862 76.3109 225.449Z" fill="#201360"/>
<path d="M162.727 285.889C162.727 285.889 163.754 283.375 168.045 283.822C172.337 284.269 172.868 285.064 173.463 287.17C174.059 289.276 175.645 291.497 176.653 291.94C177.659 292.384 181.384 294.665 184.356 295.012C187.329 295.359 187.745 297.145 187.129 297.997C186.514 298.848 175.406 300.048 172.933 299.84C172.933 299.84 164.57 300.084 162.573 299.525C160.575 298.967 162.603 286.716 162.727 285.889Z" fill="#201360"/>
<path d="M157.788 269.302L162.481 288.391C162.481 288.391 166.236 287.452 168.427 289.33C170.617 291.208 174.686 289.956 174.686 289.956L171.244 274.935L157.788 269.302Z" fill="#FF8D68"/>
<path d="M118.984 205.465C119.923 205.465 151.842 216.104 158.1 220.799C164.359 225.805 174.373 281.585 174.999 282.837C175.625 284.088 165.924 287.531 159.665 286.592C159.352 285.34 144.644 238.322 144.644 235.193C144.644 235.193 119.61 233.941 108.97 232.063C98.3304 230.186 91.1327 229.873 86.7516 218.295C82.3705 206.716 108.031 205.778 108.031 205.778L118.984 205.465Z" fill="#202F7C"/>
<path d="M173.59 164.315C173.59 164.315 179.692 164.158 180.162 164.784C180.631 165.41 182.822 171.043 180.788 173.39C179.067 174.641 179.067 174.641 179.067 174.641H173.747L173.59 164.315Z" fill="#198F51"/>
<path d="M75.4084 135.212L77.0512 130.988C77.0512 130.988 86.9083 127.937 95.3577 131.692C97.4698 133.804 98.6438 137.09 98.6438 137.09L75.4084 135.212Z" fill="#198F51"/>
<path d="M73.2963 135.682C73.2963 135.682 74.5479 133.491 76.7385 133.178C78.929 132.866 88.9428 131.614 95.5144 133.491C98.0177 134.43 99.2693 135.682 99.2693 135.682C99.2693 135.682 108.657 138.811 111.786 140.688C114.916 142.566 115.855 156.961 116.48 161.655C117.106 166.349 115.229 171.356 115.229 171.356C115.229 171.356 122.739 202.023 122.739 206.404C122.739 210.785 120.236 215.791 111.474 218.921C102.712 222.05 78.929 220.799 70.7924 215.791C68.2891 210.785 64.5335 151.328 63.908 145.695C63.2825 140.063 73.2963 135.682 73.2963 135.682Z" fill="#202F7C"/>
<path d="M106.623 139.437C106.623 139.437 108.97 138.028 114.603 141.784C120.236 145.539 135.726 159.621 137.603 160.56C139.481 161.499 175.625 163.377 175.625 163.377C175.625 163.377 180.788 169.948 175.155 175.111C175.155 175.111 140.263 176.52 133.692 176.05C127.12 175.581 105.215 162.907 105.215 162.907C105.215 162.907 96.2966 149.763 106.623 139.437Z" fill="#202F7C"/>
<path d="M99.1006 160.149C99.1006 160.149 128.363 175.512 131.777 175.999C135.192 176.487 148.116 175.999 148.116 175.999" stroke="#1B2048" stroke-width="0.8263" stroke-miterlimit="10"/>
<path d="M138.605 164.051C138.605 164.051 139.581 169.416 136.167 172.586" stroke="#1B2048" stroke-width="0.8263" stroke-miterlimit="10"/>
<path d="M140.8 162.587C140.8 162.587 143.726 167.22 142.263 170.634" stroke="#1B2048" stroke-width="0.8263" stroke-miterlimit="10"/>
<path d="M98.8562 154.052C98.8562 154.052 96.4174 145.517 104.952 139.908" stroke="#1B2048" stroke-width="0.8263" stroke-miterlimit="10"/>
<path d="M67.3993 146.005C67.3993 146.005 65.6921 161.124 65.6921 168.196" stroke="#1B2048" stroke-width="0.8263" stroke-miterlimit="10"/>
<path d="M76.178 136.006C76.178 136.006 87.3956 135.031 96.6617 136.006" stroke="#1B2048" stroke-width="0.8263" stroke-miterlimit="10"/>
<path d="M149.579 234.28C149.579 234.28 154.944 232.573 156.895 224.283" stroke="#1B2048" stroke-width="0.8263" stroke-miterlimit="10"/>
<path d="M153.237 235.012C153.237 235.012 156.407 234.037 157.87 229.647" stroke="#1B2048" stroke-width="0.8263" stroke-miterlimit="10"/>
<path d="M133.728 244.523L125.681 284.759" stroke="#1B2048" stroke-width="0.8263" stroke-miterlimit="10"/>
<path d="M98.4088 102.589C98.4088 102.589 99.3477 106.814 95.5921 109.63L95.8265 114.324C95.8265 114.324 97.2348 118.549 96.2959 119.018C95.357 119.487 95.1227 118.783 95.1227 118.783C95.1227 118.783 92.0716 113.854 91.1327 113.62C90.1938 113.385 93.2449 120.191 93.2449 120.191C93.2449 120.191 90.1938 124.885 84.5611 125.589L85.7344 123.946C85.7344 123.946 83.1527 125.589 79.1627 125.355C75.1728 125.12 72.1217 119.018 72.1217 119.018C72.1217 119.018 72.8255 120.661 72.1217 121.365C71.4178 122.069 67.4279 115.967 67.1928 108.222L66.0195 110.569C66.0195 110.569 66.2539 105.171 68.3668 99.0688C70.479 92.9666 79.8672 88.5072 85.0305 88.5072C90.1938 88.5072 95.357 88.9767 96.7654 88.5072C98.1737 88.0378 97.4692 92.0277 97.4692 92.0277C97.4692 92.0277 98.1731 90.385 98.4081 88.9767C99.347 88.2728 100.755 93.9055 100.286 96.0177C99.8165 98.1299 99.8165 98.1299 99.8165 98.1299C99.8165 98.1299 101.459 96.0177 101.694 94.8438C102.633 94.6094 102.399 99.7726 98.4088 102.589Z" fill="#201360"/>
<path d="M95.0031 114.282C95.0031 114.282 94.0549 111.14 91.452 112.792C88.8498 114.444 92.5463 121.843 94.7229 121.205C96.9001 120.566 95.5754 115.477 95.0031 114.282Z" fill="#FF634D"/>
<path d="M190.254 168.696L196.904 167.366L198.234 164.471" stroke="#E66657" stroke-width="1.2805" stroke-miterlimit="10"/>
<path d="M196.669 167.522C196.669 167.522 193.305 170.339 192.836 170.573C192.366 170.808 190.254 171.355 190.254 171.355" stroke="#E66657" stroke-width="1.2805" stroke-miterlimit="10"/>
<path d="M93.9493 122.226C93.9493 122.226 93.0104 125.511 98.6431 127.389" stroke="#E66657" stroke-width="1.2805" stroke-miterlimit="10"/>
<path d="M222.251 146.947H172.182L178.441 114.403H228.51L222.251 146.947Z" fill="#25A15E"/>
<path d="M156.094 125.669C155.914 126.602 156.629 127.467 157.579 127.467H212.087C212.812 127.467 213.435 126.952 213.572 126.24L214.374 122.068H156.786L156.094 125.669Z" fill="#D3F4E3"/>
<path d="M218.704 90.0344H164.196C163.471 90.0344 162.847 90.549 162.711 91.2615L156.786 122.069H214.374L220.189 91.8332C220.368 90.8996 219.654 90.0344 218.704 90.0344Z" fill="#D1E9DC"/>
<path d="M181.437 127.49C182.155 125.511 182.598 124.096 182.598 124.096C182.598 124.096 184.242 115.502 176.919 117.707C176.919 117.707 174.378 119.612 173.182 123.647C172.811 124.9 172.368 126.239 171.933 127.49H181.437Z" fill="#387AB6"/>
<path d="M196.605 127.49C196.47 123.253 196.207 119.855 195.75 118.94C194.405 116.474 188.913 114.232 188.913 114.232L181.403 115.353C181.403 115.353 178.264 116.249 177.255 118.491C176.917 119.245 176.097 122.91 175.221 127.491L196.605 127.49Z" fill="#DCE4FF"/>
<path d="M182.685 109.147C182.685 109.147 182.231 112.506 181.232 114.958C181.232 114.958 180.96 116.864 184.955 116.047C188.949 115.23 188.405 113.233 188.405 113.233V105.334L182.685 109.147Z" fill="#FF8D68"/>
<path d="M177.077 100.842C177.077 100.842 177.122 108.352 179.277 111.97C180.749 113.492 185.765 111.102 187.876 107.873C189.987 104.644 189.946 99.7859 188.275 97.0814C186.605 94.377 181.103 95.1904 179.491 96.1246C177.879 97.0582 176.986 99.6405 177.077 100.842Z" fill="#FF8D68"/>
<path d="M187.212 105.084C187.212 105.084 188.628 102.901 189.576 104.201C190.523 105.5 187.242 108.158 186.991 107.147C186.741 106.136 187.212 105.084 187.212 105.084Z" fill="#FBA894"/>
<path d="M177.077 100.842C177.077 100.842 174.442 98.525 177.62 95.529C179.436 94.1672 180.344 95.1658 182.25 94.8026C184.156 94.4394 187.606 94.8026 188.877 96.7999C190.148 98.7972 189.694 103.427 189.332 103.881C188.968 104.336 187.879 104.608 187.879 105.425C187.879 106.242 187.697 106.877 187.425 106.877C187.152 106.877 187.152 105.516 187.152 104.517C187.152 103.518 186.971 101.612 186.517 100.25C186.063 98.8882 183.975 98.9792 183.158 99.1604C182.341 99.3417 181.8 101.433 177.077 100.842Z" fill="#713336"/>
<path opacity="0.53" d="M186.97 103.098C186.97 103.098 187.029 103.068 187.12 103.03C187.119 103.028 187.119 103.023 187.119 103.023L186.97 103.098Z" fill="#505E83"/>
<path d="M187.12 103.03C187.136 103.179 187.612 107.528 185.886 108.739C184.093 109.935 184.018 108.403 182.598 108.179C181.178 107.954 180.02 108.029 179.385 108.964C178.824 109.898 178.937 110.309 178.413 110.047C178.301 110.346 179.086 112.177 180.282 112.663C181.478 113.148 184.317 111.654 185.587 110.533C186.858 109.413 187.642 108.703 187.866 107.731C188.091 106.76 187.978 104.891 188.24 103.584C188.39 102.596 187.486 102.878 187.12 103.03ZM180.581 111.056C178.862 110.682 179.086 109.338 180.842 108.777C180.842 108.777 182.71 107.918 183.346 109.225C183.607 110.085 182.299 111.43 180.581 111.056Z" fill="#713336"/>
<path d="M188.408 112.663C188.408 112.663 186.222 115.409 182.635 115.745C181.907 115.465 181.514 114.12 181.514 114.12L180.954 114.96C180.954 114.96 180.674 116.642 180.954 117.314C181.29 117.37 182.523 116.529 182.523 116.529C182.523 116.529 183.364 117.707 183.98 117.93C184.596 118.154 188.52 115.521 188.911 114.231C188.913 114.232 188.885 113.307 188.408 112.663Z" fill="white"/>
<path d="M197.177 127.49C196.982 123.313 196.733 120.121 196.497 119.463C195.601 117.371 192.238 114.681 188.913 114.232C188.913 114.232 187.664 119.997 186.435 127.49H197.177Z" fill="#387AB6"/>
<path d="M177.833 127.49C179.595 120.015 180.955 115.577 180.955 115.577C179.946 115.689 178.152 116.474 176.919 117.707C176.25 119.045 175.21 122.89 174.137 127.49H177.833Z" fill="#387AB6"/>
<path d="M196.505 127.49C196.628 123.491 196.404 119.794 195.75 118.94C193.621 117.146 191.379 117.258 190.259 119.276C189.646 120.379 188.832 124.227 188.221 127.491L196.505 127.49Z" fill="#387AB6"/>
<path d="M182.524 116.529C181.888 119.118 181.362 121.736 180.885 124.359" stroke="#87B8EB" stroke-width="0.3595" stroke-miterlimit="10"/>
<path d="M223.668 95.9811C228.951 91.3161 230.285 84.1946 226.647 80.0748C223.009 75.955 215.778 76.397 210.494 81.0621C205.211 85.7271 203.877 92.8486 207.515 96.9684C211.153 101.088 218.385 100.646 223.668 95.9811Z" fill="#198F51"/>
<path d="M230.636 100.62C230.211 102.323 228.486 103.704 226.783 103.704C225.079 103.704 224.043 102.323 224.467 100.62C224.892 98.9168 226.617 97.5356 228.32 97.5356C230.024 97.5356 231.06 98.9161 230.636 100.62Z" fill="#D1E9DC"/>
<path d="M214.171 94.2409C213.817 94.2409 213.496 94.1054 213.293 93.8352L210.381 89.9554C209.974 89.4143 210.193 88.5371 210.869 87.996C211.545 87.4548 212.422 87.4548 212.829 87.996L215.006 90.8956L222.783 84.6706C223.459 84.1295 224.336 84.1295 224.743 84.6706C225.149 85.2118 224.931 86.0889 224.254 86.6301L215.253 93.8352C214.914 94.1054 214.525 94.2409 214.171 94.2409Z" fill="white"/>
<path d="M134.271 69.7286H130.585C129.659 69.7286 129.096 68.9783 129.327 68.0534L130.246 64.3675C130.477 63.4419 131.414 62.6922 132.339 62.6922H136.025C136.951 62.6922 137.514 63.4426 137.283 64.3675L136.364 68.0534C136.133 68.979 135.196 69.7286 134.271 69.7286Z" fill="#D3F4E3"/>
<path d="M131.577 80.5352H127.891C126.966 80.5352 126.402 79.7849 126.633 78.86L127.552 75.1741C127.783 74.2491 128.72 73.4988 129.645 73.4988H133.331C134.256 73.4988 134.82 74.2491 134.589 75.1741L133.67 78.86C133.439 79.7849 132.502 80.5352 131.577 80.5352Z" stroke="#D3F4E3" stroke-width="0.75" stroke-miterlimit="10"/>
<path d="M143.304 80.5352H139.619C138.693 80.5352 138.13 79.7849 138.361 78.86L139.28 75.1741C139.511 74.2491 140.448 73.4988 141.373 73.4988H145.059C145.984 73.4988 146.547 74.2491 146.316 75.1741L145.397 78.86C145.167 79.7849 144.23 80.5352 143.304 80.5352Z" fill="#198F51"/>
<path d="M155.032 80.5352H151.346C150.42 80.5352 149.857 79.7849 150.088 78.86L151.007 75.1741C151.238 74.2491 152.175 73.4988 153.1 73.4988H156.786C157.711 73.4988 158.275 74.2491 158.044 75.1741L157.125 78.86C156.894 79.7849 155.958 80.5352 155.032 80.5352Z" fill="white"/>
<path d="M128.82 91.5928H125.134C124.209 91.5928 123.645 90.8425 123.876 89.9176L124.795 86.2317C125.026 85.3061 125.963 84.5564 126.888 84.5564H130.574C131.5 84.5564 132.063 85.3067 131.832 86.2317L130.913 89.9176C130.682 90.8425 129.745 91.5928 128.82 91.5928Z" fill="#198F51"/>
<path d="M125.875 103.404H122.189C121.264 103.404 120.701 102.654 120.932 101.729L121.851 98.0429C122.081 97.118 123.019 96.3677 123.944 96.3677H127.629C128.554 96.3677 129.118 97.118 128.887 98.0429L127.968 101.729C127.737 102.654 126.8 103.404 125.875 103.404Z" fill="white"/>
<path d="M140.547 91.5928H136.862C135.936 91.5928 135.373 90.8425 135.604 89.9176L136.523 86.2317C136.753 85.3061 137.691 84.5564 138.616 84.5564H142.302C143.227 84.5564 143.79 85.3067 143.559 86.2317L142.64 89.9176C142.41 90.8425 141.473 91.5928 140.547 91.5928Z" fill="#D1E9DC"/>
<path d="M135.41 112.2H131.724C130.798 112.2 130.235 111.45 130.466 110.525L131.385 106.839C131.616 105.914 132.553 105.164 133.478 105.164H137.164C138.089 105.164 138.652 105.914 138.421 106.839L137.502 110.525C137.272 111.45 136.335 112.2 135.41 112.2Z" stroke="#D3F4E3" stroke-width="0.75" stroke-miterlimit="10"/>
<path d="M246.294 97.8816H244.94C244.6 97.8816 244.394 97.606 244.479 97.2667L244.816 95.9135C244.901 95.5735 245.245 95.2986 245.584 95.2986H246.938C247.278 95.2986 247.484 95.5742 247.399 95.9135L247.062 97.2667C246.977 97.6067 246.633 97.8816 246.294 97.8816Z" fill="#D1E9DC"/>
<path d="M245.304 101.849H243.951C243.611 101.849 243.404 101.573 243.489 101.234L243.827 99.8809C243.912 99.5409 244.256 99.266 244.595 99.266H245.948C246.288 99.266 246.495 99.5416 246.41 99.8809L246.072 101.234C245.988 101.573 245.644 101.849 245.304 101.849Z" fill="#D1E9DC"/>
<path d="M249.61 101.849H248.256C247.916 101.849 247.71 101.573 247.795 101.234L248.132 99.8809C248.217 99.5409 248.561 99.266 248.9 99.266H250.254C250.594 99.266 250.8 99.5416 250.715 99.8809L250.378 101.234C250.294 101.573 249.95 101.849 249.61 101.849Z" fill="#D1E9DC"/>
<path d="M253.915 101.849H252.562C252.222 101.849 252.015 101.573 252.1 101.234L252.437 99.8809C252.522 99.5409 252.866 99.266 253.206 99.266H254.559C254.899 99.266 255.105 99.5416 255.02 99.8809L254.683 101.234C254.599 101.573 254.255 101.849 253.915 101.849Z" fill="#D1E9DC"/>
<path d="M244.292 105.908H242.939C242.599 105.908 242.392 105.632 242.477 105.293L242.815 103.94C242.9 103.6 243.244 103.325 243.583 103.325H244.936C245.276 103.325 245.483 103.601 245.398 103.94L245.06 105.293C244.976 105.632 244.632 105.908 244.292 105.908Z" fill="#D1E9DC"/>
<path d="M243.211 110.244H241.858C241.518 110.244 241.312 109.968 241.397 109.629L241.734 108.276C241.819 107.936 242.163 107.661 242.502 107.661H243.855C244.195 107.661 244.402 107.937 244.317 108.276L243.979 109.629C243.895 109.969 243.551 110.244 243.211 110.244Z" fill="#D1E9DC"/>
<path d="M248.598 105.908H247.244C246.904 105.908 246.698 105.632 246.783 105.293L247.12 103.94C247.205 103.6 247.549 103.325 247.888 103.325H249.242C249.582 103.325 249.788 103.601 249.703 103.94L249.366 105.293C249.282 105.632 248.937 105.908 248.598 105.908Z" fill="#D1E9DC"/>
<path d="M246.711 113.473H245.358C245.018 113.473 244.812 113.197 244.897 112.858L245.234 111.505C245.319 111.165 245.663 110.89 246.002 110.89H247.355C247.695 110.89 247.902 111.166 247.817 111.505L247.479 112.858C247.395 113.198 247.051 113.473 246.711 113.473Z" fill="#D1E9DC"/>
<path opacity="0.9" d="M245.86 149.15H201.373C200.906 149.15 200.564 148.709 200.682 148.256L204.835 132.3C204.916 131.985 205.201 131.766 205.526 131.766H250.013C250.48 131.766 250.822 132.207 250.704 132.66L246.551 148.616C246.469 148.931 246.185 149.15 245.86 149.15Z" fill="#D1E9DC"/>
<path d="M207.475 135.178H222.954" stroke="#198F51" stroke-width="1.076" stroke-miterlimit="10" stroke-linecap="round" stroke-linejoin="round"/>
<path d="M206.283 142.323H221.763" stroke="#198F51" stroke-width="1.076" stroke-miterlimit="10" stroke-linecap="round" stroke-linejoin="round"/>
<path d="M212.793 139.624H228.273" stroke="#198F51" stroke-width="1.076" stroke-miterlimit="10" stroke-linecap="round" stroke-linejoin="round"/>
<path d="M207.078 137.56H211.722" stroke="#198F51" stroke-width="1.076" stroke-miterlimit="10" stroke-linecap="round" stroke-linejoin="round"/>
<path d="M206.442 139.624H211.086" stroke="#198F51" stroke-width="1.076" stroke-miterlimit="10" stroke-linecap="round" stroke-linejoin="round"/>
<path d="M225.415 135.178H230.932" stroke="#198F51" stroke-width="1.076" stroke-miterlimit="10" stroke-linecap="round" stroke-linejoin="round"/>
<path d="M228.118 145.675H219.88C219.838 145.675 219.808 145.636 219.818 145.595L220.187 144.179C220.194 144.151 220.22 144.131 220.249 144.131H228.487C228.529 144.131 228.559 144.17 228.549 144.211L228.18 145.628C228.173 145.656 228.148 145.675 228.118 145.675Z" stroke="#198F51" stroke-width="0.3587" stroke-miterlimit="10"/>
<path d="M217.878 145.675H209.639C209.597 145.675 209.568 145.636 209.578 145.595L209.947 144.179C209.954 144.151 209.979 144.131 210.008 144.131H218.247C218.289 144.131 218.318 144.17 218.308 144.211L217.939 145.628C217.932 145.656 217.907 145.675 217.878 145.675Z" stroke="#198F51" stroke-width="0.3587" stroke-miterlimit="10"/>
<path d="M242.599 143.621C242.177 143.059 240.464 142.65 239.99 142.087C239.748 141.8 239.748 141.266 239.806 140.812C239.975 140.705 240.115 140.597 240.198 140.497C240.34 140.289 240.501 139.999 240.661 139.68C240.71 139.728 240.775 139.765 240.859 139.763C241.084 139.756 241.94 138.59 241.719 138.321C241.593 138.166 241.389 138.3 241.238 138.443C241.464 137.924 241.624 137.526 241.624 137.526H241.615C241.636 137.461 241.656 137.395 241.673 137.328C242.013 135.966 241.183 134.861 239.821 134.861C238.458 134.861 237.079 135.966 236.739 137.328C236.722 137.396 236.709 137.461 236.698 137.526H236.689C236.689 137.526 236.65 137.924 236.618 138.443C236.538 138.301 236.401 138.166 236.198 138.321C235.843 138.591 236.118 139.756 236.339 139.763C236.422 139.765 236.505 139.728 236.577 139.68C236.579 139.999 236.594 140.289 236.633 140.497C236.674 140.619 236.793 140.753 236.948 140.884C236.779 141.322 236.521 141.815 236.156 142.087C235.402 142.65 233.484 143.059 232.782 143.621C232.15 144.127 231.586 145.605 231.479 145.897H242.768C242.806 145.605 242.979 144.127 242.599 143.621Z" fill="#25A15E"/>
<path d="M185.539 143.46H149.035C145.831 143.46 143.881 140.862 144.68 137.657C145.478 134.453 148.724 131.854 151.929 131.854H188.433C191.638 131.854 193.588 134.453 192.789 137.657C191.99 140.862 188.745 143.46 185.539 143.46Z" fill="white"/>
<path d="M152.908 139.172L151.343 139.9C151.195 139.969 151.071 139.858 151.132 139.713L151.78 138.172C151.805 138.114 151.8 138.056 151.768 138.014L150.921 136.923C150.842 136.82 150.944 136.641 151.095 136.62L152.699 136.395C152.759 136.386 152.818 136.35 152.857 136.298L153.898 134.896C153.996 134.764 154.184 134.764 154.217 134.896L154.559 136.298C154.572 136.35 154.613 136.387 154.669 136.395L156.16 136.62C156.3 136.641 156.314 136.82 156.183 136.923L154.791 138.014C154.739 138.055 154.705 138.114 154.701 138.172L154.581 139.713C154.57 139.858 154.39 139.969 154.277 139.9L153.075 139.172C153.028 139.145 152.966 139.145 152.908 139.172Z" fill="#FFA402"/>
<path d="M160.615 139.172L159.05 139.9C158.903 139.969 158.778 139.858 158.839 139.713L159.487 138.172C159.512 138.114 159.507 138.056 159.476 138.014L158.628 136.923C158.549 136.82 158.652 136.641 158.802 136.62L160.406 136.395C160.466 136.386 160.525 136.35 160.564 136.298L161.605 134.896C161.703 134.764 161.891 134.764 161.924 134.896L162.266 136.298C162.279 136.35 162.32 136.387 162.376 136.395L163.867 136.62C164.007 136.641 164.021 136.82 163.89 136.923L162.499 138.014C162.447 138.055 162.413 138.114 162.408 138.172L162.288 139.713C162.277 139.858 162.097 139.969 161.984 139.9L160.782 139.172C160.735 139.145 160.673 139.145 160.615 139.172Z" fill="#FFA402"/>
<path d="M168.322 139.172L166.757 139.9C166.61 139.969 166.485 139.858 166.546 139.713L167.195 138.172C167.218 138.114 167.214 138.056 167.183 138.014L166.335 136.923C166.256 136.82 166.359 136.641 166.509 136.62L168.113 136.395C168.173 136.386 168.232 136.35 168.271 136.298L169.312 134.896C169.41 134.764 169.598 134.764 169.63 134.896L169.973 136.298C169.985 136.35 170.026 136.387 170.082 136.395L171.574 136.62C171.714 136.641 171.728 136.82 171.596 136.923L170.204 138.014C170.153 138.055 170.119 138.114 170.114 138.172L169.994 139.713C169.983 139.858 169.803 139.969 169.69 139.9L168.487 139.172C168.442 139.145 168.38 139.145 168.322 139.172Z" fill="#FFA402"/>
<path d="M176.029 139.172L174.464 139.9C174.317 139.969 174.192 139.858 174.253 139.713L174.902 138.172C174.926 138.114 174.921 138.056 174.89 138.014L174.042 136.923C173.963 136.82 174.066 136.641 174.216 136.62L175.819 136.395C175.879 136.386 175.939 136.35 175.977 136.298L177.019 134.896C177.117 134.764 177.305 134.764 177.337 134.896L177.68 136.298C177.692 136.35 177.734 136.387 177.789 136.395L179.281 136.62C179.421 136.641 179.435 136.82 179.304 136.923L177.912 138.014C177.86 138.055 177.826 138.114 177.822 138.172L177.702 139.713C177.69 139.858 177.51 139.969 177.398 139.9L176.195 139.172C176.15 139.145 176.088 139.145 176.029 139.172Z" fill="#FFA402"/>
<path d="M183.736 139.172L182.171 139.9C182.024 139.969 181.899 139.858 181.96 139.713L182.609 138.172C182.633 138.114 182.629 138.056 182.597 138.014L181.749 136.923C181.67 136.82 181.773 136.641 181.923 136.62L183.526 136.395C183.586 136.386 183.645 136.35 183.684 136.298L184.726 134.896C184.824 134.764 185.012 134.764 185.044 134.896L185.387 136.298C185.399 136.35 185.441 136.387 185.496 136.395L186.988 136.62C187.128 136.641 187.142 136.82 187.01 136.923L185.619 138.014C185.567 138.055 185.533 138.114 185.528 138.172L185.408 139.713C185.397 139.858 185.217 139.969 185.104 139.9L183.902 139.172C183.857 139.145 183.795 139.145 183.736 139.172Z" fill="#C2D4D9"/>
<path d="M95.778 121.07C97.4447 121.07 98.7959 119.187 98.7959 116.864C98.7959 114.541 97.4447 112.658 95.778 112.658C94.1113 112.658 92.7601 114.541 92.7601 116.864C92.7601 119.187 94.1113 121.07 95.778 121.07Z" fill="#202F7C"/>
<path d="M96.2349 117.23C96.2349 117.23 104.648 126.557 104.648 128.021C104.648 129.483 101.904 129.301 101.904 129.301" stroke="#202F7C" stroke-width="1.1018" stroke-miterlimit="10"/>
<path d="M102.545 129.301C102.545 129.907 102.053 130.398 101.447 130.398C100.841 130.398 100.35 129.907 100.35 129.301C100.35 128.694 100.841 128.203 101.447 128.203C102.053 128.203 102.545 128.694 102.545 129.301Z" fill="#202F7C"/>
<path d="M81.2762 238.479C84.2642 243.634 93.6379 247.397 104.746 247.397C115.854 247.397 125.228 243.634 128.216 238.479H81.2762Z" fill="#198F51"/>
<path d="M144.644 212.036L139.012 238.009H135.57L138.699 212.663L144.644 212.036Z" fill="#25A15E"/>
<path d="M154.971 214.227H104.548V207.968H149.964C152.729 207.968 154.97 210.21 154.97 212.975L154.971 214.227Z" fill="#198F51"/>
<path d="M63.2825 235.193L51.0789 176.501C50.5942 174.17 52.3743 171.981 54.7554 171.981H95.1379C97.3623 171.981 99.2806 173.542 99.7335 175.72L112.099 235.193" fill="#25A15E"/>
<path d="M146.214 241.632H69.5275C66.9399 241.632 64.6623 239.924 63.9379 237.439L63.2832 235.193H146.215V241.632H146.214Z" fill="#25A15E"/>
<path d="M108.501 244.581H102.399V299.031H108.501V244.581Z" fill="#25A15E"/>
<path d="M108.501 254.673L102.399 259.602V244.581H108.501V254.673Z" fill="#198F51"/>
<path d="M108.314 290.916H106.082H105.524H103.293L80.4177 299.999H131.188L108.314 290.916Z" fill="#25A15E"/>
<path d="M56.4579 175.997H92.7561" stroke="#D1E9DC" stroke-miterlimit="10"/>
<path d="M96.519 180.202L102.716 211.41" stroke="#D1E9DC" stroke-miterlimit="10"/>
<path d="M103.823 216.943L105.151 226.018" stroke="#D1E9DC" stroke-miterlimit="10"/>
<path d="M273.039 123.541H243.81C242.303 123.541 241.151 122.194 241.387 120.705L241.608 119.304C241.796 118.111 242.824 117.233 244.031 117.233H273.26C274.767 117.233 275.918 118.58 275.683 120.068L275.462 121.47C275.274 122.662 274.246 123.541 273.039 123.541Z" fill="#D1E9DC"/>
<path d="M245.034 120.442H270.266" stroke="white" stroke-width="2" stroke-miterlimit="10"/>
<path d="M166.574 87.2416H158.606C154.817 87.2416 151.092 90.3133 150.286 94.1027C149.481 97.8922 151.9 100.964 155.689 100.964H157.419C159.352 105.54 163.917 104.948 163.917 104.948C163.054 103.227 162.87 101.85 162.876 100.964H163.657C167.447 100.964 171.172 97.8922 171.977 94.1027C172.783 90.3139 170.364 87.2416 166.574 87.2416Z" fill="#FF634D"/>
<path d="M155.217 92.7754H162.742" stroke="white" stroke-width="2" stroke-miterlimit="10"/>
<path d="M154.582 95.7634H166.81" stroke="white" stroke-width="2" stroke-miterlimit="10"/>
</g>
<defs>
<clipPath id="clip0_1_2995">
<rect width="332" height="332" fill="white"/>
</clipPath>
</defs>
</svg>
