<svg width="332" height="332" viewBox="0 0 332 332" fill="none" xmlns="http://www.w3.org/2000/svg">
<path d="M332 253.912H0V254.078H332V253.912Z" fill="#EBEBEB"/>
<path d="M298.734 264.6H276.741V264.766H298.734V264.6Z" fill="#EBEBEB"/>
<path d="M219.93 266.402H214.158V266.568H219.93V266.402Z" fill="#EBEBEB"/>
<path d="M276.077 258.434H263.333V258.6H276.077V258.434Z" fill="#EBEBEB"/>
<path d="M63.5129 259.55H34.8328V259.716H63.5129V259.55Z" fill="#EBEBEB"/>
<path d="M73.6303 259.55H69.4252V259.716H73.6303V259.55Z" fill="#EBEBEB"/>
<path d="M149.498 262.354H87.2968V262.52H149.498V262.354Z" fill="#EBEBEB"/>
<path d="M157.377 224.299H29.1596C27.0699 224.299 25.3694 222.599 25.3694 220.509V40.2782C25.3694 38.1886 27.0699 36.4881 29.1596 36.4881H157.377C159.466 36.4881 161.167 38.1886 161.167 40.2782V220.509C161.167 222.599 159.466 224.299 157.377 224.299ZM29.1596 36.6548C27.1609 36.6548 25.5354 38.2803 25.5354 40.2789V220.51C25.5354 222.508 27.1609 224.134 29.1596 224.134H157.377C159.375 224.134 161.001 222.508 161.001 220.51V40.2782C161.001 38.2803 159.375 36.6541 157.377 36.6541L29.1596 36.6548Z" fill="#EBEBEB"/>
<path d="M300.998 224.299H172.781C170.691 224.299 168.991 222.599 168.991 220.509V40.2782C168.991 38.1886 170.692 36.4881 172.781 36.4881H300.998C303.088 36.4881 304.788 38.1886 304.788 40.2782V220.509C304.789 222.599 303.088 224.299 300.998 224.299ZM172.781 36.6548C170.783 36.6548 169.157 38.2803 169.157 40.2789V220.51C169.157 222.508 170.783 224.134 172.781 224.134H300.998C302.996 224.134 304.622 222.508 304.622 220.51V40.2782C304.622 38.2803 302.996 36.6541 300.998 36.6541L172.781 36.6548Z" fill="#EBEBEB"/>
<path d="M305.727 251.309V207.162H284.464V195.094H274.283V159.618L261.133 146.467H234.446V184.481H197.824V191.996H171.932V182.127H144.116V174.69H122.396V130.649H83.9489V158.713H75.0964V168.882H54.521V185.549H43.5245L35.0619 194.012V202.619H26.6397V251.309H305.727Z" fill="#F0F0F0"/>
<path d="M279.827 207.163H284.096L284.464 206.916V207.163H305.727V251.309H279.827V207.163Z" fill="#E6E6E6"/>
<path d="M235.077 194.836H239.346L239.713 194.521V194.836H260.977V251.309H235.077V194.836Z" fill="#E6E6E6"/>
<path d="M171.566 185.337L171.565 191.996H172.611L173.728 199.112L170.576 251.309H135.495V182.127H143.749H171.061L171.566 185.337Z" fill="#E6E6E6"/>
<path d="M89.8983 168.882V251.309H26.2731V202.619L34.6953 202.974V185.565L43.1573 185.549H54.1545V168.882H72.8282H74.7292H89.8983Z" fill="#E6E6E6"/>
<path d="M43.1189 193.87H46.9628V190.027H43.1189V193.87Z" fill="white"/>
<path d="M49.9117 193.87H53.7556V190.027H49.9117V193.87Z" fill="white"/>
<path d="M43.1188 201.034H46.9627V197.19H43.1188V201.034Z" fill="white"/>
<path d="M49.9117 201.034H53.7556V197.19H49.9117V201.034Z" fill="white"/>
<path d="M64.1134 175.826H67.9573V171.982H64.1134V175.826Z" fill="white"/>
<path d="M70.9064 175.826H74.7503V171.982H70.9064V175.826Z" fill="white"/>
<path d="M284.289 217.232H288.132V213.388H284.289V217.232Z" fill="white"/>
<path d="M291.082 217.232H294.926V213.388H291.082V217.232Z" fill="white"/>
<path d="M143.769 197.267V193.424H139.925V197.267H143.769Z" fill="white"/>
<path d="M143.769 190.474V186.63H139.926V190.474H143.769Z" fill="white"/>
<path d="M75.8378 193.87H79.6817V190.027H75.8378V193.87Z" fill="white"/>
<path d="M82.6314 193.87H86.4753V190.027H82.6314V193.87Z" fill="white"/>
<path d="M259.055 166.019H262.898V162.175H259.055V166.019Z" fill="white"/>
<path d="M265.848 166.019H269.692V162.175H265.848V166.019Z" fill="white"/>
<path d="M265.848 173.183H269.692V169.339H265.848V173.183Z" fill="white"/>
<path d="M297.615 135.499C297.676 135.116 297.716 134.726 297.716 134.327C297.716 130.19 294.363 126.837 290.227 126.837C289.813 126.837 289.41 126.88 289.013 126.944C287.52 124.456 284.797 122.791 281.684 122.791C277.766 122.791 274.466 125.43 273.459 129.026C272.938 128.864 272.383 128.776 271.808 128.776C268.743 128.776 266.259 131.261 266.259 134.326C266.259 134.728 266.304 135.121 266.386 135.498H297.615V135.499Z" fill="#F4F7FD"/>
<path d="M60.4034 148.154C60.4466 147.878 60.4758 147.598 60.4758 147.311C60.4758 144.338 58.0661 141.929 55.0941 141.929C54.7966 141.929 54.5064 141.96 54.2222 142.006C53.1492 140.218 51.1924 139.022 48.9554 139.022C46.14 139.022 43.7689 140.918 43.0451 143.502C42.6706 143.385 42.2722 143.323 41.8592 143.323C39.6567 143.323 37.8706 145.109 37.8706 147.312C37.8706 147.601 37.9031 147.883 37.9615 148.154L60.4034 148.154Z" fill="#F4F7FD"/>
<path d="M120.902 64.7852C121.005 64.1265 121.075 63.4565 121.075 62.7693C121.075 55.6598 115.312 49.8963 108.202 49.8963C107.49 49.8963 106.796 49.9693 106.116 50.0802C103.549 45.8041 98.8683 42.9409 93.5178 42.9409C86.7835 42.9409 81.1116 47.4767 79.3805 53.6585C78.4841 53.3796 77.532 53.2296 76.5439 53.2296C71.2751 53.2296 67.0042 57.5004 67.0042 62.7693C67.0042 63.4611 67.0819 64.1351 67.222 64.7852H120.902Z" fill="#F4F7FD"/>
<path d="M164.712 283.9C235.814 283.9 293.454 280.534 293.454 276.382C293.454 272.23 235.814 268.864 164.712 268.864C93.6094 268.864 35.9695 272.23 35.9695 276.382C35.9695 280.534 93.6094 283.9 164.712 283.9Z" fill="#F5F5F5"/>
<path d="M63.8137 82.5731H82.2317C86.8206 82.5731 90.5749 86.3273 90.5749 90.9162V107.99H65.0288C60.4399 107.99 56.6857 104.236 56.6857 99.6472V89.7011C56.685 85.7642 59.8769 82.5731 63.8137 82.5731Z" fill="#198F51"/>
<path d="M90.5749 105.555V112.861L82.9389 105.225L90.5749 105.555Z" fill="#198F51"/>
<g opacity="0.6">
<path d="M63.8137 82.5731H82.2317C86.8206 82.5731 90.5749 86.3273 90.5749 90.9162V107.99H65.0288C60.4399 107.99 56.6857 104.236 56.6857 99.6472V89.7011C56.685 85.7642 59.8769 82.5731 63.8137 82.5731Z" fill="white"/>
<path d="M90.5749 105.555V112.861L82.9389 105.225L90.5749 105.555Z" fill="white"/>
</g>
<path d="M79.2723 90.7024C76.6714 88.3758 73.6303 91.5324 73.6303 91.5324C73.6303 91.5324 70.5885 88.3758 67.9883 90.7024C64.2785 94.0217 69.6722 99.9652 73.6303 101.157C77.5884 99.9652 82.9821 94.0211 79.2723 90.7024Z" fill="white"/>
<path d="M269.705 95.9493C256.404 95.9493 245.582 85.1281 245.582 71.8269C245.582 58.5263 256.404 47.7051 269.705 47.7051C283.006 47.7051 293.827 58.5263 293.827 71.8269C293.827 85.1281 283.006 95.9493 269.705 95.9493ZM269.705 51.0251C258.235 51.0251 248.902 60.3569 248.902 71.8269C248.902 83.2968 258.234 92.6293 269.705 92.6293C281.175 92.6293 290.507 83.2975 290.507 71.8269C290.507 60.3563 281.175 51.0251 269.705 51.0251Z" fill="#198F51"/>
<path d="M270.01 86.3266L257.618 74.4105L259.919 72.0181L269.4 81.1348L281.681 62.0236L284.474 63.819L270.01 86.3266Z" fill="#198F51"/>
<g opacity="0.8">
<path d="M269.705 95.9493C256.404 95.9493 245.582 85.1281 245.582 71.8269C245.582 58.5263 256.404 47.7051 269.705 47.7051C283.006 47.7051 293.827 58.5263 293.827 71.8269C293.827 85.1281 283.006 95.9493 269.705 95.9493ZM269.705 51.0251C258.235 51.0251 248.902 60.3569 248.902 71.8269C248.902 83.2968 258.234 92.6293 269.705 92.6293C281.175 92.6293 290.507 83.2975 290.507 71.8269C290.507 60.3563 281.175 51.0251 269.705 51.0251Z" fill="white"/>
</g>
<g opacity="0.5">
<path d="M270.01 86.3266L257.618 74.4105L259.919 72.0181L269.4 81.1348L281.681 62.0236L284.474 63.819L270.01 86.3266Z" fill="white"/>
</g>
<path d="M230.351 67.5069L140.742 67.5819C135.242 67.5866 130.786 72.0493 130.791 77.5505L130.947 264.49C130.952 269.99 135.416 274.446 140.916 274.441L230.525 274.366C236.025 274.361 240.481 269.899 240.476 264.398L240.32 77.4583C240.315 71.9577 235.851 67.5022 230.351 67.5069Z" fill="#263238"/>
<path d="M230.074 266.132L141.353 266.206C139.52 266.208 138.032 264.723 138.03 262.889L137.875 78.0359C137.874 76.2026 139.358 74.7146 141.192 74.7133L229.913 74.6389C231.747 74.6376 233.235 76.1223 233.236 77.9563L233.391 262.809C233.393 264.643 231.907 266.13 230.074 266.132Z" fill="#198F51"/>
<path opacity="0.1" d="M193.693 260.898L177.725 260.911C175.892 260.913 174.404 259.428 174.402 257.594L174.402 256.638C174.4 254.805 175.885 253.317 177.719 253.315L193.687 253.302C195.521 253.301 197.009 254.785 197.01 256.619L197.011 257.576C197.012 259.409 195.527 260.897 193.693 260.898Z" fill="#121212"/>
<path opacity="0.1" d="M193.656 217.022L177.688 217.035C175.854 217.036 174.366 215.552 174.365 213.718L174.354 200.937C174.353 199.104 175.838 197.616 177.672 197.614L193.64 197.601C195.474 197.6 196.962 199.084 196.963 200.918L196.974 213.699C196.975 215.532 195.49 217.02 193.656 217.022Z" fill="#121212"/>
<path opacity="0.1" d="M165.51 217.045L149.541 217.058C147.708 217.06 146.22 215.575 146.219 213.741L146.208 200.96C146.207 199.127 147.692 197.639 149.526 197.638L165.494 197.624C167.328 197.623 168.815 199.108 168.817 200.942L168.827 213.722C168.829 215.556 167.343 217.044 165.51 217.045Z" fill="#121212"/>
<path opacity="0.1" d="M221.803 216.998L205.835 217.011C204.001 217.012 202.513 215.528 202.512 213.694L202.501 200.913C202.5 199.08 203.985 197.592 205.819 197.59L221.787 197.577C223.621 197.576 225.109 199.061 225.11 200.895L225.121 213.675C225.122 215.508 223.637 216.997 221.803 216.998Z" fill="#121212"/>
<path opacity="0.1" d="M193.678 242.013L177.709 242.026C175.875 242.027 174.388 240.543 174.386 238.709L174.376 225.928C174.374 224.095 175.859 222.607 177.693 222.605L193.662 222.592C195.495 222.591 196.983 224.075 196.984 225.909L196.995 238.69C196.996 240.523 195.511 242.011 193.678 242.013Z" fill="#121212"/>
<path opacity="0.1" d="M165.531 242.036L149.562 242.049C147.729 242.051 146.241 240.566 146.239 238.732L146.229 225.951C146.227 224.118 147.712 222.63 149.546 222.629L165.515 222.615C167.349 222.614 168.836 224.099 168.837 225.933L168.848 238.713C168.849 240.547 167.365 242.035 165.531 242.036Z" fill="#121212"/>
<path opacity="0.1" d="M221.824 241.989L205.856 242.002C204.023 242.003 202.535 240.519 202.533 238.685L202.523 225.904C202.521 224.071 204.006 222.583 205.84 222.581L221.809 222.568C223.642 222.567 225.13 224.052 225.131 225.885L225.142 238.666C225.143 240.499 223.658 241.988 221.824 241.989Z" fill="#121212"/>
<path opacity="0.1" d="M233.353 217.7L233.3 153.421C209.078 181.22 164.012 233.41 138.089 263.463C138.363 265.021 139.716 266.207 141.353 266.206L191.32 266.164L233.353 217.7Z" fill="white"/>
<path opacity="0.1" d="M137.953 171.018L221.54 74.6456L182.411 74.6781C172.063 86.5179 154.383 106.944 137.915 126.005L137.953 171.018Z" fill="white"/>
<path opacity="0.1" d="M137.987 211.271L233.256 101.43L233.236 77.9397L137.967 187.781L137.987 211.271Z" fill="white"/>
<path opacity="0.2" d="M233.239 82.1408L137.878 82.2211L137.875 78.0359C137.874 76.2026 139.358 74.7146 141.192 74.7133L229.913 74.6389C231.747 74.6376 233.235 76.1223 233.236 77.9563L233.239 82.1408Z" fill="#121212"/>
<path opacity="0.6" d="M219.59 80.275L219.311 79.9967L219.25 79.935C219.24 79.9244 219.232 79.9124 219.222 79.9005C219.221 79.8991 219.22 79.8985 219.219 79.8971C219.191 79.8606 219.162 79.8175 219.133 79.769C219.025 79.5837 218.923 79.3122 218.917 78.9523C218.917 78.9523 218.916 78.1482 218.916 78.1156C218.916 77.4676 218.499 76.9038 217.923 76.6807C217.927 76.6635 217.932 76.6462 217.935 76.6289V76.6269C217.939 76.6097 217.941 76.5924 217.943 76.5751C217.945 76.5572 217.945 76.5393 217.945 76.5207C217.945 76.206 217.69 75.951 217.375 75.951C217.06 75.951 216.805 76.2066 216.805 76.5214C216.805 76.54 216.807 76.5579 216.808 76.5758C216.809 76.5931 216.813 76.6103 216.815 76.6276V76.6296C216.819 76.6469 216.823 76.6641 216.828 76.6814C216.252 76.9058 215.836 77.4702 215.837 78.1183C215.837 78.1502 215.837 78.9257 215.837 78.9257C215.837 79.2995 215.733 79.5817 215.621 79.7716C215.582 79.84 215.54 79.8971 215.503 79.9416L215.445 80.0001L215.167 80.2789C215.099 80.3467 215.078 80.4489 215.115 80.5379C215.152 80.6269 215.239 80.6846 215.335 80.6846L216.885 80.6833C216.984 80.8533 217.167 80.9682 217.378 80.9682C217.59 80.9682 217.773 80.8533 217.871 80.6827L219.421 80.6813C219.517 80.6813 219.603 80.6236 219.64 80.5346C219.679 80.4449 219.659 80.3427 219.59 80.275Z" fill="white"/>
<g opacity="0.6">
<path opacity="0.6" d="M148.187 80.1811L149.63 80.1799L149.629 78.2556L148.185 78.2568L148.187 80.1811Z" fill="white"/>
<path opacity="0.6" d="M145.834 80.1832L147.278 80.182L147.276 77.6157L145.832 77.6169L145.834 80.1832Z" fill="white"/>
<path opacity="0.6" d="M143.482 80.1853L144.925 80.1841L144.922 76.9756L143.479 76.9769L143.482 80.1853Z" fill="white"/>
<path opacity="0.6" d="M141.129 80.1873L142.572 80.1861L142.569 76.3355L141.126 76.3367L141.129 80.1873Z" fill="white"/>
</g>
<path opacity="0.6" d="M223.705 77.4915H222.85V79.4157H223.705V77.4915Z" fill="white"/>
<path opacity="0.6" d="M223.707 80.1175L230.524 80.1118L230.521 76.7825L223.704 76.7882L223.707 80.1175Z" fill="white"/>
<path d="M190.521 74.6714C190.523 77.4151 188.3 79.6415 185.557 79.6435C182.813 79.6461 180.587 77.4237 180.585 74.6794C180.582 71.9358 182.805 69.7094 185.549 69.7074C188.292 69.7054 190.518 71.9278 190.521 74.6714Z" fill="#263238"/>
<path opacity="0.1" d="M188.119 74.6734C188.12 76.0904 186.972 77.2405 185.555 77.2418C184.138 77.2431 182.988 76.0951 182.986 74.6781C182.985 73.2611 184.133 72.1111 185.55 72.1097C186.968 72.1084 188.117 73.2565 188.119 74.6734Z" fill="#E0E0E0"/>
<path d="M188.701 78.5857C188.701 78.5857 192.727 74.6695 200.244 74.6628L188.697 74.0088L188.701 78.5857Z" fill="#263238"/>
<path d="M182.411 78.591C182.411 78.591 178.378 74.6814 170.86 74.688L182.407 74.0141L182.411 78.591Z" fill="#263238"/>
<path opacity="0.3" d="M221.109 104.335H157.578C153.911 104.335 150.938 107.308 150.938 110.975V208.894C150.938 212.561 153.911 215.534 157.578 215.534H221.109C224.776 215.534 227.749 212.561 227.749 208.894V110.975C227.749 107.308 224.776 104.335 221.109 104.335Z" fill="#121212"/>
<path d="M218.874 99.608H155.343C151.676 99.608 148.703 102.581 148.703 106.248V204.167C148.703 207.834 151.676 210.807 155.343 210.807H218.874C222.541 210.807 225.514 207.834 225.514 204.167V106.248C225.514 102.581 222.541 99.608 218.874 99.608Z" fill="white"/>
<path d="M214.505 113.424C211.876 113.424 209.738 111.286 209.738 108.659C209.738 106.032 211.876 103.893 214.505 103.893C217.133 103.893 219.27 106.031 219.27 108.659C219.27 111.287 217.133 113.424 214.505 113.424ZM214.505 104.759C212.355 104.759 210.606 106.508 210.606 108.658C210.606 110.808 212.355 112.557 214.505 112.557C216.655 112.557 218.404 110.808 218.404 108.658C218.404 106.508 216.655 104.759 214.505 104.759Z" fill="#E0E0E0"/>
<path d="M215.956 106.593L212.437 110.112L213.05 110.725L216.569 107.206L215.956 106.593Z" fill="#E0E0E0"/>
<path d="M213.051 106.599L212.439 107.212L215.958 110.732L216.571 110.119L213.051 106.599Z" fill="#E0E0E0"/>
<path d="M203.613 207.835H171.313C167.646 207.835 164.673 204.862 164.673 201.195C164.673 197.527 167.646 194.555 171.313 194.555H203.613C207.28 194.555 210.253 197.527 210.253 201.195C210.253 204.862 207.28 207.835 203.613 207.835Z" fill="#E0E0E0"/>
<path d="M202.904 206.62H170.605C166.938 206.62 163.965 203.647 163.965 199.98C163.965 196.312 166.938 193.34 170.605 193.34H202.904C206.572 193.34 209.544 196.312 209.544 199.98C209.544 203.647 206.571 206.62 202.904 206.62Z" fill="#198F51"/>
<path d="M176.103 203.309L175.607 202.109H173.007L172.511 203.309H171.183L173.679 197.709H174.959L177.463 203.309H176.103ZM173.423 201.125H175.199L174.311 198.981L173.423 201.125ZM180.646 203.405C178.91 203.405 177.614 202.197 177.614 200.509C177.614 198.821 178.91 197.613 180.654 197.613C181.622 197.613 182.43 197.965 182.958 198.605L182.126 199.373C181.75 198.941 181.278 198.717 180.718 198.717C179.67 198.717 178.926 199.453 178.926 200.509C178.926 201.565 179.67 202.301 180.718 202.301C181.278 202.301 181.75 202.077 182.126 201.637L182.958 202.405C182.43 203.053 181.622 203.405 180.646 203.405ZM186.396 203.405C184.66 203.405 183.364 202.197 183.364 200.509C183.364 198.821 184.66 197.613 186.404 197.613C187.372 197.613 188.18 197.965 188.708 198.605L187.876 199.373C187.5 198.941 187.028 198.717 186.468 198.717C185.42 198.717 184.676 199.453 184.676 200.509C184.676 201.565 185.42 202.301 186.468 202.301C187.028 202.301 187.5 202.077 187.876 201.637L188.708 202.405C188.18 203.053 187.372 203.405 186.396 203.405ZM190.872 202.269H193.92V203.309H189.584V197.709H193.816V198.749H190.872V199.965H193.472V200.973H190.872V202.269ZM197.375 197.709C198.871 197.709 199.807 198.485 199.807 199.741C199.807 200.989 198.871 201.765 197.375 201.765H196.247V203.309H194.951V197.709H197.375ZM197.303 200.709C198.095 200.709 198.495 200.349 198.495 199.741C198.495 199.125 198.095 198.765 197.303 198.765H196.247V200.709H197.303ZM201.736 203.309V198.765H199.944V197.709H204.824V198.765H203.032V203.309H201.736Z" fill="white"/>
<path d="M204.023 171.051H167.244V173.043H204.023V171.051Z" fill="#E0E0E0"/>
<path d="M204.001 184.698H167.222V186.69H204.001V184.698Z" fill="#F5F5F5"/>
<path d="M211.525 175.925H159.742V179.245H211.525V175.925Z" fill="#E0E0E0"/>
<path d="M185.633 167.679C201.461 167.679 214.291 154.849 214.291 139.021C214.291 123.194 201.461 110.363 185.633 110.363C169.806 110.363 156.975 123.194 156.975 139.021C156.975 154.849 169.806 167.679 185.633 167.679Z" fill="#198F51"/>
<path opacity="0.6" d="M185.633 167.679C201.461 167.679 214.291 154.849 214.291 139.021C214.291 123.194 201.461 110.363 185.633 110.363C169.806 110.363 156.975 123.194 156.975 139.021C156.975 154.849 169.806 167.679 185.633 167.679Z" fill="white"/>
<path d="M152.521 150.532C152.521 150.532 150.973 149.771 150.249 150.035C149.524 150.301 144.95 155.266 144.967 155.925C144.984 156.583 147.923 156.888 148.866 156.609C149.809 156.33 153.1 152.517 153.257 152.127L152.521 150.532Z" fill="#FFC3BD"/>
<path d="M150.614 152.371C150.614 152.371 148.966 151.629 148.825 150.94C148.725 150.453 147.186 150.924 146.783 150.632C146.439 150.382 146.51 150.171 146.51 150.171C148.458 149.816 150.049 148.729 152.575 150.466L150.614 152.371Z" fill="#FFC3BD"/>
<path d="M153.011 153.346C158.922 153.692 164.713 153.426 167.325 152.99C171.629 152.269 174.168 141.984 174.168 141.984C174.168 141.984 184.7 121.639 173.862 128.883C171.988 129.896 168.481 136.323 167.037 141.348C165.592 146.373 165.404 147.063 163.986 147.418C163.383 147.569 153.503 149.19 151.832 149.508L153.011 153.346Z" fill="#198F51"/>
<g opacity="0.3">
<path d="M153.011 153.346C158.922 153.692 164.713 153.426 167.325 152.99C171.629 152.269 174.168 141.984 174.168 141.984C174.168 141.984 184.7 121.639 173.862 128.883C171.988 129.896 168.481 136.323 167.037 141.348C165.592 146.373 165.404 147.063 163.986 147.418C163.383 147.569 153.503 149.19 151.832 149.508L153.011 153.346Z" fill="#121212"/>
</g>
<path opacity="0.5" d="M171.669 148.659C173.281 145.573 174.168 141.984 174.168 141.984C174.168 141.984 174.212 141.899 174.29 141.743L172.343 138.351L171.669 148.659Z" fill="#121212"/>
<path d="M198.722 164.513C197.812 156.494 195.476 135.66 195.201 130.804C194.859 124.757 191.247 124.223 183.518 125.202C175.789 126.18 173.743 129.372 172.147 133.892C170.608 138.249 174.862 147.812 176.617 166.223C179.453 167.163 182.482 167.679 185.633 167.679C190.351 167.679 194.798 166.532 198.722 164.513Z" fill="#198F51"/>
<path opacity="0.3" d="M198.722 164.513C197.812 156.494 195.476 135.66 195.201 130.804C194.859 124.757 191.247 124.223 183.518 125.202C175.789 126.18 173.743 129.372 172.147 133.892C170.608 138.249 174.862 147.812 176.617 166.223C179.453 167.163 182.482 167.679 185.633 167.679C190.351 167.679 194.798 166.532 198.722 164.513Z" fill="#121212"/>
<path d="M183.593 116.178C183.578 119.27 183.824 123.742 186.235 125.223C186.235 125.223 186.69 128.27 179.054 133.531C175.267 129.924 177.138 127.428 177.138 127.428C180.254 125.849 179.912 124.527 178.916 122.361L183.593 116.178Z" fill="#FFC3BD"/>
<path opacity="0.2" d="M181.692 118.673L178.951 122.354C179.192 122.854 179.388 123.377 179.536 123.918C180.753 123.435 182.506 121.888 182.515 120.45C182.393 119.789 182.11 119.179 181.692 118.673Z" fill="#121212"/>
<path d="M186.449 110.177C186.052 115.347 185.986 117.532 183.398 120.249C179.504 124.343 173.415 122.995 172.302 117.886C171.308 113.28 172.13 105.574 177.097 103.411C180.635 101.828 184.624 103.429 186.006 106.988C186.396 107.989 186.547 109.081 186.449 110.177Z" fill="#FFC3BD"/>
<path d="M178.404 111.755C178.392 112.174 178.169 112.522 177.905 112.533C177.641 112.543 177.424 112.202 177.429 111.784C177.433 111.366 177.664 111.017 177.928 111.006C178.192 110.996 178.39 111.357 178.404 111.755Z" fill="#263238"/>
<path d="M173.776 111.897C173.765 112.324 173.541 112.664 173.277 112.675C173.012 112.685 172.796 112.344 172.801 111.927C172.805 111.508 173.036 111.159 173.301 111.156C173.567 111.152 173.781 111.478 173.776 111.897Z" fill="#263238"/>
<path d="M175.19 112.616C174.806 113.586 174.297 114.502 173.676 115.341C174.096 115.636 174.629 115.722 175.135 115.58L175.19 112.616Z" fill="#ED893E"/>
<path d="M177.336 117.157C177.137 117.196 176.934 117.217 176.732 117.22C176.667 117.225 176.613 117.174 176.611 117.107C176.611 117.106 176.611 117.104 176.611 117.103C176.617 117.035 176.673 116.98 176.74 116.979C177.773 116.97 178.763 116.459 179.407 115.602C179.445 115.543 179.52 115.525 179.575 115.561C179.63 115.596 179.645 115.672 179.607 115.731C179.055 116.493 178.236 117.007 177.336 117.157Z" fill="#263238"/>
<path d="M180.283 110.748C180.178 110.77 180.076 110.719 180.031 110.624C179.597 109.965 178.907 109.535 178.125 109.436C177.993 109.422 177.902 109.299 177.921 109.162C177.941 109.029 178.062 108.933 178.192 108.946C178.194 108.946 178.198 108.947 178.2 108.948C179.141 109.059 179.969 109.587 180.467 110.394C180.524 110.512 180.473 110.66 180.355 110.723C180.332 110.738 180.308 110.747 180.283 110.748Z" fill="#263238"/>
<path d="M172.426 109.748C172.339 109.764 172.252 109.732 172.197 109.665C172.116 109.561 172.134 109.406 172.238 109.316C172.838 108.767 173.652 108.547 174.409 108.731C174.53 108.763 174.599 108.89 174.564 109.016C174.562 109.023 174.56 109.029 174.558 109.035C174.516 109.164 174.382 109.239 174.258 109.203C174.257 109.203 174.256 109.202 174.255 109.201C173.659 109.079 173.029 109.259 172.559 109.685C172.521 109.719 172.475 109.741 172.426 109.748Z" fill="#263238"/>
<path opacity="0.5" d="M195.261 131.677L193.022 130.869L191.024 132.93L196.317 142.648C195.832 138.021 195.429 133.945 195.261 131.677Z" fill="#121212"/>
<path d="M200.703 156.001L199.278 159.179C199.278 159.179 195.934 160.825 195.532 161.956C195.13 163.086 193.314 165.619 195.329 166.239C197.344 166.859 199.283 166.17 200.335 164.473C201.387 162.775 201.797 161.711 201.745 160.906L204.023 156.817L200.703 156.001Z" fill="#FFC3BD"/>
<path d="M176.676 101.767C175.082 102.309 169.816 105.026 173.208 108.209C173.208 108.209 176.855 106.892 179.289 108.218C179.289 108.218 178.882 105.667 180.728 105.173C180.728 105.173 178.741 108.488 181.925 110.814C185.11 113.14 183.233 115.069 183.233 115.069C183.233 115.069 184.567 115.331 185.11 113.14C185.11 113.14 186.259 114.865 186.478 114.499C195.386 99.608 181.08 100.268 176.676 101.767Z" fill="#263238"/>
<path d="M187.749 114.106C187.416 115.039 186.743 115.816 185.877 116.269C184.718 116.853 183.947 115.875 184.108 114.64C184.263 113.529 185.046 111.886 186.284 111.792C187.184 111.753 187.909 112.468 187.906 113.39C187.905 113.635 187.852 113.879 187.749 114.106Z" fill="#FFC3BD"/>
<path d="M190.154 124.902C190.154 124.902 195.663 124.951 203.467 138.049C211.272 151.147 203.458 158.696 203.458 158.696L199.914 156.371C199.914 156.371 202.279 150.19 201.197 147.205C200.114 144.221 195.324 138.137 195.324 138.137C195.324 138.137 183.586 125.775 190.154 124.902Z" fill="#198F51"/>
<g opacity="0.3">
<path d="M190.154 124.902C190.154 124.902 195.663 124.951 203.467 138.049C211.272 151.147 203.458 158.696 203.458 158.696L199.914 156.371C199.914 156.371 202.279 150.19 201.197 147.205C200.114 144.221 195.324 138.137 195.324 138.137C195.324 138.137 183.586 125.775 190.154 124.902Z" fill="#121212"/>
</g>
<path d="M132.632 135.786L133.749 133.174L136.278 133.896L134.708 137.407L132.632 135.786Z" fill="#E4897B"/>
<path d="M135.578 134.499C135.578 134.499 137.2 133.908 137.51 133.202C137.82 132.496 138.228 127.716 137.741 127.272C137.255 126.829 134.423 127.582 133.972 128.455C133.52 129.329 133.399 133.362 133.572 133.744L135.578 134.499Z" fill="#E4897B"/>
<path d="M106.369 104.556C106.369 104.556 109.705 100.285 115.626 102.469C121.546 104.654 122.128 113.648 121.384 118.288C120.64 122.927 119.954 130.303 120.912 131.05C120.912 131.05 116.307 132.301 113.443 130.3C110.579 128.299 110.724 119.956 110.724 119.956L111.851 115.642L106.369 104.556Z" fill="#263238"/>
<path d="M116.061 261.525L115.903 270.412L120.58 270.131L121.155 262.081L116.061 261.525Z" fill="#FFB573"/>
<path d="M121.424 269.569L115.519 269.463C115.297 269.459 115.101 269.61 115.049 269.826L113.895 274.61C113.79 275.034 114.048 275.463 114.472 275.569C114.526 275.582 114.582 275.59 114.638 275.592C116.766 275.593 118.661 275.51 121.311 275.561C124.438 275.618 123.638 275.978 127.314 276.097C129.528 276.166 129.979 273.655 129.042 273.514C124.753 272.896 124.33 271.59 122.699 270.022C122.344 269.719 121.89 269.558 121.424 269.569Z" fill="#263238"/>
<path opacity="0.2" d="M116.036 262.927L115.976 266.256L120.845 266.411L121.037 263.737L116.036 262.927Z" fill="#121212"/>
<path d="M95.1957 259.962L94.0397 268.775L98.7189 269.022L100.195 261.087L95.1957 259.962Z" fill="#FFB573"/>
<path d="M99.6212 268.557L93.7661 267.789C93.5457 267.759 93.3345 267.887 93.2575 268.097L91.5736 272.721C91.4215 273.13 91.6293 273.585 92.0384 273.737C92.0908 273.757 92.1453 273.771 92.201 273.779C94.3165 274.02 96.2083 274.15 98.8357 274.499C101.937 274.907 101.101 275.175 104.74 275.705C106.933 276.023 107.663 273.579 106.747 273.334C102.555 272.237 102.281 270.892 100.837 269.15C100.518 268.81 100.085 268.599 99.6212 268.557Z" fill="#263238"/>
<path opacity="0.2" d="M95.0131 261.352L94.5802 264.654L99.4015 265.354L99.8915 262.72L95.0131 261.352Z" fill="#121212"/>
<path d="M122.428 161.2C122.428 161.2 127.574 202.935 126.544 211.167C125.515 219.4 121.742 265.022 121.742 265.022H115.225C115.225 265.022 112.938 225.689 115.225 210.252C115.225 210.252 109.165 174.806 109.851 165.888C110.537 156.969 122.023 158.235 122.428 161.2Z" fill="#263238"/>
<path opacity="0.3" d="M114.255 204.368C115.696 190.411 112.67 174.578 112.67 174.578L110.58 178.26C111.551 187.057 113.205 197.836 114.255 204.368Z" fill="#121212"/>
<path d="M113.142 180.581C113.16 192.957 113.018 207.726 111.936 212.165C109.97 220.226 100.311 263.765 100.311 263.765L93.8365 263.018C93.8365 263.018 96.7588 224.953 100.8 209.881C100.8 209.881 99.9479 195.626 99.857 182.469C99.857 182.469 95.9759 171.835 100.91 158.578C100.91 158.578 111.918 155.456 115.414 159.872C115.414 159.872 113.134 175.263 113.142 180.581Z" fill="#263238"/>
<path d="M118.219 129.145C118.219 129.145 122.794 129.534 125.3 137.471C127.805 145.407 127.169 144.213 127.169 144.213L132.47 134.667L135.879 136.342C135.879 136.342 130.683 152.536 127.677 155.422C124.671 158.308 120.133 152.091 119.955 150.984C119.777 149.877 118.882 136.268 118.882 136.268L118.219 129.145Z" fill="#198F51"/>
<path opacity="0.1" d="M118.219 129.145C118.219 129.145 122.794 129.534 125.3 137.471C127.805 145.407 127.169 144.213 127.169 144.213L132.47 134.667L135.879 136.342C135.879 136.342 130.683 152.536 127.677 155.422C124.671 158.308 120.133 152.091 119.955 150.984C119.777 149.877 118.882 136.268 118.882 136.268L118.219 129.145Z" fill="#121212"/>
<path d="M106.369 104.882C106.369 104.882 102.396 103.926 101.346 113.83C100.172 124.888 103.642 132.288 110.318 132.225C110.318 132.225 109.261 123.689 109.785 121.111C110.31 118.533 108.77 107.383 108.77 107.383L106.369 104.882Z" fill="#263238"/>
<path d="M122.827 165.97L99.0934 165.086C99.191 159.004 100.846 144.176 100.287 141.108C99.9865 139.469 99.6525 137.708 99.2733 135.812C98.9898 134.374 98.683 132.846 98.3384 131.234C101.11 130.359 103.914 129.725 106.743 129.345C109.728 128.9 112.737 128.718 115.734 128.795C116.444 128.836 117.079 128.912 117.644 129.009C119.908 129.396 121.719 131.399 122.317 134.096C122.581 135.283 122.857 136.739 123.098 138.455C123.738 143.008 124.808 148.631 122.827 165.97Z" fill="#198F51"/>
<g opacity="0.2">
<path d="M122.827 165.97L99.0934 165.086C99.191 159.004 100.846 144.176 100.287 141.108C99.9865 139.469 99.6525 137.708 99.2733 135.812C98.9898 134.374 98.683 132.846 98.3384 131.234C101.11 130.359 103.914 129.725 106.743 129.345C109.728 128.9 112.737 128.718 115.734 128.795C116.444 128.836 117.079 128.912 117.644 129.009C119.908 129.396 121.719 131.399 122.317 134.096C122.581 135.283 122.857 136.739 123.098 138.455C123.738 143.008 124.808 148.631 122.827 165.97Z" fill="#121212"/>
</g>
<path d="M113.799 132.225C108.949 131.267 107.62 129.078 107.62 129.078C110.923 126.36 108.688 121.11 108.688 121.11L114.501 122.608C114.281 123.57 114.16 124.382 114.104 125.072C113.817 128.643 115.431 128.787 115.431 128.787C116.333 130.793 113.799 132.225 113.799 132.225Z" fill="#E4897B"/>
<path opacity="0.2" d="M114.501 122.609C114.281 123.571 114.16 124.383 114.104 125.072C110.126 124.803 108.688 121.111 108.688 121.111L114.501 122.609Z" fill="#121212"/>
<path d="M112.361 105.923C117.499 105.99 119.118 108.761 119.426 114.061C119.811 120.683 118.284 125.365 111.878 123.869C103.178 121.837 103.829 105.813 112.361 105.923Z" fill="#E4897B"/>
<path d="M115.734 113.731C115.734 113.731 116.428 115.082 117.201 115.881C117.201 115.881 116.752 116.574 115.839 116.444L115.734 113.731Z" fill="#DE5753"/>
<path d="M112.962 110.214C112.962 110.214 111.521 110.008 110.724 110.962" stroke="#263238" stroke-width="0.6166" stroke-miterlimit="10" stroke-linecap="round" stroke-linejoin="round"/>
<path d="M116.468 109.933C116.468 109.933 117.379 109.609 118.509 110.382" stroke="#263238" stroke-width="0.6166" stroke-miterlimit="10" stroke-linecap="round" stroke-linejoin="round"/>
<path d="M106.635 114.51C106.635 114.51 110.345 110.798 110.023 107.534C110.023 107.534 119.004 103.028 119.374 113.369C119.374 113.369 120.487 104.206 111.658 103.887C102.842 103.57 102.7 116.491 107.211 120.399C107.211 120.399 105.115 117.131 106.635 114.51Z" fill="#263238"/>
<path d="M107.46 115.606C107.436 114.778 106.601 113.367 105.06 113.515C103.466 113.668 102.665 116.926 106.615 117.764C107.182 117.884 107.51 117.332 107.46 115.606Z" fill="#E4897B"/>
<path d="M117.353 118.168C117.288 118.852 117.404 120.05 117.404 120.05C117.298 120.08 117.191 120.11 117.083 120.135C115.627 120.507 114.828 120.199 114.385 119.744C114.143 119.494 114.009 119.196 113.934 118.944C113.845 118.654 113.847 118.426 113.847 118.426C114.737 118.69 116.121 118.448 116.855 118.288C117.163 118.223 117.353 118.168 117.353 118.168Z" fill="#263238"/>
<path d="M116.865 118.288V118.843C115.63 119.19 114.498 119.25 113.962 118.944C113.873 118.654 113.865 118.426 113.865 118.426C114.755 118.69 116.246 118.448 116.865 118.288Z" fill="white"/>
<path d="M117.083 120.135C115.627 120.507 114.828 120.199 114.385 119.744C114.886 119.636 115.502 119.562 116.084 119.651C116.529 119.717 116.847 119.913 117.083 120.135Z" fill="#DE5753"/>
<path d="M118.668 112.571C118.668 112.571 117.7 111.76 117.037 112.861" stroke="#263238" stroke-width="0.4254" stroke-miterlimit="10" stroke-linecap="round" stroke-linejoin="round"/>
<path d="M114.28 112.982C114.28 112.982 112.737 111.764 111.755 113.509" stroke="#263238" stroke-width="0.4254" stroke-miterlimit="10" stroke-linecap="round" stroke-linejoin="round"/>
<path d="M108.769 107.057C108.769 107.057 114.339 109.456 118.392 108.729C122.445 108.001 114.901 104.529 114.901 104.529L111.042 104.265L108.769 107.057Z" fill="#263238"/>
<path d="M110.126 106.581C110.275 106.824 110.305 106.976 110.363 107.171C110.415 107.356 110.446 107.541 110.478 107.725C110.521 108.096 110.55 108.466 110.529 108.834C110.504 109.569 110.367 110.288 110.168 110.983C109.962 111.677 109.683 112.342 109.365 112.984C109.208 113.306 109.021 113.612 108.851 113.926L108.275 114.83L108.787 113.891C108.935 113.567 109.1 113.253 109.233 112.923C109.505 112.268 109.733 111.596 109.887 110.91C110.035 110.223 110.119 109.524 110.096 108.833C110.093 108.487 110.041 108.146 109.98 107.812C109.939 107.648 109.901 107.484 109.846 107.328C109.8 107.183 109.713 106.993 109.671 106.936L110.126 106.581Z" fill="#263238"/>
<path d="M109.597 106.674C109.84 106.86 109.966 107.004 110.144 107.163C110.31 107.317 110.478 107.468 110.649 107.614C110.993 107.905 111.351 108.18 111.733 108.42C112.492 108.906 113.343 109.267 114.256 109.388C113.335 109.364 112.424 109.091 111.591 108.672C111.172 108.466 110.772 108.222 110.387 107.96C110.194 107.828 110.005 107.691 109.82 107.552C109.643 107.421 109.432 107.251 109.301 107.172L109.597 106.674Z" fill="#263238"/>
<path d="M144.476 152.737C144.476 152.737 145.523 151.365 146.289 151.28C147.056 151.195 152.959 152.087 153.237 152.684C153.515 153.281 150.734 155.902 149.765 156.072C148.796 156.242 145.238 155.791 144.925 155.512L144.476 152.737Z" fill="#E4897B"/>
<path d="M147.003 153.533C147.003 153.533 148.262 152.757 148.083 152.077C147.955 151.596 149.068 152.378 149.298 151.937C149.494 151.561 148.804 150.57 148.804 150.57C147.943 150.456 146.063 150.672 144.399 152.701L147.003 153.533Z" fill="#E4897B"/>
<path d="M144.484 152.701L140.831 153.94C140.831 153.94 141.279 156.96 141.465 156.886C141.651 156.812 146.063 155.028 146.063 155.028L144.484 152.701Z" fill="#E4897B"/>
<path d="M98.5867 131.141C98.5867 131.141 95.4905 132.55 96.2501 137.378C97.4825 145.208 117.477 161.598 121.336 161.806C125.195 162.015 143.519 157.314 143.549 157.001C143.579 156.688 142.438 152.725 142.438 152.725C142.438 152.725 124.45 154.564 121.843 153.417C119.235 152.27 106.254 130.56 98.5867 131.141Z" fill="#198F51"/>
<path opacity="0.1" d="M98.5867 131.141C98.5867 131.141 95.4905 132.55 96.2501 137.378C97.4825 145.208 117.477 161.598 121.336 161.806C125.195 162.015 143.519 157.314 143.549 157.001C143.579 156.688 142.438 152.725 142.438 152.725C142.438 152.725 124.45 154.564 121.843 153.417C119.235 152.27 106.254 130.56 98.5867 131.141Z" fill="#121212"/>
</svg>
